<?xml version="1.0" encoding="utf-8"?>
<!-- Generator: Adobe Illustrator 19.0.0, SVG Export Plug-In . SVG Version: 6.00 Build 0)  -->
<svg version="1.1" id="图层_1" xmlns="http://www.w3.org/2000/svg" xmlns:xlink="http://www.w3.org/1999/xlink" x="0px" y="0px"
	 viewBox="0 0 283.5 283.5" style="enable-background:new 0 0 283.5 283.5;" xml:space="preserve">
<style type="text/css">
	.st0{fill:#76B82A;}
	.st1{fill:#29933A;}
	.st2{fill:#EE771C;}
	.st3{fill:#F4A12B;}
	.st4{fill:#2C240D;}
</style>
<g id="XMLID_1_">
	<path id="XMLID_7_" class="st0" d="M249.3,146c8-20.3-45.8-17.3-60-8.1c9.5-7.1,96.3-15.5,90.9-49.6
		c-8.9-56.6-93.7,31.3-109.2,36.9c12.1-10.3,21.2-23.1,30.8-35.9c10.2-13.6,20.3-24,24.1-41.3c2.1-9.6,5.5-29.5-0.5-38.7
		c-15.6-23.7-30.5,25.9-33.5,35.2c-7,21.9-6.7,61-28.8,74.3l16.7,35.4C194.3,147.8,243,162.2,249.3,146z"/>
	<path id="XMLID_6_" class="st1" d="M220.8,137.4c4.7-14-18.1-12.1-29.7-7.5c20.2-11.6,70-45.6,52.9-65.5
		c-23.1-26.9-55.8,55.1-72.4,60.3l11,24.8C189.2,143.6,216,151.6,220.8,137.4z"/>
	<path id="XMLID_5_" class="st2" d="M18.1,281.2c-18-20.4,3-57.5,13.5-73.6c23.5-36.1,62.5-94.7,110.8-97.2
		c29.3-1.5,64.2,39.6,47.8,67.7C177.5,199.8,29.7,294.4,18.1,281.2z"/>
	<path id="XMLID_4_" class="st3" d="M163.9,152.7c20.4-32-20.6-56-60.1-8.5C92,158.4,1,250.8,25.2,262.2
		C38.8,268.6,151.3,172.5,163.9,152.7z"/>
	<g id="XMLID_10_">
		<path id="XMLID_3_" class="st4" d="M132.9,194c-22.7,5.3-44.3-21.6-35.1-42.7c0.7-1.6-1.7-3.1-2.4-1.4
			c-10.1,23.4,13,52.8,38.3,46.9C135.4,196.3,134.6,193.6,132.9,194z"/>
		<path id="XMLID_8_" class="st4" d="M114.1,150.6c3-5.5-2.7-13.2-8.6-9.1c-1.7,1.2,0.3,3.8,2,2.6c1.2-0.9,2.4-0.5,3.4,0.6
			c1.1,1.4,1,3.2,0.2,4.6C110.1,151.2,113.1,152.5,114.1,150.6z"/>
		<path id="XMLID_9_" class="st4" d="M143.8,192.1c2.7-5.4-1.7-11.2-7.6-9.3c-2,0.7-0.8,3.7,1.2,3.1c3.4-1.1,4.6,2.4,3.3,5
			C139.8,192.7,142.9,194,143.8,192.1z"/>
	</g>
</g>
</svg>
