<?xml version="1.0" encoding="utf-8"?>
<!-- Generator: Adobe Illustrator 19.1.1, SVG Export Plug-In . SVG Version: 6.00 Build 0)  -->
<svg version="1.1" id="图层_1" xmlns="http://www.w3.org/2000/svg" xmlns:xlink="http://www.w3.org/1999/xlink" x="0px" y="0px"
	 viewBox="0 0 566.9 566.9" style="enable-background:new 0 0 566.9 566.9;" xml:space="preserve">
<style type="text/css">
	.st0{fill:#84420E;}
	.st1{fill:#FAC000;}
</style>
<g>
	<path class="st0" d="M19.9,559.5h526.8c0,0,36.5-231.6-21.6-379.2C465.5,29.2,360.9-20.1,189.5,10.7
		C-30.8,50.4,3.7,485.5,19.9,559.5L19.9,559.5z"/>
	<path class="st1" d="M495.6,194.7C454.7,90.8,389.4,42.1,290.4,39.1v486.8h224.2C514.5,525.9,546.4,323.6,495.6,194.7L495.6,194.7z
		 M277.8,39c-23.3,0.2-48.3,2.7-75.2,7.6C10.2,81.2,40.3,461.3,54.5,525.9h223.3V39L277.8,39z"/>
</g>
</svg>
