<?xml version="1.0" encoding="utf-8"?>
<!-- Generator: Adobe Illustrator 19.0.0, SVG Export Plug-In . SVG Version: 6.00 Build 0)  -->
<svg version="1.1" id="图层_1" xmlns="http://www.w3.org/2000/svg" xmlns:xlink="http://www.w3.org/1999/xlink" x="0px" y="0px"
	 viewBox="0 0 40 40" style="enable-background:new 0 0 40 40;" xml:space="preserve">
<style type="text/css">
	.st0{fill:#EB6100;}
</style>
<path id="XMLID_5_" class="st0" d="M35.5,39.4H39c0.3,0,0.6-0.3,0.6-0.6v-4.1c0-0.2-0.1-0.3-0.2-0.4L23.3,18.2l0.6-0.6
	c0.2-0.2,0.2-0.6,0-0.9l-2.3-2.3c-0.5,1.7-1.5,3.3-2.8,4.6c-1.3,1.3-2.9,2.3-4.6,2.8l2.3,2.3c0.2,0.2,0.6,0.2,0.9,0l0.8-0.8l2.7,2.7
	c0.1,0.1,0.3,0.2,0.5,0.2l3-0.3v2.3c0,0.3,0.3,0.6,0.6,0.6l3.4,0l0,3.4c0,0.3,0.3,0.6,0.6,0.6l3.4,0l0,3.4c0,0.3,0.3,0.6,0.6,0.6
	l1.9,0l0,1.9C34.9,39.2,35.1,39.4,35.5,39.4z M21.1,20.3l0.9-0.9l5.5,5.5l0,1.8L21.1,20.3z"/>
<path id="XMLID_2_" class="st0" d="M13.2,20.8c1.7-0.4,3.4-1.3,4.7-2.7c1.4-1.4,2.3-3,2.7-4.7c0.9-3.4,0-7.1-2.7-9.8
	c-4-4-10.5-4-14.5,0s-4,10.5,0,14.5C6.1,20.7,9.8,21.6,13.2,20.8z M6.6,6.7c1.3-1.3,3.3-1.3,4.6,0c1.3,1.3,1.3,3.3,0,4.6
	c-1.3,1.3-3.3,1.3-4.6,0C5.3,10,5.3,8,6.6,6.7z"/>
</svg>
