<?xml version="1.0" encoding="utf-8"?>
<!-- Generator: Adobe Illustrator 19.0.0, SVG Export Plug-In . SVG Version: 6.00 Build 0)  -->
<svg version="1.1" id="图层_1" xmlns="http://www.w3.org/2000/svg" xmlns:xlink="http://www.w3.org/1999/xlink" x="0px" y="0px"
	 viewBox="0 0 283.5 283.5" style="enable-background:new 0 0 283.5 283.5;" xml:space="preserve">
<style type="text/css">
	.st0{fill:url(#XMLID_7_);}
	.st1{fill:#F7F8F8;}
	.st2{fill:url(#XMLID_8_);}
	.st3{fill:url(#XMLID_9_);}
	.st4{clip-path:url(#XMLID_13_);fill:#EBB0CE;}
	.st5{fill:#838384;}
	.st6{fill:#FFFFFF;}
	.st7{fill:#A7A7A6;}
	.st8{fill:#EBB0CE;}
	.st9{clip-path:url(#XMLID_22_);}
	.st10{fill:url(#XMLID_24_);}
	.st11{fill:url(#XMLID_30_);}
</style>
<linearGradient id="XMLID_7_" gradientUnits="userSpaceOnUse" x1="81.8934" y1="187.7027" x2="35.5028" y2="225.963" gradientTransform="matrix(-6.822254e-002 0.9977 -0.9977 -6.822254e-002 247.8721 66.393)">
	<stop  offset="0" style="stop-color:#BBC9BC"/>
	<stop  offset="7.595539e-003" style="stop-color:#BCCABD"/>
	<stop  offset="0.4343" style="stop-color:#E0E7E1"/>
	<stop  offset="0.7801" style="stop-color:#F7F8F7"/>
	<stop  offset="1" style="stop-color:#FFFFFF"/>
</linearGradient>
<path id="XMLID_71_" class="st0" d="M47.2,100.4c-2.2-2.8-5.4-4.7-8.7-6.1c-1.4-0.6-2.8-1.1-4.2-1.1c-3,0-5.7,2.2-6.9,4.8
	s-1.4,5.8-1.1,8.8c0.8,8.9,4.8,17.3,9.4,25c2.4,4.1,5.9,8.5,10.6,8.1c2.8-0.2,5.2-2.3,6.5-4.8c1.3-2.5,1.5-5.4,1.5-8.3
	c-0.1-5.1-1.2-10.1-2.4-15C50.8,107.7,49.7,103.6,47.2,100.4z"/>
<path id="XMLID_70_" class="st1" d="M104,266.4c-2.5,2.3-5.6,3.8-8.8,5c-10.7,4-23.2,3.5-33.1-2.2c-9.9-5.6-16.9-16.5-17.1-27.9
	c-0.1-4.5,1-9.2,4-12.7c3.6-4.2,9.4-5.7,15-6.3c3.7-0.4,7.5-0.4,11.3-0.1c6.7,0.6,13.3,2.4,19.7,4.6c3.5,1.2,7,2.7,9.7,5.2
	c3,2.8,4.8,6.7,5.8,10.6C112.4,251.1,110.4,260.7,104,266.4z"/>
<linearGradient id="XMLID_8_" gradientUnits="userSpaceOnUse" x1="160.769" y1="160.068" x2="166.097" y2="278.9241" gradientTransform="matrix(0 1 -1 0 282.3776 0.5158)">
	<stop  offset="0" style="stop-color:#FFFFFF"/>
	<stop  offset="0.2199" style="stop-color:#F7F8F7"/>
	<stop  offset="0.5657" style="stop-color:#E0E7E1"/>
	<stop  offset="0.9924" style="stop-color:#BCCABD"/>
	<stop  offset="1" style="stop-color:#BBC9BC"/>
</linearGradient>
<path id="XMLID_69_" class="st2" d="M63.2,88.9c0,0-4.5,15.9-15.9,33.8s-27.4,39.5-23.6,67.6s11.5,44,37.6,47.8s44-7.7,47.8-26.8
	s0.6-28.7-17.2-65s-19.8-58-19.8-58L63.2,88.9z"/>
<linearGradient id="XMLID_9_" gradientUnits="userSpaceOnUse" x1="89.5205" y1="164.2305" x2="232.0402" y2="-0.2889" gradientTransform="matrix(0 1 -1 0 282.3776 0.5158)">
	<stop  offset="0" style="stop-color:#BBC9BC"/>
	<stop  offset="0.1331" style="stop-color:#C8D4C9"/>
	<stop  offset="0.4843" style="stop-color:#E6EBE7"/>
	<stop  offset="0.7856" style="stop-color:#F8FAF9"/>
	<stop  offset="1" style="stop-color:#FFFFFF"/>
</linearGradient>
<path id="XMLID_11_" class="st3" d="M272.1,211.3c-1,4.1-5,6.8-9,7.9c-10.9,3-22.1-2.9-31.4-9.2c-26.5-18-48.6-41.6-70.5-65
	c-6.1-6.5-12.2-13-16.9-20.5c-1.3-2-2.2-5.2-0.2-6.4c1.3-0.8,2.9-0.1,4.3,0.5c43.4,20.8,88.1,42.7,118.8,79.8
	C270.1,202.2,273.2,206.7,272.1,211.3z"/>
<g id="XMLID_141_">
	<defs>
		<path id="XMLID_12_" d="M194.4,282.4c4.2,0,7.8-3.2,9.8-6.9c5.5-9.8,2.5-22.1-1.4-32.7c-11.1-30-28.8-57.2-46.2-84
			c-4.8-7.4-9.7-14.9-15.8-21.4c-1.6-1.7-4.5-3.4-6.1-1.7c-1,1.1-0.8,2.8-0.5,4.3c9.8,47.1,20.3,95.8,49,134.5
			C186,278.3,189.6,282.3,194.4,282.4z"/>
	</defs>
	
		<linearGradient id="XMLID_10_" gradientUnits="userSpaceOnUse" x1="-54.9427" y1="172.9755" x2="-64.0296" y2="-35.065" gradientTransform="matrix(0.9005 -0.4348 -0.4348 -0.9005 232.3651 198.0173)">
		<stop  offset="0" style="stop-color:#BBC9BC"/>
		<stop  offset="6.388396e-002" style="stop-color:#C4D0C5"/>
		<stop  offset="0.2823" style="stop-color:#DEE5DE"/>
		<stop  offset="0.5077" style="stop-color:#F0F3F1"/>
		<stop  offset="0.7421" style="stop-color:#FBFCFB"/>
		<stop  offset="1" style="stop-color:#FFFFFF"/>
	</linearGradient>
	<use xlink:href="#XMLID_12_"  style="overflow:visible;fill:url(#XMLID_10_);"/>
	<clipPath id="XMLID_13_">
		<use xlink:href="#XMLID_12_"  style="overflow:visible;"/>
	</clipPath>
	<path id="XMLID_68_" class="st4" d="M131,152.3c5.4,23.6,10.9,47.2,18.8,70c4.7,13.7,10.5,27.4,20.2,38.1c2.6,2.9,5.6,5.6,8.9,7.7
		c1.5,0.9,3.2,1.7,4.9,1.4c2-0.3,3.5-2,4.2-3.9c0.7-1.9,0.6-4,0.5-6c-1.4-21.1-9.7-41-17.8-60.6c-8.5-20.4-17.1-40.9-28.2-60.1
		c-1.1-1.9-2.3-3.8-4-5.1c-1.7-1.3-4.2-1.9-6.1-0.8c-2,1.1-2.8,3.5-3,5.8C129,143.4,130,147.9,131,152.3z"/>
</g>
<path id="XMLID_67_" class="st1" d="M170.9,134.9c6.7-6.3,13.4-14.3,9.6-41.8s-22.9-60.3-40.2-68s-56.4-1.7-76.5,25.5
	c-23.6,31.9-12.6,66-1.1,86.4s43.4,29,63.1,25.8C145.6,159.7,159.7,145.4,170.9,134.9z"/>
<g id="XMLID_137_">
	<path id="XMLID_66_" class="st5" d="M131.6,110.3c4.3-0.3,7.9-3.3,9.4-7.1c1.5-3.8,1-8.3-0.9-12.2c-1.9-3.8-5-7-8.6-9.5
		c-4.6-3.2-10.8-5.3-15.7-2.9c-4.7,2.3-6.6,8.2-5.5,13.3c1.2,5.1,4.8,9.5,9,13.1C122.9,108,127.1,110.6,131.6,110.3z"/>
	<path id="XMLID_65_" class="st6" d="M134.3,101.4c1.2-0.1,2.3-1,2.8-2.1c0.5-1.1,0.4-2.5-0.1-3.6c-0.5-1.1-1.4-2.1-2.4-2.8
		c-1.3-0.9-3-1.5-4.5-0.8c-1.4,0.7-2,2.4-1.7,4s1.3,2.8,2.4,3.8C131.8,100.7,133,101.5,134.3,101.4z"/>
</g>
<g id="XMLID_64_">
	<g id="XMLID_77_">
		<path id="XMLID_81_" class="st7" d="M129,43.3c-8.1-11.2-30.9,1.1-23.3,13.7c0.3,0.5,1.1,0.2,0.9-0.4
			c-4.6-12.5,12.9-21.9,21.8-12.8C128.7,44.1,129.2,43.7,129,43.3L129,43.3z"/>
	</g>
</g>
<g id="XMLID_63_">
	<g id="XMLID_59_">
		<path id="XMLID_75_" class="st7" d="M128.9,43c-2-2.7-4.3-6.3-2.2-9.6c1.9-3,5.2-3,8.3-3.4c0.4-0.1,0.4-0.7,0-0.8
			c-3.5-0.9-7.8,0.7-9.5,4c-2,3.7,0.3,7.5,2.9,10.3C128.6,43.8,129.2,43.4,128.9,43L128.9,43z"/>
	</g>
</g>
<path id="XMLID_62_" class="st8" d="M124.1,44.2c-0.6,3.5-0.5,7.1,0.3,10.6c0.4,1.7,1.1,3.4,2.6,4.4c1.3,0.8,3.1,0.8,4.5,0.2
	c1.5-0.6,2.7-1.6,3.9-2.7c2.2-2,4.3-4.1,6.3-6.3c0.7-0.7,1.3-1.5,1.6-2.5c0.5-1.4,0.1-3-0.4-4.4c-0.3-0.9-0.5-1.9-1.2-2.6
	c-0.9-1-2.4-1.1-3.8-1.2c-3.3-0.2-6.7,0-9.9,0.6c-0.9,0.2-1.9,0.4-2.6,1C124.6,42.1,124.3,43.2,124.1,44.2z"/>
<g id="XMLID_117_">
	<defs>
		<path id="XMLID_54_" d="M170.9,134.9c6.7-6.3,13.4-14.3,9.6-41.8s-22.9-60.3-40.2-68s-56.4-1.7-76.5,25.5
			c-23.6,31.9-12.6,66-1.1,86.4s43.4,29,63.1,25.8C145.6,159.7,159.7,145.4,170.9,134.9z"/>
	</defs>
	<clipPath id="XMLID_22_">
		<use xlink:href="#XMLID_54_"  style="overflow:visible;"/>
	</clipPath>
	<g id="XMLID_119_" class="st9">
		<path id="XMLID_61_" class="st5" d="M184.3,69.4c-1.1,4.1-4.7,7.2-8.7,7.9c-4,0.8-8.4-0.6-11.8-3.2s-5.9-6.3-7.7-10.2
			c-2.3-5.1-3.2-11.6,0.1-15.9c3.1-4.2,9.3-5,14.1-2.9c4.8,2.1,8.5,6.5,11.1,11.3C183.7,60.4,185.4,65,184.3,69.4z"/>
		<path id="XMLID_60_" class="st6" d="M178.9,70c-0.3,1.2-1.4,2.1-2.6,2.3s-2.5-0.1-3.5-0.8c-1-0.7-1.8-1.7-2.3-2.9
			c-0.7-1.4-0.9-3.3,0-4.6c0.9-1.2,2.8-1.5,4.2-0.9c1.4,0.6,2.5,1.8,3.3,3.1C178.7,67.5,179.2,68.8,178.9,70z"/>
	</g>
</g>
<g id="XMLID_48_">
	<g id="XMLID_52_">
		<path id="XMLID_57_" class="st7" d="M153,27.3c3.2-8.9,11.5-17,11.6-26.8c0-0.5-0.7-0.6-0.8-0.1c-2.3,9.7-8.8,17.2-11.6,26.7
			C152.1,27.5,152.8,27.7,153,27.3L153,27.3z"/>
	</g>
</g>
<g id="XMLID_42_">
	<g id="XMLID_45_">
		<path id="XMLID_50_" class="st7" d="M163.4,37.1c9-4.4,19.2-9.3,25.6-17.3c0.3-0.4-0.2-0.9-0.6-0.6c-8,6.9-16.2,12.1-25.4,17.2
			C162.5,36.6,162.9,37.3,163.4,37.1L163.4,37.1z"/>
	</g>
</g>
<g id="XMLID_36_">
	<g id="XMLID_38_">
		<path id="XMLID_43_" class="st7" d="M170.6,49.3c12-1.1,24.1-1.2,36-2.5c0.5-0.1,0.5-0.8,0-0.8c-11.9-0.6-24.3,1-36,2.4
			C170.1,48.5,170.1,49.4,170.6,49.3L170.6,49.3z"/>
	</g>
</g>
<g id="XMLID_5_">
	<g id="XMLID_31_">
		<path id="XMLID_35_" class="st7" d="M83.3,80.6C68.8,82,54.4,82.4,39.9,83c-0.6,0-0.6,0.9,0,0.9c14.3,1,29.4-0.3,43.5-2.5
			C83.9,81.4,83.8,80.5,83.3,80.6L83.3,80.6z"/>
	</g>
</g>
<g id="XMLID_4_">
	<g id="XMLID_25_">
		<path id="XMLID_29_" class="st7" d="M87.5,93.8c-9.3,4.3-18.9,7.9-28.3,12.1c-0.5,0.2-0.1,1.1,0.4,0.9c9.7-3.1,19.2-7.6,28.3-12.2
			C88.4,94.3,87.9,93.6,87.5,93.8L87.5,93.8z"/>
	</g>
</g>
<g id="XMLID_3_">
	<g id="XMLID_23_">
		<path id="XMLID_76_" class="st7" d="M94.3,104.2c-4,2.6-6.5,6.2-8.8,10.3c-3.1,5.6-6.7,10.5-10.4,15.7c-0.3,0.4,0.3,0.8,0.7,0.5
			c7.9-7.3,10.1-19.7,19-25.8C95.1,104.6,94.7,103.9,94.3,104.2L94.3,104.2z"/>
	</g>
</g>
<linearGradient id="XMLID_24_" gradientUnits="userSpaceOnUse" x1="192.8311" y1="199.5004" x2="190.9181" y2="320.0204" gradientTransform="matrix(0 1 -1 0 282.3776 0.5158)">
	<stop  offset="0" style="stop-color:#FFFFFF"/>
	<stop  offset="0.2199" style="stop-color:#F7F8F7"/>
	<stop  offset="0.5657" style="stop-color:#E0E7E1"/>
	<stop  offset="0.9924" style="stop-color:#BCCABD"/>
	<stop  offset="1" style="stop-color:#BBC9BC"/>
</linearGradient>
<path id="XMLID_2_" class="st10" d="M13.5,221.9c3.9,5.6,11.7,6.5,18.6,6.9c14.7,0.8,30.6,1.4,42.9-6.8c9.5-6.3,15.4-17.7,15.2-29.1
	c-0.1-7.5-2.9-15-8-20.4c-5.1-5.4-12.7-8.6-20.1-7.9c-6.7,0.6-12.7,4.2-18,8.2c-7.2,5.5-13.6,12.2-18.8,19.6
	c-0.1-10.5-1.6-21.1-4.3-31.2c-0.7-2.5-2-5.4-4.6-5.6c-3.1-0.2-4.6,3.8-5,6.9C9.3,178.7,9,195,10.5,211.2
	C10.8,214.9,11.3,218.9,13.5,221.9z"/>
<linearGradient id="XMLID_30_" gradientUnits="userSpaceOnUse" x1="204.3066" y1="306.5651" x2="203.3937" y2="364.079" gradientTransform="matrix(0.1097 0.994 -0.994 0.1097 329.3683 -111.666)">
	<stop  offset="0" style="stop-color:#FFFFFF"/>
	<stop  offset="0.2199" style="stop-color:#F7F8F7"/>
	<stop  offset="0.5657" style="stop-color:#E0E7E1"/>
	<stop  offset="0.9924" style="stop-color:#BCCABD"/>
	<stop  offset="1" style="stop-color:#BBC9BC"/>
</linearGradient>
<path id="XMLID_1_" class="st11" d="M29.5,109c-3.3-1.3-7-1.4-10.6-1c-1.5,0.2-3,0.4-4.2,1.2c-2.6,1.5-3.8,4.7-3.6,7.7
	c0.2,3,1.7,5.7,3.4,8.2c5.2,7.3,12.8,12.6,20.6,17c4.1,2.3,9.4,4.4,13.3,1.7c2.3-1.6,3.4-4.6,3.2-7.5s-1.4-5.5-2.9-7.9
	c-2.6-4.3-6.1-8.1-9.6-11.8C36.4,113.6,33.4,110.5,29.5,109z"/>
</svg>
