<?xml version="1.0" encoding="utf-8"?>
<!-- Generator: Adobe Illustrator 19.0.0, SVG Export Plug-In . SVG Version: 6.00 Build 0)  -->
<svg version="1.1" id="图层_1" xmlns="http://www.w3.org/2000/svg" xmlns:xlink="http://www.w3.org/1999/xlink" x="0px" y="0px"
	 viewBox="0 0 2834.6 425.2" style="enable-background:new 0 0 2834.6 425.2;" xml:space="preserve">
<style type="text/css">
	.st0{fill:#2EA7E0;}
	.st1{fill:#56A9D7;}
	.st2{fill:#2C83B5;}
</style>
<path id="XMLID_2_" class="st0" d="M0,89.8C0,26.3,174.7,8.1,237.7,0c106.2-13.7,426,44.9,426,44.9S890.2-1.2,966.8,0
	c118,1.8,350,62.9,468,62.8c116.6-0.1,345.6-57.6,462-62.8c125.6-5.7,375.3,42.3,501.1,44.9c73.8,1.5,220.2-29.3,294-27.1
	c36.3,1.1,120.3-1.5,142.7,27.1c44.9,57.2,45.5,234.2,0,290.9c-35.1,43.8-205.7,89.4-205.7,89.4l-345-20.4l-333,20.4
	c0,0-348.7-23.1-465-20.4c-55.7,1.3-222,20.4-222,20.4l-576.1-14.4l-462,14.4c0,0-225.7,18.9-225.7-38.4"/>
<path id="XMLID_4_" class="st1" d="M2851.9,80.2c-4.7-13.2-10.5-24.6-17.3-33.2c-22.4-28.6-106.4-26-142.7-27.1
	c-73.8-2.2-220.2,28.7-294,27.1c-125.7-2.6-375.4-50.6-501.1-44.9c-116.5,5.3-345.5,62.7-462,62.8c-118.1,0.1-350-61-468-62.8
	c-76.6-1.2-303,44.9-303,44.9s-319.8-58.6-426-44.9C174.7,10.2,0,28.4,0,91.9v31.8c83.6,1.2,175.5-28.9,399.7-16.8
	c182.4,9.9,189.4,33.5,366,45c232.3,15.1,339.9-17.9,546.1-33c246.9-18,269.2,16.6,651.1,33C2473.2,173.8,2748.8,185.7,2851.9,80.2z
	"/>
<path id="XMLID_5_" class="st2" d="M226.7,422.2l462-14.4l576.1,14.4c0,0,166.3-19,222-20.4c116.3-2.8,465,20.4,465,20.4l333-20.4
	l345,20.4c0,0,170.7-45.6,205.7-89.4c17.1-21.4,27.7-59.7,31.9-102.3c-198.6,3.4-460.8,81.4-600.6,84.3c-252,5.2-756.2,6.5-1008.1,0
	c-239.3-6.2-717.9-36.9-957.1-27c-71.7,3-188.8,15.6-300.7,42.3v53.7C1,441.1,226.7,422.2,226.7,422.2z"/>
</svg>
