<?xml version="1.0" encoding="utf-8"?>
<!-- Generator: Adobe Illustrator 19.1.1, SVG Export Plug-In . SVG Version: 6.00 Build 0)  -->
<svg version="1.1" id="图层_1" xmlns="http://www.w3.org/2000/svg" xmlns:xlink="http://www.w3.org/1999/xlink" x="0px" y="0px"
	 viewBox="0 0 283.5 283.5" style="enable-background:new 0 0 283.5 283.5;" xml:space="preserve">
<style type="text/css">
	.st0{fill:#C9A063;}
	.st1{fill:#956134;stroke:#6A3906;stroke-width:3;stroke-miterlimit:10;}
</style>
<polygon class="st0" points="15.6,221.7 225.5,13.2 271.2,59.9 59.9,270.8 "/>
<g>
	<path class="st1" d="M225.3,3.2L3,223.5l55.1,56.8L280.4,59.9L225.3,3.2z M242.2,78.5l-7.6,7.6l-11.1-11.4l-7,7L227.6,93
		l-10.5,10.4L200,85.8l-7.1,7l17.1,17.6l-7.6,7.6l-11.1-11.4l-7,7l11.1,11.4l-10.3,10.2l-18.9-19.4l-7,7l18.9,19.4l-7.6,7.5
		l-12.9-13.3l-7,7l12.9,13.3l-10.5,10.4l-18.9-19.4l-7,7l18.9,19.4l-7.6,7.6l-12.9-13.3l-7,7l12.9,13.3l-9.7,9.6l-18.9-19.4l-7,7
		l18.9,19.4l-7.6,7.5L94,199.3l-7,7l12.9,13.3l-10.5,10.4l-18.9-19.4l-7,7l18.9,19.4l-7.6,7.6l-12.9-13.3l-7,7l12.9,13.3l-9.4,9.3
		l-36-37l202.8-201l35.9,37l-11.8,11.7l-17.1-17.6l-7,7L242.2,78.5z"/>
</g>
</svg>
