<?xml version="1.0" encoding="utf-8"?>
<!-- Generator: Adobe Illustrator 19.0.0, SVG Export Plug-In . SVG Version: 6.00 Build 0)  -->
<svg version="1.1" id="图层_1" xmlns="http://www.w3.org/2000/svg" xmlns:xlink="http://www.w3.org/1999/xlink" x="0px" y="0px"
	 viewBox="0 0 283.5 283.5" style="enable-background:new 0 0 283.5 283.5;" xml:space="preserve">
<style type="text/css">
	.st0{fill:url(#XMLID_8_);}
	.st1{fill:url(#XMLID_10_);}
	.st2{fill:#036EB8;}
</style>
<g id="XMLID_4_">
	<g id="XMLID_6_">
		<g id="XMLID_9_">
			<radialGradient id="XMLID_8_" cx="141.73" cy="145.7906" r="139.7145" gradientUnits="userSpaceOnUse">
				<stop  offset="0" style="stop-color:#595757"/>
				<stop  offset="0.1114" style="stop-color:#7E7D7E"/>
				<stop  offset="0.2731" style="stop-color:#AAAAAB"/>
				<stop  offset="0.4333" style="stop-color:#CBCCCC"/>
				<stop  offset="0.5885" style="stop-color:#E3E4E4"/>
				<stop  offset="0.7376" style="stop-color:#F3F4F4"/>
				<stop  offset="0.8778" style="stop-color:#FDFDFD"/>
				<stop  offset="1" style="stop-color:#FFFFFF"/>
			</radialGradient>
			<circle id="XMLID_3_" class="st0" cx="141.7" cy="141.7" r="141.7"/>
		</g>
		<g id="XMLID_7_">
			<radialGradient id="XMLID_10_" cx="147.5499" cy="143.6809" r="134.0148" gradientUnits="userSpaceOnUse">
				<stop  offset="0" style="stop-color:#FFFFFF"/>
				<stop  offset="0.2651" style="stop-color:#FDFDFD"/>
				<stop  offset="0.5689" style="stop-color:#F4F4F4"/>
				<stop  offset="0.8907" style="stop-color:#E3E4E4"/>
				<stop  offset="1" style="stop-color:#DCDDDD"/>
			</radialGradient>
			<circle id="XMLID_2_" class="st1" cx="143.2" cy="142.9" r="110.8"/>
		</g>
	</g>
	<path id="XMLID_1_" class="st2" d="M205.6,134.3l-51.8-46.6c-4-3.6-10.1-3.2-13.6,0.7c-3.6,4-3.2,10.1,0.7,13.6
		c0,0,20,30.1,12.9,30.1c-8.2,0-16.8,0-25.2,0c-39.4,0-43.6-0.3-44.2-0.3c0,0,0,0-0.1,0c-5.3,0-9.6,4.3-9.6,9.6c0,0.1,0,0.2,0,0.3
		c0,0.1,0,0.2,0,0.3c0,5.3,4.3,9.6,9.6,9.6c0,0,0,0,0.1,0c0.6,0,4.9-0.2,44.3-0.3c4.3,0,8.7,0,13,0c4.1,0,8.1,0,12.1,0
		c7.1,0-12.8,30.1-12.8,30.1c-4,3.6-4.3,9.7-0.7,13.6c1.9,2.1,4.5,3.2,7.2,3.2c2.3,0,4.6-0.8,6.5-2.5l51.8-46.6
		c2.1-1.9,3.3-4.7,3.2-7.4C208.9,139,207.8,136.2,205.6,134.3z"/>
</g>
</svg>
