<?xml version="1.0" encoding="utf-8"?>
<!-- Generator: Adobe Illustrator 19.0.0, SVG Export Plug-In . SVG Version: 6.00 Build 0)  -->
<svg version="1.1" id="Capa_1" xmlns="http://www.w3.org/2000/svg" xmlns:xlink="http://www.w3.org/1999/xlink" x="0px" y="0px"
	 viewBox="-127 128.5 28 28" style="enable-background:new -127 128.5 28 28;" xml:space="preserve">
<style type="text/css">
	.st0{fill:#D15050;}
</style>
<g>
	<g id="c142_x">
		<path class="st0" d="M-113,128.5c-7.7,0-14,6.3-14,14c0,7.7,6.3,14,14,14c7.7,0,14-6.3,14-14C-99,134.8-105.3,128.5-113,128.5z
			 M-107,146.3l-2.2,2.2c0,0-3.5-3.8-3.8-3.8c-0.3,0-3.8,3.8-3.8,3.8l-2.2-2.2c0,0,3.8-3.5,3.8-3.8c0-0.3-3.8-3.8-3.8-3.8l2.2-2.2
			c0,0,3.6,3.8,3.8,3.8c0.2,0,3.8-3.8,3.8-3.8l2.2,2.2c0,0-3.8,3.5-3.8,3.8C-110.8,142.7-107,146.3-107,146.3z"/>
	</g>
	<g id="Capa_1_104_">
	</g>
</g>
</svg>
