<?xml version="1.0" encoding="utf-8"?>
<!-- Generator: Adobe Illustrator 19.0.0, SVG Export Plug-In . SVG Version: 6.00 Build 0)  -->
<svg version="1.1" id="图层_1" xmlns="http://www.w3.org/2000/svg" xmlns:xlink="http://www.w3.org/1999/xlink" x="0px" y="0px"
	 viewBox="0 0 283.5 283.5" style="enable-background:new 0 0 283.5 283.5;" xml:space="preserve">
<style type="text/css">
	.st0{fill-rule:evenodd;clip-rule:evenodd;fill:#BDDEE1;}
	.st1{fill-rule:evenodd;clip-rule:evenodd;fill:#C4E2E4;}
	.st2{fill-rule:evenodd;clip-rule:evenodd;fill:#9BCCD2;}
	.st3{fill-rule:evenodd;clip-rule:evenodd;fill:#B7DBDF;}
	.st4{fill-rule:evenodd;clip-rule:evenodd;fill:#C7E2E5;}
	.st5{fill-rule:evenodd;clip-rule:evenodd;fill:#84C1C7;}
	.st6{fill-rule:evenodd;clip-rule:evenodd;fill:#D5EAED;}
	.st7{fill-rule:evenodd;clip-rule:evenodd;fill:#BFDFE3;}
	.st8{fill-rule:evenodd;clip-rule:evenodd;fill:#A9D4D9;}
	.st9{fill-rule:evenodd;clip-rule:evenodd;fill:#CBE5E8;}
	.st10{fill-rule:evenodd;clip-rule:evenodd;fill:#ADD6DA;}
	.st11{fill-rule:evenodd;clip-rule:evenodd;fill:#B8DCDF;}
	.st12{fill-rule:evenodd;clip-rule:evenodd;fill:#D6E9ED;}
	.st13{fill-rule:evenodd;clip-rule:evenodd;fill:#ACD4D9;}
	.st14{fill-rule:evenodd;clip-rule:evenodd;fill:#D0E7E9;}
	.st15{fill-rule:evenodd;clip-rule:evenodd;fill:#C1DFE3;}
	.st16{fill-rule:evenodd;clip-rule:evenodd;fill:#BBDDE0;}
	.st17{fill-rule:evenodd;clip-rule:evenodd;fill:#B6DADF;}
	.st18{fill-rule:evenodd;clip-rule:evenodd;fill:#80BEC4;}
	.st19{fill-rule:evenodd;clip-rule:evenodd;fill:#72B8BF;}
	.st20{fill-rule:evenodd;clip-rule:evenodd;fill:#6EB6BE;}
	.st21{fill-rule:evenodd;clip-rule:evenodd;fill:#6BB4BC;}
	.st22{fill-rule:evenodd;clip-rule:evenodd;fill:#7CBDC3;}
	.st23{fill-rule:evenodd;clip-rule:evenodd;fill:#75B8BF;}
	.st24{fill-rule:evenodd;clip-rule:evenodd;fill:#BBDDE1;}
	.st25{fill-rule:evenodd;clip-rule:evenodd;fill:#CAE4E7;}
	.st26{fill-rule:evenodd;clip-rule:evenodd;fill:#CBE5E6;}
	.st27{fill-rule:evenodd;clip-rule:evenodd;fill:#7EBEC4;}
	.st28{fill-rule:evenodd;clip-rule:evenodd;fill:#7BBCC3;}
	.st29{fill-rule:evenodd;clip-rule:evenodd;fill:#CFE7E9;}
	.st30{fill-rule:evenodd;clip-rule:evenodd;fill:#C4E0E4;}
	.st31{fill-rule:evenodd;clip-rule:evenodd;fill:#78BBC2;}
	.st32{fill-rule:evenodd;clip-rule:evenodd;fill:#C6E2E5;}
	.st33{fill-rule:evenodd;clip-rule:evenodd;fill:#76B9C1;}
	.st34{fill-rule:evenodd;clip-rule:evenodd;fill:#C3E1E3;}
	.st35{fill-rule:evenodd;clip-rule:evenodd;fill:#94C8CE;}
	.st36{fill-rule:evenodd;clip-rule:evenodd;fill:#B5D9DE;}
	.st37{fill-rule:evenodd;clip-rule:evenodd;fill:#C8E4E6;}
	.st38{fill-rule:evenodd;clip-rule:evenodd;fill:#CDE6E8;}
	.st39{fill-rule:evenodd;clip-rule:evenodd;fill:#CDE5E8;}
	.st40{fill-rule:evenodd;clip-rule:evenodd;fill:#77BAC1;}
	.st41{fill-rule:evenodd;clip-rule:evenodd;fill:#74B8BF;}
	.st42{fill-rule:evenodd;clip-rule:evenodd;fill:#7DBDC3;}
	.st43{fill-rule:evenodd;clip-rule:evenodd;fill:#83C0C6;}
	.st44{fill-rule:evenodd;clip-rule:evenodd;fill:#87C2C7;}
	.st45{fill-rule:evenodd;clip-rule:evenodd;fill:#72B7BE;}
	.st46{fill-rule:evenodd;clip-rule:evenodd;fill:#8AC4C9;}
	.st47{fill-rule:evenodd;clip-rule:evenodd;fill:#85C1C8;}
	.st48{fill-rule:evenodd;clip-rule:evenodd;fill:#93C7CD;}
	.st49{fill-rule:evenodd;clip-rule:evenodd;fill:#88C2C8;}
	.st50{fill-rule:evenodd;clip-rule:evenodd;fill:#8ABEC3;}
	.st51{fill-rule:evenodd;clip-rule:evenodd;fill:#70B6BE;}
	.st52{fill-rule:evenodd;clip-rule:evenodd;fill:#B1D7DB;}
	.st53{fill-rule:evenodd;clip-rule:evenodd;fill:#B8DCE0;}
	.st54{fill-rule:evenodd;clip-rule:evenodd;fill:#81BFC5;}
</style>
<g>
	<path id="XMLID_260_" class="st0" d="M13.4,74.7c0-0.9,0.1-1.9,0.1-2.8c0.9-0.8,0.6-2.1,1.5-3l0,0c1-0.7,0.7-2.1,1.6-2.9l0,0
		c0.5-0.4,1-0.9,1.5-1.4l0.1-0.1c0.5-0.4,1-0.9,1.5-1.4c0.1-0.4,0.2-0.9,0.1-1.3c0.5-0.5,1-1.1,1.5-1.6l0,0c0.5-0.4,1.1-0.9,1.5-1.4
		l0,0c0.5-0.5,1-0.9,1.5-1.4l0,0c1-0.7,0.7-2.1,1.6-2.8l0,0c0.5-0.5,1-1,1.5-1.5l0,0c0.5-0.4,1-0.9,1.4-1.5l0.1-0.1
		c0.9-1,1.9-2,3.1-2.8l0.1,0c0.6-0.4,1.1-0.9,1.6-1.4l0,0c0.5-0.5,1-1,1.6-1.5l0,0c0.5-0.5,1-1,1.6-1.5l0,0c0.5-0.5,1-1,1.6-1.5l0,0
		c0.5-0.5,1-1,1.6-1.5l0,0c0.8-0.9,2.3-0.6,3.1-1.5l0,0c0.5-0.5,1-1,1.6-1.4l0,0c0.8-0.9,2.3-0.6,3.1-1.5l0,0c0.9-0.8,1.9-0.7,3-0.7
		c3.5,3.2,9.2,0.1,12.6,3.7c0.7,1.8-1.2,3-1.6,4.5c6.6-0.4,7.3-0.8,12.9-6.8c-4.4-0.7-7.3,3.8-11.4,2.1c-2.6-2.1-2.5-4.5-0.7-6.9
		c2.5-3.2,4.6-6.8,8.5-8.9L71,23.9c0.8-1,2.4-0.4,3.1-1.4l0,0c0.6-0.5,1.2-0.6,1.9-0.3c3.3,1.9,7.1,1.8,10.7,2.6
		c1,0.5,1.6,1.3,1.9,2.3c0,1.3-0.6,2.3-1.4,3.3c7.3,0,9.7-1,15.3-6.9c1.8-1.5,2.7-4.1,5.8-3.9c4.8,4.7,10.4-0.5,15.5,1.1
		c1.3,1.2,1.7,2.9,2.6,4.4c1.6,2.5,0.8,4.7-1.7,6.2c-2.5,1.5-5,1.6-6.6-1.2c-1.2-2.1-2.3-3.2-4.6-1.3c-3.7,3,1,2.4,1.8,3.5
		c2.5,3.2,0.5,13.8-3.6,15.6c-8.8,3.9-7.9,11.6-9.2,18.5c-0.4,2-1.9,2.8-3.9,3.2c-3.2-0.7-3.5-4-6.4-5.8c3.1,3.8,5,7.3,8.3,10.4
		c6.3,5.9,1.5,17.3-8.1,20.5c-3.6,0.1-5.2-1.7-5.1-4.8c0.1-3.2-1-6.1-2.8-8.8c-0.7-3.7-4.9-5.2-6.3-8.2c6.4,5.4-2.2,9-2.2,13.9
		c-1.1,4.5-7.3,4-8.6,6.8c-1.7,3.5,5.8,4.3,5.6,8.5c-0.2,4,2.5,7.2,3.2,11c0.3,0.6,0.5,1.3,0.6,1.9c0.2,4.3,3.7,9.3-2.6,12.4
		c-4.2,0-2.1-4.4-4.6-5.6c-1.4-1.1-3.8-2.4-3.4-3.7c1.3-3.5-0.6-3.3-3-3.1c-2.4,0.2-3.1,1.7-2.2,3.6c4.8,10.8-7.3,15.6-9.6,23.9
		c-0.4,1.3-2.8,0.6-4,1.1c-0.1,3.8,6.1,7.8-0.8,10.7c-6.9,3-9,1.9-13.6-6.6c-4.1,1.3-3.7,6.3-7.6,7.7c-2.1,0.5-3.7-0.3-4.9-1.9
		c-2.1-4-1.3-7.5,2.4-10.1c2.7-1.9,1.1-2-0.4-3.5c-2.9-3.1-0.6-7.3-1.8-10.9c-0.6-3.2,1.9-8.6-5.7-6.8c-6.5-4.8-1.2-7.1,2.5-9.7
		c7.3-3.6,7.1-9.3,5.2-15.6c-0.6-0.1-1.1-0.2-1.7-0.1c-0.6,0.3-1.1,0.6-1.6,1c0.5,8.8-5.7,15.4-8.2,23.2c-0.5,1.5-1.7,2.7-3.5,2
		c-3-1.2-2.5-3.9-2.6-6.3c-0.3-1-0.5-2-1.3-2.9c0-2.9,0-5.7,0.1-8.6c-0.5-2.6,0.4-4.9,1.5-7.3l0,0c2-4.1-0.7-9.2,3.1-13
		c0.1-0.5,0.1-0.9,0.1-1.4c1.1-1.9,1.4-4.2,3-5.9c0.1-0.4,0.1-0.9,0.1-1.3C12.4,75.7,12.8,75.1,13.4,74.7z"/>
	<path id="XMLID_259_" class="st1" d="M282.6,112.4c0,1.9,0.1,3.8,0.1,5.7c1.5,4.3,0.3,8.8,0.7,13.1c-0.2,1.8-1.7,2.8-3.1,2.3
		c-5.2-1.7-9.3,0.7-13.7,2.4c-3,0.8-3.7,2.8-3.3,5.4c0.4,2.3,1.1,4.5-0.2,6.7c-3,2.5-4,6-6,9.1c-1.1,1.6-2.5,3.5-4.8,3
		c-2.6-0.6-2.4-3-2-4.7c1.3-5-2.9-7.9-5-11.5c-1.3-2.3-3.4-1.5-5-0.5c4.6-1.8,6.4,0.4,4.8,4.3c-1.1,2.7-2.1,5.3-2.3,8.2
		c-3.8,2.4-5.6,8.7-12.4,5.5c-0.6-0.4-0.9-1-1.1-1.7c0.1-2.2,2.5-3.6,2.5-6.3c-6.5-2.9-13.1,5.6-19.6,0.2c-0.5,0.4-1.1,0.7-1.6,1.1
		c-1,0.9-1.3,2.1-1.9,3.1c-1.1,1.8-2.7,3.1-5,2.4c-2-0.7-2-2.6-2.2-4.3c-0.9-7.9-3.2-9.2-10.6-5.8c-3.6,1.7-6.2-0.2-8.4-2
		c-3-2.5-6.3-4-9.9-5.4c-1.5-0.9-3.3-1.5-4.4-2.9c-2.2-4.3-0.7-7.7,2.6-11c2.8-2.8,6.1-5,8.8-8.1c2.8-3.3,5.4-1.9,6.5,1.9
		c0.3,1.2,0.5,2.4,0.7,3.5c0.6,4.1,1.8,7.1,7.3,4.7c1.6-0.7,3.6-0.1,5.4-0.4c0.7-0.1,1.5,0,2.2,0.1c7.9,2,7.9,2,6.7,12.1
		c0.3-4.2,4-6.7,5.4-10.4c2.1-5.4,7.8-1.2,11.5-2.9c0.4-0.3,0.7-0.6,0.9-1c-0.5,0-0.9,0.2-1.3-0.2c-1.6-3.9,2.1-4.6,4.2-6.2
		c0.6-0.2,1.2-0.3,1.8-0.4c2.9-1.8-1.2-2.7-0.6-4.1c-0.1-0.6,0-1.2,0.2-1.8c1.6-0.3,3-0.8,3.6-2.4c1.4-0.9,3.1-1.3,4.8-1.6
		c0.4,0,0.7,0,1.1,0.1c0.7,0.3,1.2,0.7,1.5,1.3c-2.7,5.5,3.3,4.2,5.4,6c0.9,1.1,0.9,2.2,0,3.3c-0.7,0.5-2.4-0.3-2.3,1.4
		c1.5,2.8,1.6,3,3.2,1.6c2.9-2.6,4.4-1.8,5.2,1.5c0.5,2.1-1.1,5.2,3,5.5c-3.7-6.7,5.3-10.1,4.8-16c3.5-0.4,2.6,3.6,5.2,4.5
		c2-5.2-0.6-9.5-2.5-14c-0.3-1.8,0.6-3.4,2.3-3.8c2.8-0.5,0-2,0.8-2.7c2.6-5.7,1.1-10.5-4-14.1c-2.1-1.5-2.7-4-5.2-5
		c-0.6-0.3-1.2-0.7-1.6-1.2c-0.5-0.9-0.5-1.8-0.1-2.8c0.7-1.5,3.4-2.3,1.9-4.6c-0.5-0.8-0.8-1.7-0.8-2.6c0.1-0.6,0.3-1.2,0.7-1.7
		c0.5-0.4,1.1-0.5,1.8-0.6c0.6,0.1,1.2,0.4,1.7,0.8l0,0c0.5,0.5,1,1,1.5,1.5l0,0c0.9,0.8,0.7,2.1,1.6,2.9l0,0c0.5,0.5,1.1,1,1.6,1.5
		l0,0c1,0.7,0.6,2.1,1.6,2.8l0,0c0.5,0.5,1,1,1.5,1.5c0,0.5,0,0.9,0.1,1.4c0.5,0.5,1,1,1.5,1.5l0,0c0.6,0.5,1.1,1,1.6,1.5
		c0,0.5,0,0.9,0.1,1.4c0.5,0.5,1,1,1.5,1.5l0,0c1.4,1.1,0.1,3.2,1.6,4.3l0,0c0.5,0.5,1,1,1.5,1.5l0,0c1.4,1.2,0.1,3.2,1.6,4.4l0,0
		c1.7,1.7-0.2,4.2,1.6,5.8l0,0c1.4,1.2,0.1,3.2,1.5,4.4l0,0C282.7,108.2,280.9,110.7,282.6,112.4z"/>
	<path id="XMLID_258_" class="st2" d="M16.7,209.1c0.1-0.4,0-0.8-0.2-1.2c-0.9-0.8-0.6-2.1-1.4-3l0,0.1c-1.5-1.1-0.2-3.2-1.7-4.3
		l0,0c-0.5-0.5-1.1-1-1.5-1.6l0.1,0c-1.9-1.5-1.5-3.4-0.9-5.3c3.5-2.6,5.5,0,6.2,2.3c2.7,8.9,9.4,15.6,13.9,23.5
		c1.5,3.4,4.4,5.8,7,8.5c0.4,0.5,0.8,0.9,1.1,1.4c0.6,0.7,1.2,1.3,1.8,1.9c0.5,0.4,0.9,0.8,1.2,1.3c0.7,1,1.5,1.9,2.4,2.8
		c2.9,2.7,5,6.2,8.8,8.1c14.6,8.4,29.3,16.8,46,21.2c2.2,0.6,4.6,0.9,5.9,2.9c1.9,4.6,6.9,6.5,10.8,7.1c6.9,1.1,13.3,4,20.3,4.1
		c1.6,0.4,3.2,0.9,4.8,1.1c0.7,0,1.3,0,2-0.1c1-0.2,2-0.3,3.1-0.4c0.8,0.1,1.5,0.3,2.1,0.7c1.1,1,2.9,1.9,0.7,3.5
		c-10.2,0.6-20.2,0.1-30.2-2.1l0,0c-1.3-1.3-3.4-0.1-4.7-1.4l0,0c-1.8-1.6-4.5,0.1-6.2-1.5l0,0c-1.3-1.3-3.4-0.2-4.7-1.4l0,0
		c-1.2-1.4-3.5-0.1-4.6-1.6l0.1,0.1c-0.6-0.4-1.1-0.9-1.7-1.4l0,0c-1.3-1.3-3.5-0.1-4.7-1.5l0.1,0c-0.9-0.8-2.4-0.5-3.1-1.5l0.1,0
		c-0.9-0.8-2.4-0.5-3.2-1.4l0,0c-2.5-1.1-5.8-0.7-7.8-2.9l0.1,0c-3-2.1-6.2-3.9-9.4-5.8l0,0c-0.8-0.8-2.3-0.6-3.1-1.5l0.1,0
		c-0.9-0.8-2.4-0.5-3.1-1.5l0.1,0c-0.9-0.8-2.4-0.5-3.2-1.5l0.1,0c-4.7-3.3-9.6-6.5-14-10.2l0.1,0.1c-1.7-2.3-3.8-4.2-6.3-5.9
		l0.1,0.1c-1.1-0.7-0.7-2.1-1.7-2.8l0-0.1c-0.4-0.5-0.9-1-1.5-1.4l0,0c-2.4-1.6-4.6-3.4-6.1-5.9l0,0c-1-0.7-0.6-2.1-1.7-2.8l0,0
		c-0.4-0.5-1-1-1.4-1.6l0.1,0.1c-1.3-1.3-2.1-2.9-3.2-4.4l0,0c-2-2.2-3.8-4.5-4.7-7.3l0,0c-1-0.8-0.7-2.1-1.6-2.9l0,0
		C17.2,211.4,17.4,210.1,16.7,209.1z"/>
	<path id="XMLID_257_" class="st3" d="M22.8,128.3c-0.1,2.8,1.1,5.6,0.2,8.5c-0.6,1.8,0.4,2.2,3.2,1.3c0.9-0.3,1.6-0.2,1.9,0.5
		c0.3,0.6,0.6,1.6,0.3,2c-0.9,1.2-1.9,2.5-3.2,3c-3.4,1.5-4.3,3.9-4,7.1c0.1,0.7,0,1.4,0.1,2.2c-0.3,0.1-0.6,0.2-1,0.3
		c-2.6-0.5-1.1-6.2-5.8-3.9c-3.1-2.1,0.5-3,0.7-4.3c-4.4,4.7-4.9,6.1-5.3,15.2c-0.2,0.6-1.2,1.2-1.1,1.5c0.3,0.9,0.7-0.7,1.2-0.1
		c2.1,3.4-0.7,7.2,0.9,10.6c0.3,0.6,0.5,1.1,0.8,1.7c0.4,0.8,0.8,1.7,1.1,2.6c0.2,0.9,0.3,1.8,0.2,2.7c-0.3,1.8,0.9,3.5,0.9,5.3
		c-0.2,0.6-0.6,1.1-1.1,1.5c-1.1,0.7-2.3,1.2-3.7,1c-0.6-0.3-0.9-0.8-1.1-1.4c-0.4-0.8-1-1.5-1.4-2.3c-0.3-1.4,0.3-2.9-0.9-4.1
		c0-0.5,0-0.9-0.1-1.4c-1.3-1.3-0.1-3.2-1.4-4.4c0-0.9-0.1-1.9-0.1-2.8c-1-2.3-3.1-4.4-1.5-7.2c0-0.5,0-1,0-1.5
		c-0.3-0.4-0.7-0.9-0.6-1.3c2.9-13.4-0.2-26.9,0.8-40.4c0.1-1.2,0.6-2.3,1.5-3.2l0,0c0.5-0.5,0.6-1.4,1.5-1.5c0.3,0.3,0.7,0.7,1,1
		c1.4,1.5-0.9,4.5,2.4,5.3c1.9-1.5,1-3.5,1.3-5.3c0.3-2.1,1.6-3.6,3.4-4.6c2.4-1.3,2.8-3.2,2.8-5.5c0-2.4-0.1-4.8,0.1-7.2
		c0.2-2.6,1.9-3.8,4.7-3.8c0.8,6.3-1.8,12.4-1.6,18.7c-2.6,0.1-4.2,1.5-5.6,3.3c-1.2,1.6-0.6,2.7,2.3,4c2,4.1-0.6,8.5,1.1,12.7
		C20.6,132.9,18.5,127.8,22.8,128.3z"/>
	<path id="XMLID_256_" class="st4" d="M88.3,26.9c-0.6-0.5-1.2-1-1.8-1.6c-1.1-2.1,0-4.1,1.7-5C96,16.6,100.5,8.2,110,6.7
		c1.4-0.2,2.6-1.4,4.1-1.9c0.7-0.3,1.4-0.2,2,0.2c0.5,0,1.1,0,1.6,0c2.6-2.5,6.4-1.5,9.4-2.8c0.5,0,1,0,1.5-0.1
		c2.4-1.6,5.4,0.3,7.8-1.4l0,0c1.7-1.2,3.7-0.6,5.6-0.6c0.7,0.3,1.1,0.8,1.2,1.6c0.1,1,0.1-0.2-0.1,0.7c-0.9,3.1,5,7.1-1,9.2
		c-4.6,1.7-9.7,3.4-14.1-0.8c-0.3-0.3-0.2-0.9-0.6-1.1c-0.7,6.3-7.3,2.5-8,3.3c-2.8,3.5-8,2.4-10.3,5.8c-0.2,0.2-0.5,0.5-0.7,0.7
		c-2,1.2-2.4,3.9-5,4.5C98.5,25.9,93.9,28.7,88.3,26.9z"/>
	<path id="XMLID_255_" class="st5" d="M150.4,281.9c-1.3-0.2-2.5-0.4-3.2-1.5c-0.7-1.6-2.5-1.2-3.8-1.6c-1.6-0.5-3.7-0.9-2-3.2
		c5.1-2.7,10.6-1.3,15.9-1.6c3.4-0.2,6.6-0.7,9.9-1.3c10.4-1.3,20.4-4,29.5-8.9c0.9-0.6,1.8-1.1,2.8-1.6c2.7-1.3,5.5-2.6,8.4-3.5
		c0.6-0.2,1.3-0.4,1.9-0.6c0.6-0.2,1.3-0.3,2-0.4c1,0,1.9,0.4,2.6,1.2c0.2,0.6,0.3,1.2,0.1,1.8c-0.7,1.8-1.9,3.1-3.7,4
		c-0.5,0.4-1,0.7-1.5,1.1l0.1,0c-0.5,0.6-1,1.1-1.7,1.5l0.1-0.1c-3.9,2.8-8.8,4.2-12.5,7.3l0.1-0.1c-0.8,1-2.3,0.8-3.2,1.5l0.1-0.1
		c-2.1,2.4-5.4,2-8.1,2.9l-0.6,0l-0.6,0.2c-0.9,0.9-2.3,0.6-3.2,1.4l0.1,0c-1.2,1.4-3.4,0.3-4.8,1.5l0.1,0
		c-3.3,1.7-6.9,0.4-10.3,0.8c-4.5-0.3-9,0.6-13.5-0.5C151.1,282,150.8,282,150.4,281.9z"/>
	<path id="XMLID_254_" class="st6" d="M235.9,36.9c0.5,0,1,0.1,1.5,0c1,0.7,0.7,2.1,1.6,2.9l0,0c0.5,0.5,1,1,1.5,1.4l0,0
		c0.5,0.5,1,1,1.5,1.4l0,0c0.5,0.5,1,1,1.5,1.4l0,0c0.5,0.5,1,1,1.5,1.4l0,0c0.5,0.5,1,1,1.5,1.5c0,0.5,0,0.9,0,1.4
		c0.5,0.5,1,1,1.5,1.5l0,0c0.6,0.5,1,1,1.6,1.5c0,0.5,0,0.9,0.1,1.4c0.5,0.5,1,1,1.5,1.5l0,0c0.4,0.4,0.6,0.8,0.5,1.2
		c-0.1,0.4-0.2,0.6-0.3,0.6c-0.7,0.3-1.4,0.5-2.1,0.4c-3.6-1.4-7.5-2.3-9.8-5.6c-0.7-0.7-1.4-1.5-2.2-2.2
		c-9.2-11.2-22.4-17.4-35-24.2c-3.3-1.8-5.3-3.5-5.5-6.9c-0.2-1.9-0.1-3.7,1.1-5.3c0.7-0.6,1.4-0.7,2.1-0.1c1,0,2,0,3.1,0.1
		c0.5,0.5,1.1,0.9,1.6,1.4l0,0c0.5,0.5,1,1,1.6,1.5l0,0c1.5,1.1,3.2,1.9,4.7,2.8l0,0c1.2,1.4,3.4,0.2,4.6,1.5l0,0
		c0.5,0.5,1,0.9,1.6,1.4c0.5,0.5,1.1,1,1.6,1.5c0.5,0.5,1,1,1.5,1.5l0,0c0.8,0.9,2.3,0.6,3.1,1.4l0,0c0.5,0.5,1,1,1.6,1.4l0,0
		c0.5,0.5,1,1,1.6,1.4v0c0.8,0.9,2.3,0.6,3.1,1.5l0,0c0.8,1.2,1.8,2.2,3.1,2.9l0,0c0.5,0.5,1.1,1,1.6,1.5l0,0
		C235.3,34.9,235,36.2,235.9,36.9z"/>
	<path id="XMLID_253_" class="st7" d="M265.4,134.1c2.5,0.2,4.2-0.9,6-2.5c1.7-1.5,3.9-2.2,6.1-0.2c1.4,1.3,3.2,1.2,5,1.3
		c1,1,1,1.9,0,2.9l0,0c-1.9,2.7,0.4,6-1.5,8.7c0,0.9-0.1,1.9-0.1,2.8c-0.5,0.5-1,1.1-1.5,1.6l0,0c-1.9,2.1,0.3,5.1-1.6,7.2l0,0
		c-0.5,0.5-1,0.9-1.4,1.4c-0.1,1-0.1,1.9-0.2,2.9c-0.9,0.8-0.6,2.2-1.6,3l0,0c-0.4,0.4-0.9,0.9-1.4,1.3c-1.3,0.9-2.4,2.1-4.1,2.5
		c-4.4-0.7-4.5-3.9-2.3-5.7c5.2-4.1-1.2-3.2-1.9-4.7c-0.4-0.6-0.6-1.2-0.7-1.9c0-0.7,0.1-1.3,0.3-2
		C267.9,146.4,269.3,140.3,265.4,134.1z"/>
	<path id="XMLID_252_" class="st3" d="M114.6,5.1c-1,2.4-3.8,3.1-5.4,4.8c-0.5,0.5-1.5,0.3-2-0.3c-1.2-1.3-2.4-0.7-3.1,0.3
		c-3.1,4.2-7.3,7.2-12,9.6c-2.5,1.3-4.4,3.2-5.4,5.7c-0.5,0-1.1-0.1-1.5,0C81,27,78,25.7,75.7,22.5c-0.4-0.4-0.5-0.7-0.3-1
		c0.2-0.3,0.4-0.4,0.5-0.4c0.5,0,0.9,0,1.4-0.1c0.5-0.5,1.1-0.9,1.7-1.3c0.5,0,1-0.1,1.5-0.2c0.5-0.4,1-0.8,1.5-1.3l0,0
		c0.9-0.8,2.3-0.6,3.2-1.4l0,0c0.5-0.6,1.1-1,1.7-1.5c0.5,0,0.9,0,1.4-0.2c0.5-0.4,1-0.9,1.5-1.4l0,0c0.5-0.5,1.1-1,1.6-1.4l0,0
		c0.5-0.5,1-1,1.6-1.5l0,0c0.5-0.5,1-1,1.6-1.5l0,0c0.8-0.9,2.3-0.6,3.2-1.4l0,0c1.2-1.4,3.4-0.1,4.6-1.5l0,0
		c0.9-0.8,2.3-0.6,3.1-1.4l0,0c1.6-2.1,4.5,0.2,6.2-1.5l0,0c0.5-0.4,1-0.4,1.5,0l0,0C113.5,4.1,114.4,4.3,114.6,5.1z"/>
	<path id="XMLID_251_" class="st8" d="M257.8,206.5c-0.1,0.4-0.2,0.8-0.2,1.2c-1.4,1.8-2,4-3,6l0,0c-0.9,0.8-0.7,2.1-1.6,2.9l0,0
		c-0.9,0.8-0.6,2.2-1.6,2.9l0,0c-0.9,0.8-0.6,2.2-1.6,2.9l0.1-0.1c-0.8,1-2.3,0.6-3.1,1.6l0,0c-1,0.7-0.7,2.1-1.6,2.9l0,0
		c-0.5,0.5-1,1-1.5,1.5c-1.5,1.1-0.1,3.2-1.6,4.3l0-0.1c-0.6,0.5-1.2,0.8-2,0.9c-1.2,0.2-2.2,0-3.1-0.7c-0.9-1.3-0.9-2.6-0.5-4
		c0.3-0.6,0.6-1.3,1-1.8c0.2-0.3,0.4-0.5,0.7-0.8c0.4-0.5,0.9-1,1.5-1.5c2.5-2.2,5-4.4,6.2-7.5c4.6-9.5,8.1-19.6,14.5-28.3
		c1.2-1.1,2.4-2.4,4-3.1c0.6-0.2,1.3-0.2,2-0.1c0.6,0.2,1.1,0.6,1.3,1.2c0,0.9-0.7,1.6-1.2,2.3c-0.2,0.5-0.5,1-0.9,1.5
		c-0.2,0.4-0.2,0.9-0.2,1.4c-0.9,0.9-0.6,2.2-1.5,3l0,0c-1,0.8-0.7,2.1-1.6,2.9l0,0c-0.9,0.8-0.6,2.1-1.6,2.9l0,0
		c-0.9,0.8-0.7,2.1-1.5,2.9l0,0C258.3,204.3,258.7,205.7,257.8,206.5z"/>
	<path id="XMLID_250_" class="st9" d="M71,24c-1.3,3.7-4.5,6.3-6.8,9.3c-1.8,2.3-1.3,4.3-0.9,6.6l0,0c-1.8,0.1-3.3-1.1-5.2-0.5
		c-1.6,0.5-3,2.3-4.9,1c-1.2-0.8-0.8-2.8-2.4-3.5c-0.5-0.3-0.6-0.7-0.4-1c0.2-0.3,0.3-0.4,0.5-0.4l0,0c0.5-0.5,1-1,1.6-1.4l0,0
		c0.8-0.9,2.3-0.6,3.1-1.5l0,0c0.5-0.5,1.1-1,1.7-1.4c0.5,0,1,0,1.5-0.1c0.5-0.5,1.1-0.9,1.6-1.4l0,0c0.9-0.9,2.3-0.6,3.2-1.4
		c0.5,0,1,0,1.5-0.1c1-0.7,0.7-2.1,1.6-2.8l0,0c0.5-0.5,1.1-1,1.6-1.4C69,24,70,24,71,24z"/>
	<path id="XMLID_249_" class="st10" d="M222.1,257.2c-0.1,0.4-0.2,0.8-0.2,1.2c-0.4,0.6-0.9,1.2-1.6,1.7l0,0c-0.8,0.9-2.3,0.6-3,1.6
		l0,0c-1,0.9-1.7,2.4-3.6,1.3c-0.4-1-0.4-2,0.4-2.9l0,0c0.8-2.4,2.8-4.5,2.3-7.3c0.5-2.7,2.9-4.1,4.8-5.7c0.5-0.4,0.9-0.8,1.4-1.2
		c0.4-0.5,0.9-0.9,1.3-1.3c0.7-0.7,1.6-1.1,2.6-1.2c1.5,0.1,2.6,0.8,3.4,1.9c0.2,0.6,0.1,1.2-0.3,1.8l-0.3,0
		c-0.2,0.4-0.5,0.9-0.6,1.3c0,0-0.4,0.6-0.4,0.6c-0.3,0.3-0.7,0.7-1,1c0,0-0.4,0.6-0.4,0.6c-0.4,0.6-0.6,1.2-1,1.8
		c-0.2,0.4-0.5,0.8-0.9,1.1c-0.3,0.3-0.6,0.7-0.9,1.1c-0.2,0.4-0.4,0.8-0.8,1.2l0,0C223,256.2,222.5,256.7,222.1,257.2z"/>
	<path id="XMLID_248_" class="st11" d="M229.8,245.6c-1.1-0.5-2.1-1-3.2-1.5c-0.1-6,4.9-8.6,8.9-11.9c0.7-0.3,1.4-0.2,2,0.3
		c1,0,2.1,0,3.1,0c0.4,0.3,0.5,0.7,0.3,1c-0.1,0.3-0.3,0.5-0.4,0.5l0,0c-0.9,0.8-0.6,2.2-1.6,2.9l0,0c-1.2,0.8-2.3,1.8-3.1,3l0,0
		c-0.5,0.5-1,1-1.4,1.5c-0.1,0.4-0.2,0.9-0.1,1.3c-0.4,0.6-1,1.1-1.5,1.6l0,0c-0.5,0.5-1,1-1.6,1.5l0,0
		C230.8,246.1,230.3,246.1,229.8,245.6z"/>
	<path id="XMLID_247_" class="st12" d="M169,2.2c1.5,0,3.1,0,4.6,0c1.3,1.3,3.4,0.1,4.7,1.4c0.5,0,1,0,1.5,0
		c0.5,0.5,0.7,1.1,0.5,1.8c-1.5,2.4-3.4,4.3-6.5,4.9c-0.7,0-1.4-0.1-2.1-0.4c-0.7-0.3-1.3-0.6-1.9-1c-0.3-0.2-0.6-0.4-0.9-0.6
		c-2.1-1.8-5.4-3.1-3-6.6C167,1.5,168.1,1.4,169,2.2z"/>
	<path id="XMLID_246_" class="st12" d="M142.6,2.2c0-0.5,0-0.9,0-1.4c5.2-1.3,10.4-1.2,15.6-0.1c2.1,0,4.1,0,6.2,0
		c0.6,0.5,0.8,1.2,0.7,1.9c-4.2,5.9-9.5,2.5-14.5,1.5C147.9,3.6,144.4,5.6,142.6,2.2z"/>
	<path id="XMLID_245_" class="st13" d="M265.5,186.2c-1,1-2.1,1.9-3.1,2.9c-2.8-3.7-0.1-7.3,0.3-10.9c0.7-1.5,1.9-2.4,3.5-2.9
		c1.2-0.2,2.4,0.1,3.4,0.8c0.3,0.3,0.5,0.6,0.8,0.8c0.5,0.7,0.5,1.3,0,2c-0.1,0.5-0.2,0.9-0.2,1.4c-1,0.9-0.6,2.2-1.2,3.1
		C267.7,184.3,266.5,185.1,265.5,186.2z"/>
	<path id="XMLID_244_" class="st14" d="M273.3,170.2c-0.5,0.5-1.1,1-1.6,1.5c-0.5,0.5-0.9,1.1-1.3,1.6c-0.4,0-0.7,0.1-1.1,0.1
		c-1.6-0.6-2-1.9-2.1-3.3c0.7-4.8,3.6-2.8,6.2-1.7C273.9,169.1,273.9,169.7,273.3,170.2z"/>
	<path id="XMLID_243_" class="st15" d="M265.5,186.2c0-1.9,1-2.8,3-2.9c0.5,0.3,0.7,0.6,0.5,0.9c-0.1,0.3-0.3,0.5-0.4,0.5
		c-0.1,0.4-0.1,0.9-0.1,1.4c-0.4,0.9-0.9,0.9-1.5,0.1l-0.8,0H265.5z"/>
	<path id="XMLID_242_" class="st14" d="M271.7,173.2c0,1.4,0,2.9,0,4.3c-0.5,0.5-1,0.5-1.5,0.1l-0.2,0c-1-1.5-1.3-2.9,0.1-4.3
		l0.1-0.1C270.8,172.7,271.3,172.7,271.7,173.2z"/>
	<path id="XMLID_241_" class="st11" d="M228.1,248.4c0.5-0.5,0.9-1,1.4-1.4c0.1,0.4,0.1,0.9,0.2,1.3
		C229.2,248.9,228.7,249,228.1,248.4z"/>
	<path id="XMLID_240_" class="st15" d="M257.7,64.5c0,0.5,0,1,0,1.4c-0.2,1,1,1.9,0,2.9l0,0c-1.1,0.7-1.1,1.8-1,2.9
		c0,0.6-0.2,1.2-0.4,1.8c-2.4,5.3-5.4,1.8-8.2,0.5c-0.9-0.6-1.7-1.2-2.4-1.9c-4.2-4.4-4.8-11.5-11.5-14.1c-1.2,0-2.2,0.7-3.3,1
		c-0.6,0.1-0.9-0.1-1.1-0.6c0.1,0.9,1.1,1,1.6,1.5c4.7,4.3,3.2,9.2,1.7,14.2c-0.6,2.1-4.2,4.6-1.6,6.3c4.2,2.7,4.8,8.7,10.7,9.6
		c1.7,0.3,3.4,1.3,5.2,1.2c6.2-0.3,7.5,2.9,6.5,7.7c-0.1,0.8-0.5,1.5-1.3,1.8c0.5-0.1,0.9-0.4,1.1-0.9c0.4-2.2,1.6-3.4,4.1-2.8
		c1,0.5,1.7,1.2,2.1,2.1c0.1,0.7-0.1,1.3-0.5,1.9c-2.8,3.1-6.6,5-10.3,7.1c-2.1,0.2-4.4-1.3-6.2,0.8c-1.3,0.5-1.1,1.2-0.4,2.1
		c-0.3,0.9-0.8,1.6-2,1c-0.5,0-1,0-1.6,0l0,0c-1.1,1.7-3,1.4-4.7,1.5c-0.9-1.2-0.4-2.7-1-3.9c0,0-0.7-0.1-0.7-0.1s-0.5,0.4-0.5,0.5
		c-0.4,1.7-0.8,3.3-0.9,5c0,0.5,0,1,0,1.5c-1.7,1.9,2.8,3.9,0,5.8c-0.5,0-1,0-1.6,0c-2.3,0.5-4.7,1.1-5.3,3.6
		c-0.6,2.4-1.8,3.6-4.3,2.3c-2.3-1.2-5.6-3.5-4.3-5.3c3.2-4.1,0.8-8.5,2-12.5c0.5-1.7-0.2-4.6,2.8-4.4c2.6,0.2,3,2.6,3.1,3.6
		c-3.5-5.4,2.1-5.8,6.4-6.9c2.9-0.7,6.4,0.2,7.8-3.4c-2.8,1-5.3,1.3-6.8-1.8c-0.2-1,0.5-1.7,1.1-2.3c0.2-0.5,1.2-0.6,0.9-1.3
		c-0.1-0.2-0.1,0.1-0.2,0.6c-0.2,0.9,0-0.4-0.5,0.5c-0.7,0.6-1.4,1.3-1.7,2.2c-1.4,4-4.7,3.3-7.6,2.4c-2.9-0.9-0.6-3.2-0.8-4.9
		c-0.3-2.4,2.7-8.8-5.2-4.3c-3.3,1.9-5.7,0-6.1-3.9c-0.9-9.7-2.3-10.5-12.7-7.4c-6.5,1.7-8-2-8.5-6.8c-0.3-3.3,0.8-5.4,4.7-4.3
		c2.2,0.7,3.8,0.9,5.3-0.9c0.6-0.4,1.3-0.6,2-0.7c4.2-2.4,4.8-6.4,1.4-8.8c-1.3-0.9-2.7-1-3.2,0.3c-1.7,4.5-7.7,4.9-9.6,9.2
		c-0.5,1.1-1.8,2.2-3.1,1.3c-6.2-4.4-6.2,1.1-7,4c-2.8,9.7-5.4,11.1-16.1,7.9c-0.7-0.2-1.4,0.3-1.9,1.2c4,0.1,7.8,2.5,12,0.6
		c1.1-0.5,3.5,0.9,3.2,1.3c-3.3,6.4,7.4,10.7,3,17.2c-9.3,3.3-10.1,12.3-14.4,18.9c-1,1.5-1,3.3-0.2,4.9c3.2,5.9,1.9,12,0.7,18
		c-0.3,0.7-0.9,1.3-1.4,1.9c0.3-0.3,0.7-0.7,1-1.1c0.9-1.2,1.4-2.6,2.6-3.7c1.7,0.1,3.6-0.3,4.7,1.5c0.2,4.3-2.7,7.8-4,11.7
		c-1.4,4.1-5.2,2.1-8,0.4c-0.6-0.5-0.8-1-0.5-1.7c1.5-5.1,1.5-9.3-4.9-11.9c-3.5-1.4-5.9-4.6-7.6-8.8c-1.7,5.9,1.9,8.7,4.9,11.9
		c2.6,2.8,7.4,3.5,8.4,7.8c-1.3,0.7-2.4,1.5-0.3,2.6c2,2.7-0.5,6.2,1.7,8.9c0.3,0.6,0.5,1.1,0.6,1.8c0.2,1.2,0,2.4-0.8,3.4
		c-0.5,0.4-1,0.6-1.6,0.6c-0.5-0.1-1.1-0.2-1.6-0.4c-0.5-0.2-1-0.4-1.4-0.6c-0.5-0.2-0.8-0.6-0.9-1.1c0,0-0.7-0.3-0.7-0.3
		s0.4,0.5,0.4,0.6c0.1,0.5,0,1-0.3,1.4c-0.4,0.3-0.9,0.5-1.5,0.5c-0.3-0.1-0.5-0.2-0.8-0.3c-0.2-0.2-0.4-0.4-0.6-0.6
		c-0.5-0.7-0.9-1.4-1.3-2.1c-0.2-0.5-0.4-1-0.5-1.6c-0.1-0.8-0.3-1.5-0.9-2.2c-0.5-0.3-0.9-0.7-1.4-1c-0.6-0.3-1-0.7-1.5-1.1
		c-0.4-0.5-0.6-1.1-0.6-1.8c0.5-2.8,2.9-3.1,5.1-3.4c-6.6-6.2-13.2-12.4-14.2-21.7c-0.2-1.9-1.1-3-3.2-3.5c-3.6-0.8-4.4,1.7-5.5,3.8
		c-1,1.8-2.5,2.8-4.6,3c-2.5,0.1-4.6-0.6-6.4-2.3c4.6-5.7,8.6-11.6,9.1-19.2c0.2-2.6,4.2-4.8,6.6-3.5c5.3,3,4.9-0.5,5.9-4
		c-5.4,2.4-8.4-4.2-13.6-2.1c-0.7,0.1-1.2-1.1-1.6-0.6c-0.4,0.5,0.9,0.6,1,1.2c3.3,7.6-0.9,11.2-8,13.5c-0.2,0.6-0.6,1.2-0.9,1.7
		c-4.6,3.4-7.1,2.6-6.8-3.1c0.2-4.5-1.7-9,0.4-14.1c-2.5,1.3-2.4,2.9-2.9,4.1c-1.6,3.7-2.4,8.3-8.8,6.7c-6.2-1.6-8.8-5.2-7.1-11.1
		c1-3.2-0.6-6.2,0.2-9.2c0.6-0.4,1.1-1,1.8-1.3c6-2.8,7.2-5.1,5.8-11.3c-0.2-0.7-0.5-1.6-0.2-2c2.6-3.2-0.2-4.5-2.4-5.4
		c-2.2-0.9-3.4-1.8-3.5-4.1c-0.1-2.4-2.6-3.5-3.7-5.3c-0.9-1.4-0.8-2.7,0.3-4c0.9-1,2.9-1.1,3.1,0.1c0.7,3.4,3.3,5.8,5.1,8.6
		c1.1-0.7,1.8,0,2.5,0.7c1.1,1.8,2.3,3.6,4.6,4.4c4.2,0.5,4.3-2.6,4.8-5c0.6-2.8,0-5.6-0.2-8.4c-0.5-0.7-1.3-0.7-2.1-0.5
		c-1.1,0.3-2.2,0.7-3.2,1.2c-1,0.7-1.5,1.6-1.8,2.6c-0.3,0.8-0.7,1.6-1.5,2c-1.7-0.2-3.2-0.7-2.3-2.7c1-2.4,2.1-4.8,3.5-7
		c0.8-1.2,0.8-1.8,0.2-3.1c-1.3-2.5-0.7-3.2,1.6-4.6c2.6-1.5,6-1.4,8.5-3.5c-0.6-1.9-2.2-3.9,0.6-5.6c2.5-1.5-1.1-3-0.3-4.2
		c1.3-2.2,0.9-2.9-1.7-2.7c-1.2,0.1-2.5,0-4.1,0c3.7-5.7,4.6-6.4,10.3-7.6c1,0.6,1,1.6,1,2.5c0.1,1.2,0,2.5,1.3,3.2
		c1.7,0.8,2.9-0.1,4.2-1c1.6-1.3,1.9-2.1,0.5-3.6c-1.4-1.5-2.9-2.8-1.3-5c0.6-0.5,1.2-0.7,2-0.7c6.2,3.1,8.3,7.4,4.4,11.8
		c-3.6,3.9-0.7,6,0.8,8.8c2.1,4,4.2,0.2,6.2-0.3c1.7-0.4,3.4-1.6,4.9,0.1c1.2,1.4,0.3,2.6-0.7,3.8c-2.2,2.7-1.4,5.8-1.9,9.1
		c5.3-0.2,9.5-1.1,11.3-6.2c1.1-3,3.1-5,7-3.5c2.4,4.5-2.7,7.8-2.3,12.2c3.4-3.8,7.4-7.4,2.1-12.3c-2.2-0.7-5.8-0.2-5.1-3.9
		c0.4-2,1.3-4.7,4.6-2.1c0.2,0.6-0.1,1.2-0.5,1.7c0.8,0.3,0.5-0.8,1.1-0.8c3.1-5.8,1.5-12,1.5-18c0-3.2-0.5-5.5,4.1-3.6
		c4.5,2.3,6.1,5.5,4,10.1c-2.2,5.1,2.2,9.7,1.3,15.1c1.6-2.6,3.1-4.7,3.8-7.3c0.5-1.9,0-5,3.7-4c3.7,1,3.7,3.5,2.2,6.2
		c-0.2,0.6-1.2,0.3-1.3,1c0.7,0,0.7-0.9,1.3-0.9c2-3,1.8-5.5-1.7-7.6c-2.3-1.4-3.2-3.5-1.8-6c1.8-1.7,4.4-1.9,6.5-3
		c5.9-4.1,6.5-3.9,9.3,3.3c0.2,0.6,0.4,1.1,0.6,1.7c0.5,0.8,1,1.5,1.7,2.2c2.2,3.3,6.4,4.4,9.3,6.9c1.2,1.6,1.2,3.5,2.1,5.2
		c0.4,0.5,0.7,1.1,1,1.6c1.8,3.9,4.2,0.6,6.3,0.5c3.5,2.2,7.4,3.8,10.2,6.9c1.3,1.8,2.6,3.5,3.1,6c3.7-1.9,2.3-6.2,4.8-8.4
		c4-3.5,6.2,1.4,9.4,1.9c0.5,0.5,1,1,1.5,1.5c1.8,3.7,3.6,7.5,9.3,5.8c0.5,0,1,0,1.5,0c0.5,0.5,1.1,0.9,1.6,1.4
		c0,1.2,0.3,2.3,1.5,2.9c0,1.2,0.4,2.3,1.6,2.9C256.7,63.5,257.2,64,257.7,64.5z"/>
	<path id="XMLID_239_" class="st3" d="M117.7,118.1c-0.9-0.6-1.5-1.8-0.5-2.2c2-0.8,3.9-2.3,6.4-1.5c3.5,1.1,2.6-0.4,1.4-2.1
		c1.4-2.8,0.9-5.7,0.5-8.7h0c1-0.3,1.9-0.7,2.9-0.8c1.7,0,2.7-1.7,4.9-1c2.1,0.7,2,1.6,2.1,3.1c0.1,0.8,1.1,0.5,1.8,0.4
		c2.2-0.3,4.3-1.8,6.7-0.3c1,0.6,1.5,2,0.5,2.3c-3.5,1.1-3.5,3.6-3.5,6.3c0,0.6-0.4,1.5-0.9,1.7c-1,0.5-2-0.2-2.7-0.9
		c-0.5-0.5-0.8-1.2-1.1-1.9c-0.6-1.5-1.8-1.5-3.1-1c-3.6,1.4-3.9,1.8-3.4,5.9c0.2,1.3,0.3,2.5-0.6,3.4c-1.7,1.7-2.1,3.7-2.2,6
		c-0.1,2.5-1.6,4-4.4,4.2c-1.3,0.1-2.5,0.4-3.3,1.5c0.2,0.3,0.4,0.6,0.6,0.9c-0.1,0.3-0.2,0.7-0.2,1c-2,2.5-4.5,4.7-7.4,6.2
		c-3,1.7-3.1,3.4-1.5,5.8c2.2,3.2,2.5-0.7,3.8-1c1.5-0.3,3.2-0.9,4.4,0.1c2.2,1.8,0.2,3.4-0.7,5.1c-0.3,0.6-0.5,1.1-0.7,1.7
		c0.2,2.2,1.5,4.1,1.4,6.3c-0.1,1.4,0.4,2.9-0.3,4.5c2.3-1.9,3-5.7,7.2-4.3c1.8,2.3,0.9,4.7,0.2,6.9c-1.9,5.7,2.1,11.2-0.1,17
		c-0.8,1.9-1.8,3.4-3.3,4.7c-1.2,1.4-3,2.7-4.6,1.6c-2-1.5-2.8-4.1-2.2-6.5c0.6-2.5,1.9-4.9,2.6-8.5c-4.5,9.6-4.5,9.6,1.2,19
		c0.5,0.6-0.8,1.3,0,2c-0.1-0.5,0.1-0.9,0.6-1.2c2.9-1.5,0.6-4.8,2.7-6.6c2-1.3,3.9-0.9,5.7,0.3c0.9-1.4,4.6,0.4,3.6-3.5
		c-0.8-3.1-0.2-6.7,1.8-9.8c1.3-2.1,2.4-4.7,5.5-4.5c3.3,0.3,3.5,3,3.8,5.5c-0.2,1.6-1.6,2.7-1.8,4.3c-0.2,0.9-0.3,1.9-0.5,2.8
		c-0.1,0.6-0.4,1.3-0.6,1.9c-3.2,6-0.9,13.7-5.1,17.7c3.2-3.8,7.5-3.6,8.7,1.9c0.5,2.1,0.8,4.4-2,5.6c-0.2,0.1-0.5-0.2-0.7-0.1
		c-2.2,0.5,0.1,1,0.1,1.4c3.7-0.6,5,1.4,5.6,4.4c0.7,3.1,1.5,6.1-0.6,9.1c-0.8,1.1-1.3,2.9-3.3,2.6c-1.9-0.3-2.2-1.7-2.2-3.3
		c0-1.7-0.6-3.3-0.5-5c0-0.6,0.4-1.2,0.7-1.7c-0.6,0-0.4,0.7-0.8,0.8c-0.8,5.3,2.8,11.5-4,15.8c-1.4,0.9,1.4,2.2,1.9,3.4
		c1.4,3.3,2.3,6.8-1.9,8.9c-4.6,2.3-6.6-0.5-7.6-4.3c-0.5-2-2.3-3.2-3.8-4.4c-1.4-1.2-2.2-2.6-2.3-4.4c-0.2-3.8,3.3-5.4,5.5-7.8
		c-4.4-1.8-3.9-4.3-1.5-7.4c3.3-4.2,0.9-5.5-3.5-5.5c-1.6,0-3.1,0.2-4.6,0.6c-3.9,0.9-5.7-0.9-4.9-4.1c1.2-4.5-1.2-5.9-5.1-7
		c-3.6-1-5.9-3.7-7.4-5.1c3.3,1.4,3.6,6.8,7.6,9.4c0.3,0.6,0.4,1.3,0.4,2c-0.2,2.5-3.6,4.1-1.8,7.3c1.5,2.8,0.8,5.3-3.3,5.4
		c-3.2,0.1-7,1.3-7.7-3.4c-0.2-1.7-0.4-3.3-1.2-4.9c-2.3-5-2.2-5,1.5-9.4c-8.2,1.1-4.6-6.7-8.3-8.9c-0.7-2.2,1-2.9,2.6-3.8
		c1.2-0.6,3.3-1,1-2.7c-0.9-0.7-2.3-2.4-3-1.2c-2.7,4.8-9.9,5.2-12,11c4.9-6.5,7-6.9,11.9-2.8c0.7,10.1,5.9,19.2,6.9,29.2
		c-0.3,4.1,0,8.5-4,11.5c-2.7,1-5,0.6-6.6-1.7c-1.5-2.2,0.5-3.3,1.8-4.7c1.4-1.5,1.5-3.4,1.4-5.3c-1.3-2.9-2.1-6-5.6-7.4
		c-3.3-1.3-3.4-3.9-3.4-6.6c-1-0.6,1.6-3.6-1.8-2.5c-1.9,0.6-3.2-0.1-4-1.2c-2.1-3.1-4.3-4.6-8.7-3.9c-2.9,0.5-4.4-2.8-3.8-5.2
		c0.9-3.6-0.4-6.4-1.8-9.6c-1.4-3.1-1.4-6.8,1.2-9.6c2.7-2.9,5.9-2.3,9.1-0.5c3.8,2.1,6-0.9,6.4-3c1.8-9.2,9.8-11.7,17.1-15.1
		c3.2-1.5,5.3-3.8,5.9-7.2c-1.6-1.1-2,0.5-2.8,1c-1.5,1.1-2.9,2.2-4.8,1.3c-2.1-1-3.1-2.9-2.3-4.9c2.3-6-1.8-10.4-4.3-15.7
		c-0.7,5-3.4,8.1-8.7,7.9c-3.8-0.2-2.5-3.6-3.1-5.7c-0.2-0.7-0.3-1.4-0.3-2.1c-0.2-2.1-0.3-4.3,1.6-5.9c0.1-1.5,1-2.5,2.2-3.5
		c0.9-0.7,1.1-2,0.5-2.5c-2.7-2.1-0.8-4.7-1.1-7.1c0.3-0.1,0.5-0.2,0.5-0.2c-0.4-0.4-0.6-0.4-0.5,0.2c-0.6-0.4-1.3-0.8-1.8-1.3
		c-1.2-1.2,0.5-2.8-0.4-4.1c-0.9-1.2-1.8-2.4-2.5-3.6c-0.3-0.6-0.6-1.7-0.2-2c3.2-2.6-0.5-2.8-1.5-3.7c-1.1-0.9-3.6-1.6-3.6-2.3
		c0.2-2.3-1.1-4.1-1.8-6.1c-0.2-0.8,0.7-1.3,1.5-1.3c0.7,0,1.6,0,2.2,0.3c2.6,1.2,4.4,0.7,5.8-1.7c0.5-0.8,1.6-1.2,2.4-1.8
		c0.3,0.1,0.7,0.2,1,0.3c6.1,2.9,6.1,2.9,7.8-5.3c0.2-0.3,0.4-0.6,0.6-0.8c1,0.2,2.2,0.2,2.6,1.2c1,2.6,2.5,5,1.9,8
		c-0.6,2.7-0.3,2.8,3.4,3.9c0.9,0.9,2.6,2,2.4,2.6c-0.8,2.5,0.9,5.2-0.8,7.5c-0.4,0.6-1.1,1.1-1.3,1.7c-0.4,1.4-0.5,2.9,1.2,3.8
		c1.1,0.6,2.1,1.2,3.2,1.9c6.1,3.7,7.5,1.9,8.5-2.8c0.5-2.5,2.5-4.6,1.9-7.3c-0.1-0.3,1.1-1.1,1.7-1.1c2.3-0.1,4.5,2.3,3.6,4.2
		c-1.3,2.7-1.4,5.3-0.6,8.2c0.5,1.8,0.2,3.8,0.2,5.7c0,1-1.3,2.4,0.7,2.9c1.4,0.3,2.5-0.4,3.3-1.4
		C117.2,119,117.4,118.5,117.7,118.1c2.2-1,2.7,1.6,4.7,1.9C120.6,119.2,120,117,117.7,118.1z"/>
	<path id="XMLID_238_" class="st16" d="M74.1,134c1.9,1.1,0.8,2.4,0.5,3.8c-0.2,1.1,0.9,1.8,1.9,1.4c1.4-0.6,2.8-1.2,4.2-1.9
		c1.5-0.7,1.3-1.2,0.5-2.6c-1.6-2.9,0.2-5,3.9-5c0.8,0,1.9,0.3,1.7,1c-0.8,2.7,3.4,3.8,2.1,6.6c-0.2,0.3,0,1.1,0.4,1.3
		c4.2,2.8,2.6,6.2,1.2,9.6c-0.3,0.7-0.5,1.4-0.4,2.1c0.2,0.6,0.8,1.2,1.3,1.7c0.6,0.5,1.5,0.5,2.1-0.1c1.6-1.6,3.1-3.2,4.7-4.8
		c0.5-0.5,1.3-0.8,2.1-0.4c1,0.5,1.4,1.3,1.2,2.4c-0.7,3.5-2.5,6.7-4.5,9.7c-0.5,0.7-1.1,0.9-1.9,0.9c-3.5-0.2-5.7,1.6-7.1,4.4
		c-0.6,1.2-1.4,0.8-2.4,0.4c-3-1.2-5.1-0.5-5,1.9c0.4,4.9-3.3,7.9-5.5,11.5c-1.5,2.4-3.7,2.3-6.2,0.3c-0.8-0.6-1.5-1.3-2.4-1.7
		c-1.8-0.8-4.9,0-5.5,1.5c-1.2,3.2-2.1,6.7,0.6,9.5c2.2,2.3,2.9,4.4,1.1,7.1c-0.6,0.8-0.7,1.7-0.5,2.7c0.6,2.6,2.6,3.5,4.9,1.9
		c0.6-0.4,1.1-1,1.7-1.4c1.3-0.9,2.8-0.6,2.9,0.9c0.1,3,2.3,4.6,3.9,6.8c0.1,0.1,1.2-0.1,1.2-0.2c0.4-2.2,1.2-1.6,3-1
		c1.8,0.7,1.9,1.1,1.3,2.5c-0.4,0.9-0.5,1.8-0.8,2.8c-0.7,1.5-3.8,2.9-0.1,4.7c6.1,2.8,2.9,5.2-0.3,7.9c-1.8,1.5-5.8,1.8-4.2,5.6
		c1.3,0.6,2.6-0.2,3.8,0c0.6,0.1,1.1,0.4,1.5,0.8c0.5,0.3,0.8,0.2,0.8-0.4c0.9-1.2,2-1.9,3.6-1.7c0.2-0.1,0.6,0.6,0.6,0.1
		c0-0.3-0.4-0.8-0.3-1.3c1-2.4,2.5-3.9,5.5-2.4c-0.8,1.5-1.5,3-1.6,4.8c-0.1,0.9-0.5,1.9-1.1,2.6c-2.7,3.5-2.8,3.4,2,4.2
		c0.3,0,0.5,0,0.8,0c-1.1,3.9-4.5,6.1-7.2,8.7c-0.6,0.3-1.2,0.5-1.9,0.5c-0.6-0.2-1.2-0.4-1.8-0.8c-0.7-0.5-1.4-1.1-2.1-1.8
		c-0.4-0.4-0.9-0.7-1.3-1.1c-0.2-0.2-0.4-0.3-0.7-0.5c-0.5-0.3-0.9-0.6-1.4-0.9c-0.5-0.3-0.9-0.7-1.3-1.1c-0.3-0.5-0.4-1-0.5-1.5
		c0-0.2,0-0.5,0-0.7c0.1-0.2,0.1-0.5,0.2-0.7c0.3-0.5,0.1-0.9-0.4-1.1c-0.9-0.1-1.7,0-2.5-0.3c-5.3-3.6-11.2-6.8-9.3-14.4
		c-1.3,0.9-2.1,2.7-4,3.1c-4.5-0.3-6.8-3.7-9.8-6c-0.6-1.9-0.5-3.3,2.2-3.4c2.8-0.2,5.5-0.1,8.2-1c-5.2,1.1-10.1,0.2-15.1-1.1
		c-4.4-4.3-5.2-10.8-10.6-14.5c-1.4-2.2,0.6-4.2,0.5-6.2c-0.6,1.5-0.9,3.7-3.8,2.9c-2.7-4.3-1.2-9.9-5-13.8c-2,0.6-1.9,2.8-3.4,3.6
		c-6.5,0.2-5.9-6.5-9.9-8.7c-2.8-2.3-3.1-2.4-1.7-4.8c0.7-1.3,0.3-1.9-0.2-3c-0.4-1,1.9-1.5,1.3-2.8c-0.2-0.4-0.7-0.7-1-1l0,0
		c0.6-2.4-1.7-4.6-0.8-7c1.1-2.9,1-6.1,3.9-8.4c1.3-1,1.6-2.9,2.6-4.3c0.6-0.7,1.8-1.3,2.7-0.8c1.1,0.5,0.8,1.7,0.7,2.6
		c-0.2,1.6-1.3,2.6-2.7,3.3c-0.9,0.5-0.9,1-0.1,1.7c1.9,2.2,0.8,4.6,0.5,6.9c-0.3,3.2-0.2,6.2,3.4,8.4c3-3.6-1.4-8,2.1-11
		c0,0,0.1,0,0.1,0c1.5,0.7,2.9,1.6,4.6,1.5c2.1,3.4,6.7,3.1,9.5,5.5c0.9,0.7,2,0.7,2.7-0.1c4.8-5.3,12.3-6.8,17.9-10.9
		c5.8-4.3,7-3.6,8.7,3.3c0.5,1.9,1.1,2.7,3.2,3.4c4.3,1.5,5.9,3.8,1.3,7.1c-6.1,4.5,4,4.8,2.3,8.5c2.9-6.1,10.6-9.7,7.2-17.8
		c-1.3-3.1,5-3.9,5-7.5c-2.1,0.9-2.7,3.1-4.3,4.4c-3.4,2.8-6.4,3.5-8.3-1.2c-1.6-4-3.3-6.8-9-5c-3.5,1.1-3.9-2.4-4.4-4.6
		c-0.6-2.4,0.1-4.2,3.5-4.2c6.2-0.1,8.6-2.3,5.4-8.2c-1.9-3.6,1.1-5.2,4.5-5.9c1.4,0.1,2.5,0.4,2,2.1c-0.5,1.5-0.4,2.8,1.2,3.7
		C74.1,129.2,74.1,131.6,74.1,134z"/>
	<path id="XMLID_237_" class="st3" d="M71,121c-0.8,0.9-1.5,2-2.5,2.6c-1.5,1-1,1.9-0.6,3.1c0.6,1.7,2.5,2.4,3.6,3.7
		c-0.4,2.1-2.3,3.1-3.5,4.6c-1.8,2.2-4.4,3.2-7.4,1.7c-1.3-0.6-2.1-0.1-1.8,1.1c0.5,1.8,1.3,3.5,1.9,5.2c0.6-0.1,0.9-0.1,1.1-0.2
		c1.8-0.8,3-3.5,5.2-2.5c2.5,1.1,4.2,3.4,5.4,5.8c0.4,0.8,0.3,1.9,0.4,2.9c0.1,1.1,0.8,1.8,1.9,1.9c1,0.2,2.1-0.1,2.8-0.9
		c1.1-1.3,2.1-2.7,3.1-4.1c0.9-1.2,1.7-2.4,2.6-3.6c0.7-0.8,1.7-1.1,2.8-0.6c1.4,0.7,1.4,1.8,0.9,3.1c-0.9,2.3-3.3,3.8-3.7,6.3
		c0,0.3-0.8,0.6-1.2,0.6c-2.8-0.4-1.9,1-1.8,2.5c0.3,2.2,2.5,2.9,4.1,4.6c-1.7,2.2-5.1,2.5-6.1,5.2c-0.8,2.2-2.1,4.4-3,6.5
		c-0.7,1.9-1.2,2.2-3.1,1.8c-0.6-0.1-1.4,0.5-2.1,0.8c-1.4,0.6-2.2,0.1-1.5-1.1c1.4-2.7-0.3-4-2.3-5.4c-0.8-0.5-2.1,0.2-2.7-1.3
		c1.4-1.7,2-4.4,4.9-4.9c1.4-0.2,2.8,0,1.8-1.9c-0.6-1.2-1-2.7-3.3-1.5c-2.7,1.4-2.8,0.8-3.8-1.3c-1.1-2.3,0.3-4.3,0.1-6.4
		c-0.1-1.7-1.5-2.5-3.2-1.7c-1.5,0.6-2.6,1.5-3.4,2.8c-0.7,1.1-1.8,1.5-3.3,1.1c-0.8-0.2-1.4,0.1-1.6,1c-1,3.8-4.7,3.9-7.7,4.9
		c-2-1.5-2.3-0.3-2.9,1.3c-0.4,1.1-1.4,2-2.1,3c-1.3,1.7-3,1.8-4.4,0.4c-0.5-0.5-0.7-1.3-1-1.9c-0.8-1.5-1.6-1.2-3-0.4
		c-1.7,1.1-3,0.6-3.4-0.9c-0.5-1.6-0.8-3.2-1.2-4.8c2.9-6.8,2.9-6.8,8.5-10.6c1.4,2.3,2,4.8,2.6,7.3c0.7,3,2.3,3.6,5.6,2
		c1.3-0.6,2.3-0.5,3.6-0.4c1.8,0.1,2.8-1.1,2.1-2.7c-1.2-2.7-2-5.7-4.8-7.7c2-1.4,3.5-3.1,5.6-1.1c0.7,0.7,1.4,0.3,1.8-0.3
		c0.7-1.2,2.2-2.1,2.1-3.7c-0.1-4.2,1.8-7.1,6.3-8.5c1.2-0.4,1.9-1.9,0.9-3c-1.3-1.5-1.1-2.5,0.3-3.6c0.3-0.2,0.4-1.2,0.4-1.2
		c-3.8-1.4-2-4.3-2.3-6.7c3.6-2.7,7.2-1.3,10.8-0.1c0.4,0.1,0.9,0.7,0.9,1c-0.1,1-1.1,0.7-1.7,0.9c-1,0.4-2,1.1-0.8,2
		C69.1,118.9,70.4,119.6,71,121z"/>
	<path id="XMLID_236_" class="st17" d="M111.5,57.3c2.1,5.6,2,12.5-0.1,16.9c-0.7,1.5-1.9,2.2-3.3,2.7c-2.2,0.7-2.5-0.7-2.8-2.2
		c-1.6-1.4-3.5-2.5-4.7-4.3c-0.5-0.5-1-1-1.6-1.4c1-1,2.1-1.9,3.1-2.9c0-1,0-1.9,0-2.9c1-0.8,0.7-2.1,1.6-2.9c1.9-1,4-1.7,6.2-1.5
		C110.4,58.2,111.1,57.8,111.5,57.3z"/>
	<path id="XMLID_235_" class="st18" d="M63.3,39.9c3.9-1.8,7.8-3.6,11.7-5.3c1-0.4,2,0.2,2.7,1c0.6,0.7,0.2,1.4-0.3,1.9
		c-4.2,5.9-9.5,10-17.5,9.5c-0.7,0-1.5-0.4-1.9-0.9c-0.8-1,0-1.8,0.8-2.4C60.3,42.5,62.4,41.8,63.3,39.9
		C63.3,39.9,63.3,39.9,63.3,39.9z"/>
	<path id="XMLID_234_" class="st19" d="M22.8,128.3c-1.5,0.9-1.5,2.4-1.5,3.9c-0.1,2-0.8,3.8-2.3,5.2c-0.5,0.4-1.5,0.7-2.1,0.5
		c-0.6-0.1-1.6-0.8-1.6-1.3c-0.4-5.3-1.2-10.5,1.1-15.6c0.8-0.6,1.5-1.2,2.4-1.7c1-0.5,1.9-0.3,2.5,0.7
		C23,122.6,22.9,125.5,22.8,128.3z"/>
	<path id="XMLID_233_" class="st20" d="M25.8,84.2c-0.4-6,3.4-9.7,8.2-12.8c0.8-0.5,1.5,0.1,1.9,0.7c1.1,1.5,1.1,3.2,0.4,4.8
		c-1,2.4-2.5,4.7-2.9,7.4c-0.2,1.3-1.3,1.9-2.5,2.5C27.9,88.2,25.8,87.3,25.8,84.2z"/>
	<path id="XMLID_232_" class="st21" d="M53.9,52c0.2,2.6-0.8,4.7-3.3,6c-3.2,1.6-6.5,3.1-9.7,4.5c-0.7,0.3-1.6,0.3-2-0.5
		c-0.3-0.6-0.5-1.5-0.2-2c2.5-5,6.9-8.3,12.2-10.7c1.6-0.7,3,0.2,3.1,1.9C53.9,51.4,53.9,51.7,53.9,52z"/>
	<path id="XMLID_231_" class="st22" d="M19.7,113.7c-2.7-4.9-2.5-9.8,0-14.8c0.6-1.3,1.1-2.6,1.6-3.9l-0.1,0c0.5-0.6,1-1.1,1.7-1.5
		c1.4,0.7,2.7,1.7,2.7,3.2c0.2,3.3,0.6,6.7,0,10C25.1,109.7,22.5,111.9,19.7,113.7z"/>
	<path id="XMLID_230_" class="st23" d="M125.3,20.9c-0.5,0-0.9,0.1-1.3,0.2c-3.1,0.9-6.2,1.9-9.3,2.6c-3.5,0.8-4.8-0.1-6.2-4v0
		c4.8-5.4,11.6-4.9,18.1-5.3c1.3-0.1,2.5,0.8,2.7,2.1C129.5,19.1,127.6,20.2,125.3,20.9z"/>
	<path id="XMLID_229_" class="st19" d="M88.3,26.9c2.1-0.6,4.3-1.1,6.3-1.9c2.8-1.2,5.7-1.4,8.7-0.9c-1.4,5.9-7.2,6.7-12,8.3
		c-1.9,0.7-4.4,0.6-6.8-0.5C84.8,29.6,87.4,28.8,88.3,26.9z"/>
	<path id="XMLID_228_" class="st3" d="M75.7,86.2c-0.8-5.4-0.3-6.6,4.3-8.9c-0.6-2.7-4.2-3.5-4.7-6.3c1.3-1.3,2.9-0.7,4.3-0.7
		c0.9,0,1.2,0.6,0.7,1.3c-0.7,1-0.4,1.8,0.6,2.4c1.1,0.6,2.3,1.1,3.4,1.7c2.1,1.2,2.1,1.2,0.8,4.7l0,0c-0.3,0.5-0.7,0.6-1.2,0.4
		c-0.2-0.1-0.4-0.2-0.4-0.2c-0.7,0.7,0-0.5,0.2,0.5c0.3,0.9-1,0.7,0.1,0.7C81.8,84.5,81.7,90.1,75.7,86.2L75.7,86.2z"/>
	<path id="XMLID_227_" class="st15" d="M101.3,37c0.2,0,1.2-0.1,2.2,0.3c1.6,0.5,2.6,1.9,2.4,3.3c-0.2,1.5,0,3.5-2,4.3
		c-0.3,0.1-1-0.2-1.3-0.5c-2.3-2-2.3-2.1-3.5,0.1c-1.3,2.3-1.9,2.5-3.9,1.4c-1-0.5-1.5-1.2-1.2-2.3c0.6-2.1,2.7-3.4,3.1-5.7
		C97.2,37,98,36.9,101.3,37z"/>
	<path id="XMLID_226_" class="st3" d="M23,93.5c-0.6,0.5-1.1,1-1.7,1.5C21.6,94.2,22.1,93.7,23,93.5z"/>
	<path id="XMLID_225_" class="st24" d="M141,216.6c0.5,1.3,1,2.7,1.5,4c0.6,1.6-1.6,3.2-0.1,4.8c0.1,0.2,0.5,0.3,0.7,0.2
		c1.1-0.6,3.4-5.7,3-6.7c-0.8-2-2-3.8-1.4-6.1c0.2-0.8-1.2-1.4-2.2-0.4c-0.9,1-3,1.6-3.1,0.8c-0.2-2.8-2.3-5.4-1-8.2
		c0.1-0.2,0.4-0.5,0.5-0.4c0.5,0,1.2,0.1,1.3,0.3c0.5,1,0.9,2.1,1.6,3.9c1.2-3.9,0.7-6.6-2.7-8.4c-3.2,1.5-3.8,5-6.5,7
		c-0.8-4.4-0.7-5.6,1.5-7.7c0.9-0.9,1.7-1.5,1.5-2.9c-0.3-2.4,1.5-10.3,2.6-12.3c0.2-0.4,0.7-0.6,1.1-0.9c3.7,1.4,2.5,4.2,2.4,6.8
		c-0.1,2.4-0.2,5.9,2.7,5.8c2.9,0,4-3.3,3.8-6.2c-0.1-1-0.3-1.9-0.4-2.9c-0.1-3.1-0.5-6.4,4.7-4.5c2.7,1,4.7-3.9,7.6-0.7
		c-1.6-3.2,3.1-6.2,0.2-9.7c-1.1-1.3-0.8-3.3,0.8-4.6c1.3-0.6,1.5-1.7,1.6-2.9c0.4-0.7,1.4-0.5,2-0.9c-0.6-0.4-1.3-0.4-2-0.6
		c-2.4-1.1-3.7-2.8-2.6-5.2c0.7-1.6,1.1-3.2,1-4.9c1.3,0.1,2.5,0.2,3.8,0.4c3.4,0.6,4.3,0,3.8-2.9c-0.3-1.9-2.5-4.3,2.1-3.9
		c0.3,0,0.9-1,1-1.6c0.1-0.9-0.3-1.9-0.1-2.7c0.1-0.4,1.2-0.5,1.9-0.8c3.1,1.5,7.5,1,9.1,5.3c0.4,1.1,3,1.4,4.5,2.3
		c1.7,1,2.9,0.9,3.4-1c0.4-1.5,2.1-1.2,2.9-2c1.7-1.7,3.2-1.5,4.4,0.3c1.5,2.2,3,2.2,4.9,0.7c0.6-0.5,1.4-0.5,2,0.1
		c0.7,0.6,0.7,1.3,0.2,1.9c-2.6,2.6-1.8,5.8-1.8,8.9c0,0.8,0.5,1.4,1.4,1.3c0.7-0.1,1.6-0.4,2-0.9c0.4-0.4,0.7-1.3,0.6-1.9
		c-0.4-2.8,1.5-3.2,3.7-3.4h0c0.3-1.5,0.6-3,2.8-2.2c1.4,0.5,2.9,1.1,3.3,2.7c0.4,1.2,1.1,1.7,1.9,0.3c1.2-2.1,3.5-1.4,5.3-2
		c2.6-0.9,5.3-1.1,8-1.1c2.4,0,3.2,2,1.8,3.8c-1.4,1.9-2.9,3.8-4.7,6.1c-3.2,5-6.7,6.7-11,1.2c-4.5,7.3,6.8,9.1,4.9,15.2
		c2.5-5.6,2.2-11.9,6-16.4c1.5-0.2,2.7,0.1,4,0.4c0.8,0.2,1.8,0.2,2-0.5c0.9-3.4,4.4-3.4,6.9-4.7c0.9,0.7,1.3,1.6,1.5,2.7
		c-1.4,6.6-1.4,6.6,2.6,11.8c-0.1,0.7-0.3,1.3-0.7,1.8c-0.9,0.6-1.9,0.7-3,0.7c-2.1-0.3-3.1,0.8-3.6,2.5c-0.5,1.2-1.2,2.4-1.9,3.5
		c-2.7,3.6-1.9,8.9-6.6,11.6c-0.4,0.3,1.5,3.4,1.3,5.4c0,1.4-0.1,2.8-0.6,4.2c-0.3,0.6-0.7,1.2-1.2,1.7c-6.3,0.3-11.5,1.3-7.1,8.9
		c0.2,0.4,0,0.9,0,1.4c-0.3,4.6,0.4,9.6-5.1,12.5c-1.3,0.7-0.9,2.7-1.7,3.9c-7,3.6-10,11.2-17.1,14.8c-4.6-1.5-6.6,1-8,4.5
		c-6.1,2.7-13.1,3.7-18.3,8.2c-2.4,0.6-5.1,0.5-5.5,3.8c-0.2,1.5-1.2,2.6-3.2,2c-6.2-3.9-12.7-3.1-19.2-1.2
		c-3.7-3.1-3.7-3.1,0.3-9.7c-3.1,2.9-2.8,7.2-5.9,9.9c-1.9,1.7-3.4,3.8-6.2,1.3c-6.1-7-12-8-16.5-2.8c-2.8,2.1-4.3,0.7-4.7-1.8
		c-0.5-3.3-2.5-7.1,2.3-9.2c0.7-0.3,1.6,0.6,2,0.2c0.4-0.6-0.9-0.6-1-1.2c-3.7-4.2-3-9.2-2.7-14.1c-0.9,4-1.1,7.5,0.3,11.7
		c1.5,4.3-2.2,8.8-6.9,11.3c-2.8-3.8-7.7-5.8-10.1-10c0.4-2.9,0.1-5.7-0.6-8.6c-0.8-3.5-1.5-7.5,1-10.5c2.4-2.8-1.7-1.8-1.6-3.1
		c-0.7-1.5-1.6-3-1.5-4.8c0.1-2.9-0.3-5.4-2.4-8c-1.6-2.1-0.9-5.6-3.4-7.7c-0.3-0.3-0.2-1.6,0.2-2c2.9-2.4,1.5-5.2,0.9-8
		c1,0.2,2.2,0.3,2.6,1.3c0.6,1.6,0.9,3.2,1.5,4.8c0.7,1.8,1.6,1.9,3.3,0.5c0.4-0.3,0.6-0.8,1-1.1c0.8-0.6,2.2-0.1,2.3,0.9
		c0.6,3.8,0.1,4.8-3.7,6.8c-0.4,0.2-0.8,0.5-1.1,0.8c3.3,3.6,3.3,3.6,3.7,10.1c0.1,1.1,0.9,1.7,2.1,1.6c0.5,0,1.1-0.2,1.4-0.5
		c1.6-1.2,4.3,1.4,5.3-1.1c0.7-1.8-1.6-2.8-2.3-4.4c-0.5-1.1-1-2.5,0.9-2.8c2.2-0.5,2.3-2.4,3.3-3.7c-1.3-0.3-2.2-3.4-3.9-0.3
		c-0.3,0.6-1.2,0.9-1.8,1.2c-0.2,0.1-0.6,0-0.7-0.1c-0.3-0.3-0.8-0.7-0.8-1.1c0.1-2.1,1.7-3.4,3.3-5.2c-2.5-1.8-4.2-4.6-7.9-4.9
		c-0.9-0.1-1.1-0.9-0.9-1.6c0.3-0.9,0.8-1.9,2.1-1.6c1.7,0.4,3.6,0.5,4.6,2.3c2.2,4.1,7.2,4.1,10.9,5.8c0.9,0.4,2.6-0.9,3.3,0.5
		c0.3,0.6-1.2,1.9-1,2.5c1.1,2.4-1.4,4.6-0.6,6.9c2.8,0.9,4.6-2,7.5-1.1c2,0.6,4.5,0.1,6.7,0.1c1.4,1.3,0.8,2.9,1.3,4.2
		c0.7,1.6,0.1,2.8-1.4,3.6c-0.7,0.4-1.4,0.7-1.9,1.2c-1.8,1.5-1.3,3.6,1.1,4.5c1.2,0.4,2.5,0.5,3.8,0.8c-1.2,2.1-3.5,2.2-5,3.4
		c-1.2,0.9-2.4,1.9-2.8,3.4c-0.4,1.4-0.4,2.9,0.9,4c1,0.8,2,1.5,3.1,2.2c2.1,1.2,3.7,2.3,2.5,5.2c-0.6,1.4,1.3,2.9,2.7,2.8
		c2.3-0.2,4.4-1.8,4.3-3.4c-0.1-0.9-0.5-1.9-0.6-2.8c-0.3-2.7-0.3-2.7-3.8-3c-0.6-0.1-1-0.1-1.2-0.8c0.8-2,2.3-3.6,4-5.1
		c3.8-3.3,4.4-3.9,2.3-7.5c-1.2-2-1-3.6-0.4-5.4C138.6,215.3,139.9,216.4,141,216.6z"/>
	<path id="XMLID_224_" class="st24" d="M165.9,144.2c0-2,1.8-4.2-0.7-6c-0.6-0.4-0.8-1.4,0.1-1.8c3.9-1.6,2.2-4.4,1.2-6.5
		c-0.8-1.7-1.9-3.2-2.3-5.2c-0.6-3.5-0.7-6.6,2.9-8.8c1.4-0.9,1.9-2.2,1.1-3.7c-0.5-0.9,0-1.7,0.5-2.6c2.6-5.4,2.5-5.4,11.2-8.9
		c0.9-0.8,1.4-2.3,3.1-1.4c1,0.6,0.1,2.2,1.5,2.7c-1.2-1-0.9-2.8-2.2-3.6c0-3.2,2.2-2.7,4.2-2.2c1.8,0.4,3.7,1.4,3.4,3.3
		c-0.7,3.7,1.8,6.2,3.4,9c4.9-0.5,10.2-0.6,10.5-7.1c0.1-1.2,0.8-2.5-0.4-3.3c-4.5-3.2-1.5-6.9-1-10.5c-2.2,1.6-0.8,6-4.2,5.8
		c-4.2-0.3-4.4-4.8-6.5-7.3c-0.4-2,0.3-3.2,2.6-3.6c2.8,1,4.5,0.5,4.4-2.7c0-0.3,0-0.6,0-0.9c0.2-1.2,0.6-2.4,2.1-2.7
		c0.7-0.2,1.5-0.2,2.3-0.2c11.6-0.2,10.5,1,9.7,10.6c-0.1,1.1-0.7,2.5,1.1,3c1.7,0.5,3.6,0,4.6-1.5c0.4-0.6,0.5-1.3,1-2.5
		c1.6,1.3,3.1,2.3,4.3,3.8c2.5,3.3,2.6,3.2-0.2,7.1c-0.3,0.4-0.4,0.9-0.5,1.3c5.3,0.9,5.3,0.9,8.3-1.6c0.6,0.7,1.2,1.7,2,2.2
		c1.4,0.9,2.9,0.8,4-0.7c0.5-0.8,0.9-1.8,1.6-2.4c0.4-0.3,1.5-0.2,2.1,0.1c0.8,0.3,0.9,1.2,0.5,1.8c-1.4,2.3-2.9,4.5-4.5,6.8
		c-1.2,0.1-2.6,0.4-3.8,0.1c-1.7-0.4-3.2-0.4-4.2,0.9c-1.3,1.6-3.8,0-4.6,1.5c-0.5,1.1,2,2,1,3.8c-0.5,1-0.5,2.3-0.7,3.5
		c-1.7-0.4-2.1-1.6-2-2.7c0.1-1.6-0.4-2.8-1.5-3.9c-0.1-0.1-0.5-0.2-0.7-0.2c-0.2,0-0.6,0.2-0.5,0.3c0.7,2.5-0.2,4.6-1.7,6.6
		c-0.2,0.4,0.5,0.8,1.1,0.7c1.8-0.3,2.5,0.2,1.7,1.8c-1.1,2.4-2.4,4.7-4.4,6.7c0.8,1.9,3,2.5,4.4,3.9c0.9,0.9,1.9,0.1,2.2-1
		c0.1-0.5,0.1-1,0.2-1.4c0.5-2.9,0.5-2.8,3.7-3.3c1.1-0.2,2,0,2.6,1c-0.6,1.4-1.8,2.2-3.2,3c-1.4,0.8-1.4,1.9,0,2.8h0
		c0,1,0,1.9,0,2.9c0,0.5-0.2,0.9-0.3,1.4c-1.8,1.3-2.6-0.7-3.8-1.2c-1.7-0.7-3.3-1-5.2-0.3c-1.3,0.4-2.3,0.7-2,2.3
		c0.3,2.1-0.8,3.9-2.5,4.9c-2.7,1.4-2.3,3.3-1.7,5.5c0.2,0.7-0.1,1.4-0.2,2.1c-2.1,0.1-2.2-2.3-4.3-2.4c-2.2-0.1-2.2-0.7-0.5-2.6
		c0.7-0.8,1.5-1.4,1-2.5c-0.8-1.7,0.9-3.2,0.3-4.7c-1.7-1.4-4.4-0.3-5.5-2.4c0.1-0.3,0.3-0.6,0.4-1c0.8-1.3,2.5-1.7,3.7-3.7
		c-3,0.5-6.9,2.4-6.5-2.5c0.2-2.8,1-5.5,2.3-9.1c-5.2,2.8-6.4,5.6-4.1,9.6c1.1,1.9,2.8,3.5,2.8,5.8c0,0.3-0.1,0.7-0.1,1
		c-0.8,1.1-1.9,1.5-3.3,1.2c-1-0.2-1.9-0.7-3-0.2c-2.2,1.1-3.9,3.3-6.9,2.4c-0.6-2.3-1.3-4.6-1.8-6.9c-0.4-2.1-0.6-4.3-0.9-6.4
		c-0.1-0.4-0.6-0.7-1-0.9c-0.8-0.4-1.6,0-2,0.6c-0.6,0.8-1,1.6-1.3,2.5c-0.4,1.2-1.1,2.7-2.2,2.7c-4.2-0.1-4.1,4.5-7.2,5.5
		c-1.1,0.4-1.3,1.5-1.3,2.4c-0.1,1.9,0,3.9-0.1,5.8C169,141.9,168,143.4,165.9,144.2L165.9,144.2z"/>
	<path id="XMLID_223_" class="st25" d="M229.7,196.3c-0.1-1.4-0.1-2.9-0.2-4.3c0-0.7-0.5-1.8-0.2-2c4.1-3.2,2.6-8.7,6-12.1
		c0.2-0.2,0.4-0.3,0.6-0.4c2.3-0.1,2.5-1.2,1.6-2.9c0-0.4,0-0.9,0-1.3c0.7-3.2,1.4-3.4,4.6-1.6c1,1.2,2.1,0.8,3.1,0l0,0
		c2.4-5.1-0.9-8.9-3.1-13c0-1,0-1.9,0-2.9c-1.7-3-2.7-5.8,1.3-8c1-0.6,1.1-1.5,0.6-2.5c-0.4-0.9-1-2-2.2-1.3
		c-1.7,1.1-3.1,2.5-4.8,3.9c0-5.2,4-8.5,7.8-6.1c3.3,2.2,5.6,6,7.9,9.3c1,1.4-0.8,3.2-1.1,4.8c-0.2,1.1-0.8,2.6,0.8,3
		c1.4,0.3,2.6-1.1,2.8-2c0.5-3,3.3-4.9,4-7.7c0.5-1.8,2-0.8,3.1-0.6c0.2,0.1,0.4,0.3,0.7,0.4c0.5,0.6,0.9,1.2,1.3,1.9
		c0.1,0.2,0.2,0.5,0.3,0.7c0.2,0.5,0.2,1,0.2,1.5c0,0.5,0.1,1,0.5,1.3c0,0.5,0,1,0,1.4c-8,1.9-9.4,7.7-9.3,14.2
		c-0.1,0.7-0.3,1.3-0.4,2c-0.8,3.3-2.4,6.3-4.5,9c-1.1,1.7-1.7,3.8-4.1,4.5c-2.3,0.3-3.9-0.7-5.5-2.4c-1.4,3.4-1.3,6.6-0.7,10.2
		c0.9,4.8-2.8,8-6.9,10.2c-2.3,1.2-4.6,0.4-4.3-2.8C230.9,199.2,230.9,197.8,229.7,196.3z"/>
	<path id="XMLID_222_" class="st26" d="M248.4,108c1.9-1.1,1.5-5,5.3-3.9c1.6-1.4,2.8-3.6,5.5-3.4c0.6,4.4-1.5,9.2,2.4,13
		c0.2,1.1,0,2-0.8,2.8c-0.3,3.3,0.1,6.6-1.2,10c-0.9,2.5-1.9,2.4-3.7,1.3c-0.1-0.1-0.6,0.1-0.6,0.2c-0.1,0.4-0.3,1-0.1,1.3
		c1,1.4,2.1,2.8,4.2,2.8c0.2,0,0.7,0.7,0.6,0.9c-0.1,0.4-0.6,0.7-1,1c-1.8,1.4-4.1-0.9-6.1,0.8c-0.7,0.6-2.1-1.3-2.1-2.4
		c-0.1-2.1,0.3-4.3,0.4-6.4c0-0.3-0.6-0.8-0.9-0.8c-0.4,0-1,0.3-1.3,0.6c-0.4,0.6-0.5,1.3-0.9,2c-0.4,0.9-0.8,1.8-1.4,2.5
		c-0.4,0.6-1.3,1.3-1.8,1.2c-1.6-0.3-0.8-1.3-0.5-2.1c1-2.4-1.4-3.3-2.5-4.9c-1.2-1.8,0.2-1.9,1.6-2.1c0.5-0.5,1-0.5,1.5,0
		c1.3-0.6,1.5-1.7,1.6-2.9C245,115.4,243.3,111.3,248.4,108z"/>
	<path id="XMLID_221_" class="st27" d="M265.4,134.1c5.4,4.2,5.9,5.8,3.8,12c-0.8,2.4-1.1,5.1-3.6,6.7c0,0-0.7-0.2-0.7-0.2
		c-0.2-0.4-0.5-0.8-0.8-1.2l0,0c-0.9-0.8-0.6-2.1-1.5-2.9l0,0c0.5-3.2-1.3-6-1.5-9.1C260.6,136.3,261.3,135.6,265.4,134.1z"/>
	<path id="XMLID_220_" class="st28" d="M260.9,116.5c0-0.9-0.1-1.8-0.1-2.8c-3.2-7.8-3.2-7.8,3.2-7.3c3.5,1.4,3.6,4.6,4.3,7.3
		c0.7,2.7,0.3,5.7,0.1,8.6c-0.1,1.2-0.9,2.2-2.4,2.4c-1.2,0.1-1.7-0.8-2.3-1.6C261.8,121.2,263.1,118.3,260.9,116.5z"/>
	<path id="XMLID_219_" class="st29" d="M257.7,80.4c0.5-0.2,0.9-0.4,1.4-0.6c1.3-0.5,2.7-0.9,2.1,1.3c-0.5,2,0,3.3,2.3,3.7
		c0.5,0.1,1,0.3,1.5,0.5c2.8,1,4.2,2.7,3.4,5.6c-0.3,0.9-0.6,2,0.7,2.4c3.2,0.9,2.1,2.6,1.2,4.4c-0.7,1.4-1.7,2.4-3.2,3
		c-0.5-0.4-0.9-0.8-1.2-1.4c-0.6-1.4-1.2-2.7-2.4-3.7c-0.7-0.7-1.3-1.4-1.7-2.2c-1.1-2.7-3.3-4.8-4.5-7.4c-0.3-0.6-0.5-1.2-0.7-1.9
		C256.3,82.7,256.5,81.4,257.7,80.4z"/>
	<path id="XMLID_218_" class="st24" d="M267.1,99.3c0,0.5,0,1,0,1.4c1.3,1.1,2.5,2.2,4,3.4c-4.9,0-4.9,0-7.1,2.4
		c-0.7,0-1.5,0-2.2,0.1c-1.4,0.2-2.3,1-1.8,2.4c0.6,1.6,1,3.1,0.9,4.8c-1.2-1.4-2.6-2.8-3.6-4.4c-1.5-2.2-1.4-2.4,1.4-5.4
		c0.9-1,0.6-2.2,0.7-3.3c0-0.5,0-0.9,0-1.4c0-2-0.4-4.1,1.1-5.9c0.7-0.4,1.3-0.4,2,0c0.5,0.5,1,1,1.5,1.5
		C265.5,96,265.8,98,267.1,99.3z"/>
	<path id="XMLID_217_" class="st24" d="M248.4,108c-0.1,1.2-0.5,2.3-1.2,3.3c-0.4,0.5-0.9,1.7-0.7,1.8c2.8,2.1,0.3,4.3,0.4,6.5
		c-1.5-0.2-3-0.3-4.4-0.7c-2-0.5-2.8-1.7-2-3.8c0.3-0.8,0.2-1.9,0.2-2.8c0.5-0.5,1-1,1.5-1.5c-0.4-0.3-0.5-0.6-0.4-1
		c0.1-0.3,0.3-0.5,0.4-0.5c-0.4-1.1-1.3-2.1-0.2-3.2c1-1,2.3-0.9,3.4-0.3C246.5,106.5,247.4,107.3,248.4,108z"/>
	<path id="XMLID_216_" class="st24" d="M248.4,73.2c0.7,0.1,1.5,0.2,2.2,0.4c1.1,0.4,2.4,1.6,3.2,1.3c0.8-0.3,1.2-1.8,1.9-2.8
		c0.1-0.2,0.4-0.3,0.6-0.4c1.7,1.9,1.6,3.9,0,5.8c0,1,0,1.9,0,2.9c-0.3,0.2-0.5,0.5-0.8,0.7c-1.7,1.5-4.6-2.2-6,1.1
		c-4.5-2-4.5-5-2-8.5C247.8,73.6,248.1,73.4,248.4,73.2z"/>
	<path id="XMLID_215_" class="st24" d="M234.4,107.9c2.8,1.9,0.8,3.9,0,5.8c-0.5,2.3-0.5,2.3-3.1,1.4c-0.7-0.2-1.3-0.4-2-0.6
		c1.6-2-0.1-4.8,1.9-6.6c0.3,0,0.5,0,0.8,0c0.5,0,1.1,0,1.6,0C233.9,108,234.1,107.9,234.4,107.9z"/>
	<path id="XMLID_214_" class="st29" d="M256.2,77.5c0-1.9,0-3.9,0-5.8l0,0c0.5-0.7,1-0.7,1.5,0c1.3,0.2,2.6,0.4,2.9,1.9
		c0.2,1-0.2,1.9-0.9,2.6C258.7,77.2,257.5,77.4,256.2,77.5z"/>
	<path id="XMLID_213_" class="st24" d="M231.3,122.4c-0.2-0.9-0.3-1.9-0.7-2.7c-0.6-1.2-0.6-2.3,0.7-3.1c0.6,0.8,1.1,1.5,1.7,2.2
		c0.4,0.5,1,1,1.5,1.5c0.8,1,0.7,3.2-0.4,3.6C232.6,124.6,232.5,122.6,231.3,122.4z"/>
	<path id="XMLID_212_" class="st24" d="M257.7,68.8c-0.1-1-1.7-1.9,0-2.9c0.5,0,1,0,1.5,0.1c0.1,0.9,0.2,1.8,0.3,2.8
		C258.9,68.8,258.3,68.8,257.7,68.8z"/>
	<path id="XMLID_211_" class="st24" d="M257.7,71.7c-0.5,0-1,0-1.5,0c-0.9-2.5-0.9-2.5,1.5-2.9C257.7,69.8,257.7,70.8,257.7,71.7z"
		/>
	<path id="XMLID_210_" class="st24" d="M257.7,80.4c0,1.5,0,2.9,0,4.3c-3.4-0.5-2.7-2.3-1.7-4.3l0.1-0.1
		C256.7,80.4,257.2,80.4,257.7,80.4z"/>
	<path id="XMLID_209_" class="st24" d="M245.3,122.4c-0.5,0-1,0-1.5,0C244.2,121.5,244.8,121.4,245.3,122.4z"/>
	<path id="XMLID_208_" class="st24" d="M226.6,128.2c0.1-0.2,0.3-0.6,0.3-0.6C227.5,127.8,227.4,128,226.6,128.2L226.6,128.2z"/>
	<path id="XMLID_207_" class="st24" d="M201.7,131.1c-0.5,0-1,0-1.6,0h0c-0.3-0.7-0.1-1.5,0.7-1.5
		C201.6,129.6,201.9,130.4,201.7,131.1L201.7,131.1z"/>
	<path id="XMLID_206_" class="st30" d="M133.3,261.5c0.7,0.1,1.9,0.6,2.2,0.4c3.2-3.5,6.2-7.1,7.3-11.8c0.1-0.5-0.7-1.4,0.5-1.5
		c1.3-0.2,2.7-0.3,3.5,1c0.3,0.5,0.5,1.6,0.1,2c-1.2,1.5-2.9,2.8-3.6,4.6c-0.6,1.5-0.5,2.8,1,3.8c5.8,6,12.8,1.7,19.3,2
		c0.7,0.3,1.2,0.7,1.6,1.2c0.6,6,0.6,6,6.2,5.9c1.1,2.4,0,4.1-2.2,5.3c-6.9,1.9-14,1.5-21,1.6c-2.5,0-5.1-0.7-7.2,1.3
		c-0.7,0.8-1.6,1.5-2.6,1.3c-11.5-1.7-23.5-2.3-33.1-9.9c-3.7-2.2-8-2.9-12.1-4c-5.7-1.5-11.1-3.8-16.1-6.5
		c-4.7-2.5-9.5-4.8-14.2-7.2c-3.8-1.9-7.8-3.6-10.5-7c1.7-3.5,1.2-6.3-2.6-8.4c-3.2-1.8-4-4.7-3-8.1c0.3-0.6,0.9-1.1,1.6-1.3
		c8.6,2.6,8.8,2.5,8.8-5.3c1.3-2.5,3.4-4.2,6.3-4.9c0.3-0.1,1,0.3,1.1,0.6c0.2,0.4,0.2,1,0,1.4c-0.5,1-2.9,0.5-2.6,2.1
		c0.4,2.3,0.8,4.8,2.9,6.4c2.5,2,5.1,3.9,7.7,5.9c0.8,0.2,1.3,0.7,1.6,1.4c0,0.5,0,1,0,1.4c-0.5,0.5-1.2,0.8-1.9,0.8
		c-2.1,0-5.2-1.5-4.8,2.4c0.3,2.6,0.9,5.4,4.6,5.8c3.5,0.4,6.5-1.1,9.8-1.7c1.3-1.2,3.1-2.1,3.7-3.5c1.1-2.7,3.5-3.8,5.7-5.2
		c2.1-3.1,1.8-6.8,3.1-10.1c0.5,0,1,0,1.5,0c1.4,0.1,2.9,0.7,1.8,2c-2.6,3.5-1.1,7.3-1.3,10.9c-0.1,1.1,0.7,2.2,1.2,3.3
		c1.3,2.4,0.2,4-1.7,5.5c-0.3-0.2-0.6-0.4-0.9-0.5c-1.3-0.9-1.4-2.8-3.1-3.3c-0.3-0.1-0.3,1.2-0.3,1.9c-0.3,5.4,2.1,8.7,8.1,9.4
		c2.1,0.3,3.9,1.2,5.4,2.6c1.5-1.9,3.3-3.6,4.3-5.7c1.1-2.2,4.1-4.6,0.1-7.2c-1.6-1-1.4-3-0.9-4.7c0.4-1.6,0.9-3.2,1.3-4.8
		c0.3-1.2,0.7-2.5,2.2-2.5c0.6,0,1.4,1.3,1.8,2.1c0.4,0.8,0.9,2.1,0.5,2.7c-2.2,4-0.2,7.3,1.6,10.7c0.3,0.6,0.1,1.4,0.1,2.1h0
		c-2.6,0.9-4.5,2.1-3.3,5.2c0.5,1.3,0,2.9,0.2,4.2c0.4,1.9,1.8,0.9,3,0.7C121.5,261.1,127.9,258.7,133.3,261.5z"/>
	<path id="XMLID_205_" class="st30" d="M43,209.4c1.9,0.1,3.7-1.1,5.9,0.1c2,1.1,5.9-0.1,9.5-1.8c0.3-0.2,1-0.1,1.3,0.1
		c1.7,1.7,1,4.8-1.3,5c-3,0.2-6,1.4-9.2,0.4c-1.1-0.4-1.4,1-1.5,2c0.5,3.8,0.6,7.6,0.1,11.4l-0.2,0.1c-3.3,0.5-6.1,2.5-9.4,2.9
		c-3.3-2.4-6.9-4.4-7.7-8.7c-1.2-2.8-2.9-5.6-1.5-8.8c0.6-1.3,1.4-2.3,2.8-3c2.7-0.7,4.9,1.3,7.4,1.3c0.8,0,1.6-0.1,2.3-0.5
		C42,209.7,42.5,209.5,43,209.4z"/>
	<path id="XMLID_204_" class="st0" d="M30.6,212.3c-1.3,2.9,0.1,5.8,0,8.7c-3.2-4.3-6.5-8.5-9.7-12.8c-2.4-3.2-3.2-7-4.6-10.6
		c-0.8-2-1.6-4.2-4.6-4.1c0,0-0.7,0-0.7,0l-0.7,0c-0.2-2,0.6-4.3-1.6-5.8c0-0.5,0-1,0.1-1.5c1-0.5,2-0.9,3.1-1.4
		c6.5,3.7,7.4,11.8,14.2,15.2c2.1,1,3.4,2.9,2.4,4.6C26.6,208,29.8,209.8,30.6,212.3z"/>
	<path id="XMLID_203_" class="st31" d="M105.2,268.8c6.9,2.6,13.9,5,21.4,6c4.8,0.7,9.2,3.1,14.3,2.5c2.1,0.1,4.2,0,6.1,0.4
		c1.9,0.4,1.3,1.6,0.2,2.6c-0.5,0-1,0-1.5,0c-0.5,0.4-1.1,0.9-1.6,1.3c-0.5,0-1,0-1.5,0c-1.3-1.3-3.4-0.1-4.7-1.4
		c-3.1-0.1-6.6,0.7-9.1-0.5c-4.1-2-8.1-2.6-12.5-2.5c-0.7,0-1.7-0.1-2.2-0.6c-2.9-2.9-7-3.9-10.4-6c-0.7-0.4-0.9-1.1-0.1-1.7
		C104.1,268.9,104.7,268.9,105.2,268.8z"/>
	<path id="XMLID_202_" class="st14" d="M38.3,229.7c0.7-0.6,1.6-1.2,2.2-2c2.1-2.9,4.5-2.6,7.2-1c0.1,1.9-0.3,3.8,0.7,5.5
		c0.6,1,0.9,2.3,2.4,2.3c2.7,0.1,3.9,1.3,3.6,4c-0.1,0.9,1.2,1.9,1.8,3c0.7,1.5-0.2,2.2-1.7,2.4c-0.7,0.1-1.5,0.1-2.3,0.1
		c-1.6-0.1-2.9-0.6-3.9-1.9c-1.8-2.3-3.6-4.6-5.4-6.9c-1-0.7-0.6-2.1-1.6-2.8l0,0c-0.7-0.9-2.2-0.6-3-1.5
		C38.4,230.6,38.3,230.2,38.3,229.7z"/>
	<path id="XMLID_201_" class="st5" d="M137.9,280.4c1.7,0,3.5-0.3,4.7,1.4C140.9,281.8,139.1,282,137.9,280.4z"/>
	<path id="XMLID_200_" class="st30" d="M38.4,231.1c1.3,0.1,2.4,0.3,3,1.5C40.2,232.5,39,232.3,38.4,231.1z"/>
	<path id="XMLID_199_" class="st30" d="M41.4,232.6c1.3,0.6,1.6,1.7,1.6,2.8C41.8,234.8,41.5,233.8,41.4,232.6z"/>
	<path id="XMLID_198_" class="st5" d="M144.1,281.7c0.5-0.4,1.1-0.9,1.6-1.3C145.2,280.8,144.7,281.3,144.1,281.7z"/>
	<path id="XMLID_197_" class="st32" d="M30.6,212.3c-1.2-0.9-2.4-1.8-3.6-2.7c-1.8-1.3-1.6-2.4-0.2-4.1c1.5-1.9,0.9-2.5-1.8-4
		c-3.2-1.9-6-4-7-7.9c-0.6-2.3-1.5-5.2-5.3-5.5c-1.1-0.1-0.7-2.1-0.7-3.3c0.5,0,1,0,1.6,0c1.7-2.4-3-3.4-1.6-5.8c0-1,0-1.9,0-2.9
		c-0.5-0.5-1-1-1.5-1.5c0-0.5,0-1,0-1.4c0.7-0.3,1.4-0.7,2.1-0.9c0.4-0.1,1.3,0.1,1.3,0.2c-0.2,4.4,3.5,6.5,6.2,9.3
		c4.3,2.4,5,7.5,9,10.2c0.2-0.1,0.4-0.3,0.6-0.4c1.4-0.6,1.3-3.7,3.6-2.5c1.2,0.6,0.5,2.6-0.1,3.9c-0.3,0.7-0.6,1.3-0.9,1.9
		c1.3,2.7,0.1,5.5-0.1,8.2c-0.2,1-0.6,2-0.8,3c0,0.4,0.1,0.9,0.2,1.3c0.2,0.4,0.4,0.8,0.6,1.2c0,0,0.1,0.7,0.1,0.7
		C31.6,210.3,31.1,211.3,30.6,212.3z"/>
	<path id="XMLID_196_" class="st33" d="M21.2,152.9c0,2.1,0.1,4.2,1,6.3c0.9,2,0.8,4.2-0.1,6.2c-0.6,1.4-2.5,2-3.8,1.1
		c-3.3-2.2-5.7-4.8-4.9-8.9c0.6-3,1.2-6,1.8-9c0.5-0.1,1-0.1,1.5-0.2c1.6-0.5,3-0.6,3.1,1.5C19.8,151.1,20.1,152.2,21.2,152.9z"/>
	<path id="XMLID_195_" class="st0" d="M11.9,178.9c0.8,0.9,1.5,1.8,2.4,2.6c1.6,1.4,1.7,1.4-0.8,3.2c-0.7-1-1.4-1.9-2.1-2.9
		C10.5,180.7,10.5,179.7,11.9,178.9z"/>
	<path id="XMLID_194_" class="st16" d="M8.8,161.6c-0.1,0.2-0.3,0.6-0.4,0.6C7.9,162,8,161.8,8.8,161.6L8.8,161.6z"/>
	<path id="XMLID_193_" class="st0" d="M10.3,174.6c0.5,0.5,1,1,1.5,1.5C11.4,175.6,10.8,175.1,10.3,174.6z"/>
	<path id="XMLID_192_" class="st0" d="M8.7,184.9c-0.5-0.1-1-0.2-1.5-0.2c0-0.5,0-0.9,0.1-1.4C7.8,183.9,8.3,184.4,8.7,184.9z"/>
	<path id="XMLID_191_" class="st0" d="M125.3,20.9c0.5-0.6,0.9-1.1,1.4-1.7c0.7-0.9,2-1.7,1.1-3c-0.8-1.1-2.3-1-3.5-0.8
		c-5.4,1-11.1,1.3-15.9,4.2c-0.1-0.5-0.1-1-0.2-1.4c-0.6-3.3-0.4-3.6,2.4-3.3c0.8,0.1,1.5,0.3,2.3,0.3c1.3,0,2.6-0.3,3.1-1.7
		c0.4-1.2,1.1-2.1,2.2-2.9c0.6-0.4,1.1-1,1.8-1.6c0.5,0.5,1,1,1.5,1.5c0.7,0.9,1.1,2.5,2.5,2.4c1.7-0.1,1.6-1.7,1.5-2.8
		c-0.1-2.3,1.1-3.6,3.3-4.3c0.7-0.3,1.6-0.6,2.1,0.2c0.3,0.5,0.2,1.4-0.1,1.9c-0.5,1-1.8,1.7-1.5,3.1c4,0.4,8,0.6,12-0.5
		c0.9-0.2,1.8-1.1,2.2-1.8c0.5-1-0.2-1.8-1.4-2.1c-0.2-0.1-0.5-0.1-0.7-0.3c-2.4-1.7-2.1-2.7,1.3-4.1c1.3,0.5,2.6,0.9,4.2,0.4
		c1.1-0.4,2.4-0.2,3.6-0.3c0.4,0.6,0.4,1.2,0.1,1.8c-2.4,2.8-3.1,6.5-5.7,9.2c-0.9,0.9-2.2,1.3-3.2,2.1c4.9,2.1,4.9,2.1,9.7-0.4
		c0-0.8-0.5-1.5-1-2.1c-0.3-0.5-0.3-1.1-0.2-1.7c1-1.7,2.3-3,4.3-3.7c1.4-1.4,2,2.4,4.1,0.3c3.9-3.8,8.1,0,12.2,0.3h0
		c0.5,0.5,1,1,1.6,1.4v0c1,0.9,2.1,1.8,2.2,3.3c-0.1,0.7-0.4,1.2-0.9,1.7c-3.1,1.4-6.7,1.8-9.7,3.4c-0.3,0.1-0.7,0.2-1,0.3
		c-0.7-0.2-1.6-0.6-2.2-0.4c-0.8,0.3-0.6,1.1-0.2,1.7c0.9,1.7,1.9,3.3,2.9,4.9c-3.1,3.2-3.1,3.2-2.2,7.3c0.2,0.7,0.1,1.4,0.3,2.1
		c1.4,5.7,1.4,5.7-4.9,6.1c-0.3-0.6-0.4-1.4-0.8-1.7c-0.7-0.4-1.3,0.3-1.7,0.8c-0.5,0.8-0.7,1.8-0.1,2.6c0.4,0.5,1.2,0.8,1.8,1.1
		c0.8,0.5,1.6,1,2.4,1.5c-2.6-0.2-4.9,0.5-5.4,3c-1.2,6-5.6,7.8-11.3,8.3c-0.2,0-0.4,0.3-0.6,0.4c-1.2,1.1-2.3,0.9-3.3-0.1
		c-1-0.9-1.4-2.3-0.7-3.3c1.5-2.2,2.2-4.2,0.7-6.6c-0.4-0.7,0.1-1.3,0.9-1.7c0.9-0.4,1.9-0.7,2.8-1.2c0.7-0.4,0.8-1.2,0.2-1.8
		c-0.3-0.3-1.2-0.5-1.3-0.3c-2.1,2.1-5.8,2.2-7.6,4.7c-0.4,0.5-1.2,0.9-2.1,0.4c-0.9-0.6-1.6-1.4-1.2-2.4c0.7-1.8,0.8-3.1-1.3-4.2
		c-2.4-1.3-2.5-3.5-2.2-5.7c0.1-0.6,0.6-1.7,1-1.7c5.6-0.5,2.9-4.5,3.5-7c0.2-0.7-0.3-1.5-1.2-1.6C127.1,23.2,126.7,21.4,125.3,20.9
		z"/>
	<path id="XMLID_190_" class="st34" d="M169.1,274.5c1.1-1.8,1.8-3.6,1.5-5.7c-1.8-2.1-3.8-4.2-6.2-5.8l-0.2-0.2
		c-0.4-0.5-0.4-0.9,0.1-1.3c1.9-1.2,1.3-2.7,0.9-4.3c-0.5-2.1,0.5-3.1,2.7-2.8c1.4,0.2,2.8,0.9,4.2,1.3c0.2,0.3,0.4,0.5,0.6,0.8
		c1.1,2,1.5,5.2,5.1,2.3c4.4-3.9,11.9-4.8,13-11.9c-0.1-0.5,0-1-0.2-1.4c-0.8-1.8-0.5-3.2,1.5-4.2c2.9-1.4,3.1-1.4,6.5,1.4
		c4.3-0.9,8-4.2,12.9-2.8c1.8,2.7-0.2,4.8-1.3,7.1c-1.5,3-1.6,5.9,2,7.9c0.6,0.4,0.9,1,1,1.7c-0.1,1.2-1.4,1.4-2.1,2.1l0,0
		c-0.6,0.5-1.1,0.9-1.7,1.3c-3,1-6.1,2-9.1,3.1c-0.3-0.2-0.5-0.4-0.8-0.6c-1.1-2-0.5-3.8,0.7-5.5c0,0-0.4-0.3-0.4-0.3s0,0.5,0,0.6
		c-1.3,2.6-1.8,6-7.1,4.7c2.2,1.5,4,1,5.3,1.9c0.2,0.2,0.5,0.5,0.7,0.7c-6.3,4.7-13.9,6.6-21.4,8.6
		C174.6,273.7,171.8,274,169.1,274.5z"/>
	<path id="XMLID_189_" class="st35" d="M211.1,258.6c0.5-0.5,1-1,1.5-1.5c0.4-0.4,0.6-0.8,0.7-1.2c0,0,0.3-0.7,0.3-0.7
		c0.4-0.7,0.7-1.3,1.2-1.9c0.3-0.4,0.7-0.8,1.2-1c0.6-0.1,1,0,1.3,0.5c1.8,1.1,1.8,2.6,0.7,4.1c-0.9,1.3-2.2,2.5-3.8,3.1
		C213.5,258.9,212.4,258.7,211.1,258.6z"/>
	<path id="XMLID_188_" class="st2" d="M162.8,281.8c-0.5,0.5-1.1,0.9-1.6,1.4c-3.7,0.2-7.3-0.4-10.8-1.3c0.3-0.3,0.6-0.9,1-1
		C152.6,280.6,161.3,281.3,162.8,281.8z"/>
	<path id="XMLID_187_" class="st35" d="M213.9,264.2c-1.5,0.1-2.9,0.2-4.4,0.4c1.6-1.5,3.1-3,4.7-4.4c0,1,0,1.9,0,2.9
		C214.1,263.4,214,263.8,213.9,264.2z"/>
	<path id="XMLID_186_" class="st35" d="M209.4,260c0.6-0.4,1.1-0.9,1.7-1.3C210.5,259.1,209.9,259.5,209.4,260z"/>
	<path id="XMLID_185_" class="st34" d="M200.2,263.1c-0.5,0.5-1.1,0.9-1.6,1.4l-0.1-0.1c-0.3-1.2,0.2-1.7,1.6-1.4L200.2,263.1z"/>
	<path id="XMLID_184_" class="st36" d="M211.2,42.7c-0.3,0.4-0.9,0.7-0.9,1.1c0.1,1.3-0.2,2.4-1.7,2.8c-1.5,0.4-2.5-0.4-3.2-1.5
		c-0.8-1.2-1.5-2.5-2.2-3.8l0,0c-2.3-1.5-1.3-3.8-1.6-5.8c2.1-6.3-4.2-11.4-12.3-10.1c-0.4-1.5-0.6-3.1-1.2-4.6
		c-0.3-0.7-1.3-1.5-2.1-1.7c-1.5-0.4-1.1,1.1-1.6,1.8c-0.4,0.5-1,0.9-1.5,1.4c-1.8-3.1-6.3-3.4-8-6.6c1.3-3.3,3.9-4.1,7.4-3.1
		c0.7,0,1.3,0,2,0.1c1,0.1,2,0.3,3,0.7c4.1,1.1,8.6,1.2,11.4,4.7c0.3,0.7,0.7,1.3,0.8,2c0.2,1.2,0.3,2.3,2.1,2.3
		c3,0.1,5.4,1.5,7.6,3.3c2.9,2.4,6.1,4.4,9.8,5.7c1.7,0.6,3.2,1.6,4.6,2.7c3.2,2.3,6,5.1,9.6,7c2.9,1.6,3.9,5,6,7.4
		c-2,1.7-3.3-0.2-4.7-0.9c-3.1-1.4-4.5-1.1-4.5,1.8c-0.1,3.8-1.6,6.3-5.1,8.2c-2.2-0.8-0.8-3-1.8-4.2c-0.9-1.1-1.7-2.4-2.5-3.6
		c4.1-0.9,5.1-2.8,1.5-5.3C218.8,42.4,216.1,36.6,211.2,42.7z"/>
	<path id="XMLID_183_" class="st37" d="M198.6,18.1c-1.2-0.3-2.4-0.5-3.5-1c-2.2-1-4.3-2-7-1.1c-1.5,0.5-1.7-1.2-1.9-2.3
		c-1-0.9-2.1-0.9-3.1,0h0c-2.9-1.8-6.2-1.3-9.3-1.4c-1.3-0.6-1.5-1.7-1.6-2.9c1.8,0,3.2-0.8,4.4-1.9c1-0.9,2.3-1.6,3.4-2.4
		c1,0,2,0,3.1,0c1.1,1.7,3,1.4,4.7,1.4c0.7,1.2,1.8,1.4,3.1,1.5c0.5,0.5,1.1,0.9,1.6,1.4c1.1,1.7,2.9,1.4,4.7,1.5
		c0.5,0.5,1,1,1.5,1.5C198.6,14.3,198.6,16.2,198.6,18.1z"/>
	<path id="XMLID_182_" class="st36" d="M249.9,55.9c0,0.7,0.1,1.5-0.1,2.1c-0.7,2-2.8,2.7-3.8,1.1c-1.1-1.6-2.1-2.9-4.1-3.9
		c-2-1-1.1-3.4-1.3-5.2c2,1.5,3.4,3.9,6.6,3.8C248.1,53.8,249,55.1,249.9,55.9z"/>
	<path id="XMLID_181_" class="st1" d="M254.6,170.3c-0.6-4.9,0.4-9.4,3.3-13.5c1.4-2,1.4-2,4.7-0.7c1.1,0.4,1.9,0,2.9-0.3
		c1.4,0.1,3,2.7,4.2-0.4c0.4-0.9,1.4-0.4,1.6,0.2c0.6,1.4,0.6,2.8-0.6,4c-0.9,0.9-2,1.5-2.8,2.4c-1.3,1.5-0.6,2.7,2.3,3.9
		c1.8-0.9,2.2,0.7,3.1,1.4c0,0.5,0,1,0,1.4c-0.9,0.2-1.8,1.2-2.8,0.3c-2.3-2-1.6,0.3-1.9,1.1c-2.7,0.7-3.8-1.4-5.4-2.6
		c-1.6-1.4-2.8-6.3-5.2-0.4C257.4,168.6,257.3,170.7,254.6,170.3z"/>
	<path id="XMLID_180_" class="st14" d="M273.3,167.4c-1-0.5-2.1-1-3.1-1.4c0.1-1.9,1.1-2.9,3.2-2.9
		C273.3,164.5,273.3,165.9,273.3,167.4z"/>
	<path id="XMLID_179_" class="st1" d="M265.5,154.3c-0.5-0.5-1-1-1.5-1.4c0.5-0.4,1-0.5,1.6,0l0,0
		C265.5,153.3,265.5,153.8,265.5,154.3z"/>
	<path id="XMLID_178_" class="st15" d="M264,177.5c0.8,4-1.6,7.7-1.6,11.6c-2.8,3.6-6,7.1-6.5,11.8c0,0.5-0.4,0.9-0.6,1.3
		c-2.8,5.3-5.6,10.6-8.4,15.9c-2.7-3.6-1-8-2.7-11.8c0-0.7,0.2-1.3,0.4-1.9c1.1-2.7,4-4.4,4.4-7.5c0.2-0.6,0.5-1.2,0.9-1.8
		c1.1-1.3,2.5-2.3,3.8-3.3c1.6-5,1.8-10.6,7.5-13.6C262.1,177.7,262.9,177.1,264,177.5z"/>
	<path id="XMLID_177_" class="st38" d="M245.3,205c0.1,0.5,0,1,0.2,1.4c1.9,3,2.3,6.2,1.4,9.5c-0.2,0.7,0,1.4,0,2.1
		c-0.4,3.6-3.4,5.4-6.2,7.2c-0.5,0.5-1.1,0.9-1.6,1.4l0,0c-0.7,0.6-1.3,0.6-2,0c-0.5-0.6-0.8-1.2-1-1.9c-0.5-2.5,0.1-4.7,1.8-6.6
		c2.3-2.5,3.2-5.2,2.5-8.5C239.6,206.3,241.1,204.4,245.3,205z"/>
	<path id="XMLID_176_" class="st15" d="M237.5,232.6c-0.5,0-1,0-1.5,0c-1.5-1.6-1.5-3.2,0.4-4.5c0.4,0.1,0.8,0.1,1.1,0.2
		C237.5,229.7,237.5,231.1,237.5,232.6z"/>
	<path id="XMLID_175_" class="st15" d="M267.1,189.1c-0.5,0-1,0.1-1.4,0.2c0.4-0.5,0.9-1.1,1.3-1.6C267,188.1,267,188.6,267.1,189.1
		z"/>
	<path id="XMLID_174_" class="st15" d="M239.1,226.8c0.5-0.5,1.1-1,1.6-1.4C240.1,225.8,239.6,226.3,239.1,226.8z"/>
	<path id="XMLID_173_" class="st15" d="M237.5,226.8c0.5,0,1,0,1.6,0c-0.5,0.5-1,1-1.5,1.5l0,0c-0.3-0.3-0.4-0.6-0.3-1
		C237.3,226.9,237.4,226.8,237.5,226.8z"/>
	<path id="XMLID_172_" class="st39" d="M237.5,226.8c0,0.5,0,1,0,1.4c-1.8,1.1-1.5,2.8-1.5,4.4c-0.2,0.7-0.2,1.7-0.7,2
		c-4,2.4-6.2,6.1-8.7,9.6c-0.5,0.5-1,1-1.6,1.4c-0.6,0.4-1,1-1.5,1.5v0c-2.5,1.4-3.6,0.1-4.2-1.9c-0.5-1.8-0.7-3.6-1.9-5.1
		c-0.4-0.5-0.7-1.1-1-1.7c-0.2-0.6-0.3-1.2-0.3-1.9c0.1-0.6,0.2-1.2,0.4-1.8c0.5-1.5,0.4-2.9-0.1-4.4c-0.1-0.3-0.1-0.6-0.2-0.9
		c0-0.6,0-1.2,0.1-1.8c-0.1-2.9,2.2-4.3,4.4-5.8c0.6-0.2,1.2-0.3,1.9-0.2c0.3,0.1,0.6,0.2,0.9,0.3c0.9,0.7,1.6-0.3,2.4-0.4
		c0.7-0.1,1.3-0.2,2-0.1c2.6,0.7,2.6,2.3,2.4,4.5c-0.1,1.2,0.9-0.2,1.3-0.4c2-1,3.9-1.3,5.9-0.2
		C237.5,225.8,237.5,226.3,237.5,226.8z"/>
	<path id="XMLID_171_" class="st11" d="M217.3,238.3c2.7,1.3,4.5,2.9,3.4,6.2c-0.6,1.8,1.2,2.3,2.8,2.5c-2.1,1.9-4.2,3.9-6.2,5.8
		c-0.5,0-1,0.1-1.5,0C214.1,247.8,210,242.6,217.3,238.3z"/>
	<path id="XMLID_170_" class="st11" d="M226.5,252.8c-0.5,0-1,0-1.5,0c0.1-1.2,0.3-2.3,1.7-2.8C226.6,250.9,226.6,251.8,226.5,252.8
		z"/>
	<path id="XMLID_169_" class="st11" d="M223.5,247c0.5-0.5,1-1,1.5-1.5C224.5,246.1,224,246.6,223.5,247z"/>
	<path id="XMLID_168_" class="st11" d="M228.1,248.5c0,0.5,0,1,0,1.5c-0.5,0-1,0.1-1.5,0.1C227.1,249.5,227.6,249,228.1,248.5z"/>
	<path id="XMLID_167_" class="st11" d="M225,254.2c-0.5,0-1,0.1-1.5,0.1c0.5-0.5,1-1,1.5-1.5C225,253.3,225,253.8,225,254.2z"/>
	<path id="XMLID_166_" class="st37" d="M170.6,8c-1.6,0.6-3.2,1.9-4.9,0.4c-1.6-1.5-3.3-0.5-5-0.4c-1.6,0.1-2.2,2.5-3.8,1.6
		c-1.1-0.6-2-1.4-3.4-1.5c0,0-0.6-0.4-0.6-0.3c-0.3-0.3-0.6-0.7-0.9-1.1c-0.3-0.4-0.5-0.7-0.8-1.1c-0.3-0.4-0.5-0.7-0.7-1.2
		c0,0-0.1-0.7-0.1-0.7c0-0.5,0-1,0-1.5c1.2,0.3,2.6,0.4,3.6,1c3.8,2.3,7.2,1.3,10.4-1c0.5,0,1,0,1.5,0c0,1.7,0.8,3.1,2.4,4
		C169.2,6.7,169.9,7.4,170.6,8z"/>
	<path id="XMLID_165_" class="st37" d="M172.2,9.4c-0.5-0.5-1-1-1.6-1.4C171.1,8.5,171.6,9,172.2,9.4z"/>
	<path id="XMLID_164_" class="st25" d="M264,177.5c-2.6,1.8-2.9,5.4-6.6,6.5c-1.7,0.5-1.7,3-0.3,4.3c1.9,1.8,1,2.8-0.5,4
		c-0.6,0.5-1.3,0.8-1.9,1.1c-0.8-0.6-1.3-1.5-1.6-2.4c-0.4-1.3-0.8-2.5-1.2-3.8c-0.3-1-0.5-2-0.5-3.1c-0.2-3.6,2.3-6.1,4-8.9
		c2.6-2.6,5.2-5.2,9.5-4.7c3,1.1,4.1,2.8,2.2,5.5C266,176.5,265,177,264,177.5z"/>
	<path id="XMLID_163_" class="st7" d="M267.1,176c-0.2-3.5-0.2-3.5-3.2-4.4c-1.1-1.5-1.3-2.9,0.1-4.3c2.4-0.3,3,2.1,4.6,2.9
		c0,1.2,0.3,2.3,1.5,2.9c0,1.4,0,2.9-0.1,4.3C269.1,177,268.1,176.5,267.1,176z"/>
	<path id="XMLID_162_" class="st24" d="M142.6,176.1c-0.7-1.5-1.3-3.1-2.1-4.6c-0.4-0.8-2.3-0.9-2.6-0.1c-1.2,2.7-3.6,4.7-3.5,8.3
		c0.1,2.7-1.1,5.5-0.5,8.3c0.1,0.7,0.6,2.1-1,2c-0.4,0-0.8-1.1-1.2-1.6c-0.2-0.3-0.6-0.5-0.9-0.7c-1,2.5-2.2,1.1-3.8,0.5
		c-1.3-0.5-3-0.3-4.6-0.4h0c-0.1-1.8,1.2-3,2-4.5c-1.9-2.3-0.3-3.7,1.3-5.3c0.5-0.5,1-1.5,0.8-1.8c-0.9-1.3-1.7,0.2-2.5,0.3
		c-0.9,0.1-1.6-0.2-1.4-1c0.9-5.6,2-11.1,3-16.7c0.3-0.2,0.6-0.4,0.9-0.6c5.1,0.1,4.7,3.5,4.6,6.6c-0.1,2-2.5,3.8-0.7,6.4
		c3.6-1.7,2.3-5.7,4.5-7.9c0.4-0.5,0.9-1,1.5-1.5c2.4-1.5,2.6-4.9,5.2-6.1c4.9-2.3-0.5-3.6,0.5-5.6c-3.1,0.8-3.6,2.5-3.8,4.1
		c-0.2,2.8-0.8,5.5-4.2,5.9c-3,0.3-4.2-2.2-5.6-4.2c-1.9-2.8-2.1-5.2,0.7-7.7c2-1.8,4.9-2.9,5-6.1c0.1-1.4,1.1-2.6,1.2-4.1
		c-0.1-0.5-0.1-1-0.3-1.5c-0.3-0.7-0.6-1.5-0.8-2.2c-0.1-0.2-0.1-0.5-0.2-0.8c0-0.6,0.1-1.1,0.4-1.6c0.1-0.5-0.1-0.9-0.5-1.3
		c0,0-0.6,0.4-0.6,0.4s0.6,0.4,0.6,0.5c-0.1,0.5-0.3,1-0.8,1.3c-2.3,1-3.4-0.4-4.5-1.9c0.5-0.9,0.9-1.7,1.4-2.6
		c1.6-2.6,1.6-2.5,4.9-2c5.6,1,6.4,1.7,6.1,7.1c-0.1,2.4-0.7,4.4,2.8,5.4c2.2,0.7,3.7,2.8,3.5,5.2c-0.3,3.6,1.7,5.2,5.2,6
		c1.5,0.3,2.7,1.5,3.3,2.9c0.2,0.6-0.2,1.4-0.5,2c-0.3,0.7-0.9,0.6-1.7,0.5c-3-0.4-3-0.3-4.6,2.8c-1,4.8-1.3,9.2,6.2,8.7
		c0.5,0,1,0,1.6,0c2,1.4,2.4,3.7,3.4,5.6c1.4,2.9-0.3,5.5-3.2,4.9c-4.9-0.9-8.2,2.7-9.5,4.6c-3.9,5.5-5.4,2-7.7-0.6c0-1,0-1.9,0-2.9
		C140.3,177.8,141.3,176.8,142.6,176.1z"/>
	<path id="XMLID_161_" class="st11" d="M183,99.3c-1,0.5-2.1,1-3.1,1.4c0-0.5,0-1,0-1.4c0.6-3.6,0.6-3.6-3.2-4.6
		c-1.3-0.3-2.7-1.1-2.5-2.4c0.2-1.7-0.7-4,2.1-4.8c1.1-0.3,1.8-1.2,1.3-2.1c-0.4-0.8-1.4-1.6-2.3-1.7c-1.2-0.1-2.5,0.3-3.7,0.6
		c-1.8,0.4-3.6,0.9-5.1-0.4c-0.9-0.8-1.5-1-2.5-0.1c-1.3,1.2-2.7,2.3-4.7,1.8c-1.2-0.3-0.5-2.8,1.4-5.1c0.9-1.1,2-2.3,3.6-2.6
		c1-0.2,2.2-0.4,2.3,1c0.2,1.3,0.7,2.3,2.1,2.7c1.3,0.4,2.5,0,3.7-0.5c0.7-0.3,1.4-0.6,2.1-0.9c2.6-1,4.3-2.6,3.9-5.5
		c-0.4-3.3,0.7-6.1,3.4-8.4c0.9-0.8,1.1-2.1,1.7-3.2c0.2-0.3,0.8-0.6,1.2-0.6c0.4,0,1,0.4,1.1,0.8c0.5,1.3,0.8,2.8,1.4,4.1
		c0.3,0.7,1.2,0.7,1.9,0.2c0.2-0.2,0.4-0.4,0.4-0.6c0.2-3.7,2.1-5.6,6.2-5.5c1,0,2-0.8,2-1.9c0.1-1.2,0.3-2.3,1.2-3.3
		c0.7-0.7,1.3-1.5,1.9-2.3c2.5,0.6,3.7,2.5,5.3,4c2.7,2.6,2.1,5.8,1.1,8.8c-0.2,0.7-1.4,1.4-2.2,1.8c-1.3,0.6-2.5,0-3.3-1.1
		c-0.5,0.6-1.1,1.1-1.3,1.7c-1.8,4.7-1.8,4.7-5.5,0.8c-0.8-0.9-1.8-1-2.8-0.5c-0.8,0.3-0.8,1.2-0.7,1.9c0.4,2.1,0.9,4.2,1.3,6.4
		c1.9,0.3,4,0.1,5.8,1.3h0c0.8,2.6-0.8,3.7-3.1,4.3c-2,0.1-3.1,1-3.1,2.9c-1.6,3.8-0.9,6.3,3.4,8.8c5.4,3,5.3,5.9,1.1,7.8
		c-0.4,0.4-0.6,0.8-0.5,1.3c0,0.5-0.1,1.1-0.3,1.6c-0.3,1.1-0.7,2.1-1.3,3.1c-0.6,0.7-1.3,1.3-2.3,0.6c-0.7-0.2-1.3-0.5-2-0.7
		c0.4-0.9,1.4-1.5-0.6-2.5c-3.2-1.6-3-2-1.5-5.5c0.9-2,0.8-2.3-1.5-3C185.1,97.4,183.2,96.4,183,99.3z"/>
	<path id="XMLID_160_" class="st24" d="M246.8,71.7c0.5,0.5,1,1,1.6,1.5h0c-3.1,2.9-7.5,0.5-11.6,2.6c5.6,1.1,5.7,5,5.6,9.3
		c3.1-0.3,5.4-2.2,8.1-2.2c4.4,4.1,7.4,8.9,7.1,15c-2.4-0.2-2.9,2.1-4.6,2.9c-0.1-0.5,0-1.1-0.2-1.4c-1.2-1.8,0.6-3.9-0.7-5.5
		c-1.7-2.1-3.8,0-5.8-0.3c-2.7-0.5-4.8-2.7-8-2c-0.5,0.1-1.5-1.1-2.2-1.8c-1.5-1.6-1-4.2-3.2-5.5c-1.9-1.1-3.9-2.2-5.8-3.2
		c-0.4-1.5,0.7-2.3,1.4-3.2c0.9-1.1,2.3-2.2,2.7-3.4c0.4-1.5-2.1-1.7-2.6-3.1c-0.3-0.9,0.4-1.8,1.6-1.8c0.9,0.1,1.8,0.9,2.8,0.1
		c1.1-4.2-2.9-7-3.5-10.7l0,0c1.1-0.9,2.2-1.9,3.3-2.8C236,62.4,240,68.1,246.8,71.7z"/>
	<path id="XMLID_159_" class="st3" d="M139.5,181.8c0.6,0.4,1.3,0.7,1.9,1.1c0.8,0.5,1.5,1.6,2.6,1.2c1.3-0.5,0.3-1.6,0.3-2.4
		c0-1.7,0.7-2.8,2.8-2.1c1.3,0.4,2.5,0.5,3.1-1c0.5-1.3,1.1-2.6,1.9-3.9c0.7-1.2,1.8-1,2.8,0.3c0.1,0.2,0.2,0.4,0.3,0.7
		c0.4,1.1,1.1,1.5,2.3,1.1c1.2-0.4,2.1-2.1,1.2-2.9c-2.2-1.9-2.2-4.2-2.1-6.6v0c0.6-0.4,0.6-1.4,1.6-1.4c0.5,0,1,0,1.6,0
		c0.5,0.5,1,1,1.6,1.4l0,0c0.5,1.9-1.3,4.4,2.2,5.3c1,0.3,1.1,1.7,0.4,2.5c-2.5,2.8-2.9,6-2.6,9.4c-1.8,0.4-1.4-1-1.9-1.6
		c-0.4-0.5-1.1-1.5-1.5-1.4c-1.5,0.4-0.5,1.4-0.4,2.2c0.2,1.7-0.6,2.4-2,1.9c-1.9-0.7-3.7-1.6-5.3-3.1c-0.4,3.3-0.3,4.5,1.1,8.5
		c0.4,1.1,0.1,1.9-0.6,2.6c-0.9,0.8-2.3,1.4-2.8,2.4c-3.3,5.6-5.2,4.4-6.8-0.4c-0.3-0.9-0.7-1.8-1.3-2.6c-1.2-1.4-1-2.5,0.2-3.8
		c1.9-2.1,0.5-4-0.4-6C139.5,182.8,139.5,182.3,139.5,181.8z"/>
	<path id="XMLID_158_" class="st0" d="M175.3,23.8c-0.1,1.9,0.1,3.6,2.3,4.9c4.4,2.7,4.2,2.8,2.5,7.3c-0.6,1.6-1.5,2.4-3.2,2.5
		c0.5-1.1,1.1-2.2,1.3-3.3c0.2-1-0.3-1.9-1.4-2.3c-0.7-0.3-1.4-0.4-2.1-0.4c-0.1,0-0.5,0.9-0.4,1.2c1,1.7,0.5,3.2-0.6,4.7
		c-1,1.3-2.2,2.4-2.6,4.2c-0.4,1.7-2.6,2.2-4.4,2.4c-0.8,0.1-1.7-0.9-1.2-1.4c2.5-2.6,2.3-4.9,0.1-7.6c-1.3-1.6-1.2-7-0.2-9.5
		c0.5-1.3,1.2-2.6,1.7-3.8c-1.3-1.9-3.7-2.4-4.4-4.4l0.1-0.1C168.6,17,172.8,18.8,175.3,23.8z"/>
	<path id="XMLID_157_" class="st24" d="M148.5,127.5c0.4,0.2,1.2,0.4,1.2,0.6c0.3,4.5,3.7,7.1,6.8,10.1c1.1,1.1,2,1.2,3.3,0.3
		c0.7-0.6,1.4-0.1,1.8,0.6c1.8,3.3,1.4,7,2.5,10.4c0.2,0.6-0.5,1.2-1.3,1.6c-1.4,0.7-1.6,0-1.9-1.1c-0.2-0.5-1-1.2-1.6-1.3
		c-1.9-0.2-3.6-0.5-3.5-2.8c0-0.2-0.2-0.5-0.4-0.6c-1.7-0.8-4.1-0.2-5-2.7c-0.6-1.5-2-2.8-2.8-4.3c-1.8-3.3-2.8-6.7-0.1-10.1
		C147.7,128,148.1,127.8,148.5,127.5z"/>
	<path id="XMLID_156_" class="st33" d="M189.4,25.5c0.6-0.8,1.2-1.6,1.8-2.3c2.2-2.4,3.5-2.5,5.4,0.1c1.4,1.9,3,3.2,5.1,4.2
		c1.1,0.6,2.3,1.2,3,2.1c1.1,1.3,2.2,2.9,1.2,4.6c-0.8,1.5-2.7,1.1-4.2,1.3c-6.7-2.7-6.7-2.7-11-7.3c-0.4-0.6-1-1-1.4-1.7
		C189.4,26.3,189.4,25.9,189.4,25.5z"/>
	<path id="XMLID_155_" class="st40" d="M211.2,42.7c0-1.8-1-4.1,1.3-5.2c2.6-1.3,4.2,0.6,6,2c3.7,2.7,7.4,5.3,9,9.6
		c0.5,1.3-0.5,2.5-2,2.3c-0.8-0.1-1.5-0.4-2.2-0.6c-1-0.3-2-0.5-3-0.8c-0.9-0.8-1.6-2.1-2.6-2.3C214.5,47.2,213.1,44.8,211.2,42.7z"
		/>
	<path id="XMLID_154_" class="st11" d="M184.6,47.1c-0.6,1.1-1,2.2-1.8,3.2c-1.9,2.4-3.2,4.6-2.4,7.9c0.4,1.4,0.1,3.7-1.5,5.2
		c-3.5-0.9-0.9-3.7-2-5.4c-1.8-0.2-2.5,2.7-4.7,1.3c-1.9-1.2-1.9-2.8-2.2-4.8c-0.5-3.1,2.9-5.1,1.8-8.1c0,0,0.8-0.5,1.3-0.5
		c0.5,0,1,0.3,1.3,0.6c1.1,1.2-0.5,2.7,0.7,4.1c1.3,1.6,2.9,1.8,4.5,0.6c2-1.5,1.3-4.2,3.5-5.5C184,45.8,184.1,46.6,184.6,47.1z"/>
	<path id="XMLID_153_" class="st41" d="M175.3,23.8c-3.8-2.5-7.8-4.6-12.4-5.7c0.1-1.2,0.5-2.3,1.9-2.7c2.9-1,5.7-1.8,8.8-1.3
		c0.7,0.2,1.2,0.7,1.5,1.3c1.3,1.8,3.6,1.6,5.4,2.4c2.3,1.1,2.7,2.6,2.3,4.7C180.3,22.8,178,24.3,175.3,23.8z"/>
	<path id="XMLID_152_" class="st42" d="M246.8,71.7c-1-0.1-2.3,0.2-3-0.2c-5.8-3.8-11.7-7.7-10.8-15.6c2.5-0.2,4.4,0.5,5.9,2.6
		C242,62.7,244.6,67.1,246.8,71.7z"/>
	<path id="XMLID_151_" class="st43" d="M257.6,97.8c-2.5-4.8-5.1-9.7-7.6-14.5c-0.4-0.3-0.5-0.6-0.4-0.9c0.1-0.3,0.2-0.5,0.3-0.5
		c0.2-1.3,0.6-2.3,2.4-1.8c1.2,0.3,2.5,0.3,3.8,0.5c0.1,1.6-0.1,3.2,1.7,4.3l0,0c1,2.9,2.9,5.5,3.1,8.7c-0.2,2,0.8,4.4-1.6,5.9
		C258.7,98.8,258.2,98.3,257.6,97.8z"/>
	<path id="XMLID_150_" class="st0" d="M158.4,44.3c1.3,0.8,2.1,3.2,4.8,2.1c0.7-0.3,1.4,0.3,1.7,1c0.3,0.8-0.2,1.4-0.7,1.9
		c-1.1,1-2.1,2.2-3.4,2.9c-1.7,1-2.6,2.1-2,4.1c0.1,0.4-0.1,0.9-0.3,1.4c-0.6,1.6-1.9,2.4-3.4,2.2c-1.6-0.3-2.5-1.4-2.1-3.1
		c0.5-2.3,0.5-4.7,2.4-6.7C157.1,48.5,156.5,45.9,158.4,44.3z"/>
	<path id="XMLID_149_" class="st3" d="M128.6,131.1c1.6,0.4,3.1,2.3,4.7,0c1.3-0.3,2.2-0.1,1.6,1.4c0,0.5,0,1,0,1.5
		c1.3,0.6,1.5,1.7,1.6,2.9c1.7,2.2,1.6,2.4-1.6,4.3c-3.4-2.6-6.6,1.5-9.9,0.4c-2.4-2.2-7.5-2.7-5.6-7.6l0,0c2.1-1.2,4.1,2.1,6.2,0
		C127.5,134,128.5,133,128.6,131.1z"/>
	<path id="XMLID_148_" class="st0" d="M184.6,47.1c-0.5-0.5-1-1-1.6-1.5c-2.2-4.2-0.2-8.4,0.3-12.6c0.1-0.7,0.8-1.3,1.6-1.3
		c0.5,0,1,0.3,1.4,0.6c1.8,1.4,1.4,4.2,3.7,5.4c0.2,0.1,0.1,1.2-0.1,1.3C186.1,40.6,186.8,44.7,184.6,47.1z"/>
	<path id="XMLID_147_" class="st36" d="M155,167.4c-0.1,0.5-0.1,1.2-0.4,1.3c-2.2,1.2-4.2,0-6.3-0.4c0-2.3-2.6-2.7-3.5-4.3
		c-0.5-1-0.3-1.9,0.5-2.6c1.1-1,2.3-1.8,3.4-2.7c0.5,0,1,0,1.6,0c0.5,0.5,1,1,1.6,1.4l0,0c1.6,1.1,0,3.2,1.6,4.3l0,0
		C154.4,165.2,154.1,166.6,155,167.4L155,167.4z"/>
	<path id="XMLID_146_" class="st0" d="M100.6,70.3c2,1.1,4.6,1.5,4.7,4.3C102.3,74.5,100.7,73.1,100.6,70.3z"/>
	<path id="XMLID_145_" class="st3" d="M162.8,163c1.4-1.6,3.2,0.3,4.8-0.4c0.5-0.2,0.9,0.2,0.7,0.8c-0.1,0.2-0.3,0.5-0.5,0.5
		c-1.7,0.2-3.4,0.3-5,0.5C162.8,164,162.8,163.5,162.8,163z"/>
	<path id="XMLID_144_" class="st24" d="M125.5,134c-2.1,2.7-4.2,0.7-6.2,0c0-0.5,0-1,0-1.5C121.3,133.1,123.4,133.6,125.5,134z"/>
	<path id="XMLID_143_" class="st24" d="M153.5,164.5c-1.8-1-1.5-2.8-1.6-4.3c1.7,0.1,2.6,0.7,1.9,2.4
		C153.5,163.1,153.6,163.8,153.5,164.5z"/>
	<path id="XMLID_142_" class="st24" d="M161.3,151.4c0,0.5,0,1,0,1.4c-0.8-0.1-1.9,0-1.9-0.7C159.3,151.4,160.5,151.5,161.3,151.4z"
		/>
	<path id="XMLID_141_" class="st24" d="M155,167.4c-1.3-0.6-1.5-1.7-1.6-2.9C154.7,165.1,155,166.2,155,167.4z"/>
	<path id="XMLID_140_" class="st24" d="M158.1,165.9c-0.5,0.5-1,1-1.6,1.4c0-1.2,0.3-2.3,1.6-2.9
		C158.1,164.9,158.1,165.4,158.1,165.9z"/>
	<path id="XMLID_139_" class="st0" d="M165.5,40.1c-0.2,0.1-0.5,0.2-0.6,0.1c-0.1-0.2-0.2-0.4-0.2-0.6c0.2,0,0.5-0.2,0.6-0.1
		C165.4,39.7,165.5,39.9,165.5,40.1z"/>
	<path id="XMLID_138_" class="st0" d="M103.7,60.2c0,1.2-0.3,2.3-1.6,2.9C102.2,61.9,102.4,60.8,103.7,60.2z"/>
	<path id="XMLID_137_" class="st24" d="M233.4,93c0.2,0.1,0.6,0.3,0.6,0.3c-0.1,0.4-0.2,0.9-0.5,1.2c-0.6,0.6-0.8,0.5-0.6-0.3
		C233,93.8,233.2,93.4,233.4,93z"/>
	<path id="XMLID_136_" class="st24" d="M231.2,107.9c1.1-1.4,2.1-1.4,3.2,0l-0.1,0.1C233.3,108.8,232.3,108.8,231.2,107.9
		L231.2,107.9z"/>
	<polygon id="XMLID_135_" class="st0" points="176.8,38.4 176.5,39 176.2,38.8 	"/>
	<polygon id="XMLID_134_" class="st0" points="156.6,39.9 156.2,40.5 155.9,40.2 	"/>
	<path id="XMLID_133_" class="st24" d="M151.9,160.1c-0.5-0.5-1-1-1.6-1.4C150.9,159.1,151.4,159.6,151.9,160.1z"/>
	<polygon id="XMLID_132_" class="st24" points="158.1,164.5 158.5,163.9 158.8,164.1 	"/>
	<path id="XMLID_131_" class="st36" d="M189.4,26.6c0.5,0.6,0.9,1.1,1.4,1.7C190.3,27.7,189.8,27.2,189.4,26.6z"/>
	<path id="XMLID_130_" class="st24" d="M161.3,167.4c-0.5-0.5-1-1-1.6-1.4C160.2,166.4,160.7,166.9,161.3,167.4z"/>
	<path id="XMLID_129_" class="st0" d="M111.5,57.3c-0.5,0.5-1,1-1.6,1.4C110.4,58.2,110.9,57.7,111.5,57.3z"/>
	<path id="XMLID_128_" class="st36" d="M229.7,58.7c-0.2-0.1-0.6-0.3-0.6-0.3C229.2,57.9,229.5,58,229.7,58.7L229.7,58.7z"/>
	<path id="XMLID_127_" class="st24" d="M232.8,94.9c-0.5,0.5-1,1-1.6,1.4C231.8,95.9,232.3,95.4,232.8,94.9z"/>
	<polygon id="XMLID_126_" class="st24" points="253.1,100.7 252.7,101.3 252.4,101.1 	"/>
	<path id="XMLID_125_" class="st3" d="M125.5,103.6c-0.2-0.1-0.6-0.3-0.6-0.3C125,102.8,125.2,102.9,125.5,103.6L125.5,103.6z"/>
	<path id="XMLID_124_" class="st1" d="M242.2,109.4c0,0.5,0,1,0,1.4C241.1,110.4,241.1,109.9,242.2,109.4z"/>
	<path id="XMLID_123_" class="st24" d="M239.1,112.3c-0.2-0.1-0.6-0.3-0.6-0.3C238.6,111.5,238.8,111.6,239.1,112.3L239.1,112.3z"/>
	<path id="XMLID_122_" class="st24" d="M165.9,144.2c-0.1,0.2-0.3,0.6-0.3,0.6C165.1,144.6,165.2,144.4,165.9,144.2L165.9,144.2z"/>
	<path id="XMLID_121_" class="st24" d="M119.2,134c0.1,1.2,0.5,2.2,1.7,2.9c1.9,1.1,3.6,2.4,4.6,4.4c2.3,3.2-0.7,5.7-1.5,8.4
		c-1.4,1.4-1.3,2.6,0.7,3.5c1,1.7,1.9,3.5,0.8,5.5l0,0c-2.4,0.7-2.9,3.2-4.7,4.5c-0.2,0.2-0.2,0.9,0,1.2c1.3,1.6,0.2,2.2-1.2,2.4
		c-1.2,0.2-1.9-0.8-1.7-1.8c0.5-2.8-2.2-5.4-0.7-8.4c0.6-1.2-1-1.2-1.6-1.7c-1.5-1.2-0.8-2.5,0.6-3.4h0c0.1-1.3,0.6-2.3,1.7-3
		c0.6-0.4,1.3-1.3,0.4-1.7c-0.8-0.4-2-0.1-3,0.1c-0.3,0.1-0.6,0.7-0.8,1.1c-0.7,2.3-3,3-4.4,4.5c-0.7-0.5-1-0.7-1-0.8
		c0.7-3,0.8-5.6-2.6-7.3c-0.9-0.4-1.1-2.1,0-2.4C111.5,140.2,114.4,135.8,119.2,134z"/>
	<path id="XMLID_120_" class="st30" d="M75.7,228.2c-0.7,0.3-1.4,0.6-2.1,0.9c-0.8,0.2-1.8,0-1.6-0.8c0.6-2.2,0.9-4.7,3.6-5.9
		c2-0.9,3.9-2.2,5.8-3.4c1.6-1,1.5-2.2-0.2-3.3c-2-1.3-3.9-2.6-6.2-4.1c2.2-0.9,3.8-1.5,5.4-2.2c1.1,1.7,0.2,4.5,3.8,4.9
		c2.2,0.2,4.1,1.8,4.1,4.4c0,1.9,2.2,2.4,3,3.8c-3,0.1-4.5,1.6-4.7,4.3h0c-2.2,0-3.8,1-4.7,2.9h0c-0.5-0.5-1-1-1.6-1.5
		C78.8,226.8,77.2,226.8,75.7,228.2z"/>
	<path id="XMLID_119_" class="st24" d="M122.4,187.6c0.2,0.4,0.4,0.9,0.7,1.3c2.5,5.1,2.4,5.2-3.8,5.9c-2.3-2-2.3-5.6-5.7-7.1
		c-0.9-0.4-0.9-2.6-1.3-3.9c-0.7-2.2,4.3-2.9,1.6-6.1c-1.3-1.5,1.2-3.9,2.2-5.7c0.4-0.6,0.9-1.3,1.8-1c0.6,0.2,1.2,0.8,1.6,1.3
		c1.2,1.7,1.9,3.6,0.2,5.3c-3.2,3.3-3.2,6.7-1.1,10.5C119.8,188,121.1,187.8,122.4,187.6L122.4,187.6z"/>
	<path id="XMLID_118_" class="st16" d="M88.2,181.1c2.9,0.9,3.2,2.5,3.8,3.7c0.8,1.6,1.9,2,3.6,1.9c0.9-0.1,1.3,0.8,1,1.5
		c-1.6,3.4-6.9,1.6-8.5,5.2c-0.2-0.1-0.5-0.2-0.7-0.3c-4-2.5-5.8,0.2-8.1,2.6c-1.3,1.4,0.1,2.1,0,3c-0.1,0.5-0.9,1.1-1.6,1.2
		c-0.8,0.2-1.4-0.2-1.7-1c-1.5-3.6,1.8-6.2,2.5-9.3c0-0.2,1-0.3,1.3-0.2c1.6,0.7,2.9,0.6,3.9-1C85.1,186.1,88.5,184.8,88.2,181.1z"
		/>
	<path id="XMLID_117_" class="st0" d="M83.5,80.4c0.5,0,1,0,1.6,0c2.4,3.7-0.1,6.7-1.6,9.9c-0.2,0.3-0.9,0.8-1.1,0.7
		c-2.7-0.9-6.2-1.1-6.6-4.8c1.8,0.8,3.3,1,4.5-1C81.1,83.6,82.3,82,83.5,80.4z"/>
	<path id="XMLID_116_" class="st15" d="M117.7,118.1c0.6-0.3,1.3-1,1.9-1c1.2,0.1,2.4,0.7,3.7,1c1.3,0.3,2.7,0.7,2.8,2.1
		c0.1,1.3-1.1,2.1-2.1,2.8c-0.9,0.6-1.9,0.7-2.7-0.2C119.9,121.3,119.6,119.2,117.7,118.1L117.7,118.1z"/>
	<path id="XMLID_115_" class="st24" d="M101.6,186.8c0.6-1.7,1.9-2.9,3.7-3.3c1-0.2,2.1-0.2,2,1.3c-0.1,1.6-0.2,3.2-0.3,5.2
		C105.1,188.9,103.3,187.9,101.6,186.8z"/>
	<path id="XMLID_114_" class="st24" d="M105.9,177.9c-0.2,1.4-0.6,2.6-1.7,3.3c-0.5,0.3-1.4,0.3-2.1,0.1c-0.6-0.1-0.6-0.7-0.4-1.2
		c0.3-0.9,0.5-1.9,0.8-2.8c0.3-0.7,1.2-1,1.9-0.7C105,177,105.5,177.6,105.9,177.9z"/>
	<path id="XMLID_113_" class="st15" d="M116.7,128.6c-0.1,0.2-0.2,0.5-0.4,0.5c-0.5,0-1.1,0.1-1.3-0.1c-2-1.7-2.4-3.5-1.2-5.5
		c0.1-0.2,0.4-0.3,0.6-0.3c0.2,0,0.6,0.1,0.7,0.2C115.6,125,116.1,126.8,116.7,128.6z"/>
	<path id="XMLID_112_" class="st24" d="M114.4,192.8c-0.3,0.4-0.6,1.1-1.1,1.4c-0.9,0.5-2.6-0.6-2.7-1.8c-0.1-0.8,0.4-1.3,1.2-1.6
		C113,190.5,114.2,191.3,114.4,192.8z"/>
	<path id="XMLID_111_" class="st0" d="M75.7,113.8c0.2-1.8-0.4-3.9,2.1-4.8c0.1,0,0.5,0.2,0.6,0.4C79.2,111.7,77.5,112.8,75.7,113.8
		L75.7,113.8z"/>
	<path id="XMLID_110_" class="st3" d="M142.6,176.1c-0.6,1.4-1.6,2.3-3.1,2.9C139.5,177.1,140.6,176.1,142.6,176.1z"/>
	<path id="XMLID_109_" class="st24" d="M109.1,180.8c-0.2-0.4-0.6-0.7-0.6-1.1c0-0.4,0.4-0.7,0.6-1.1c0.2,0.4,0.6,0.7,0.6,1.1
		C109.7,180,109.3,180.4,109.1,180.8z"/>
	<path id="XMLID_108_" class="st30" d="M90.3,216.2c0.2,0.1,0.5,0.1,0.5,0.2c0,0.2-0.1,0.4-0.2,0.6c-0.2-0.1-0.5-0.1-0.5-0.2
		C90.1,216.6,90.2,216.4,90.3,216.2z"/>
	<path id="XMLID_107_" class="st24" d="M134.2,241.7c-0.2-0.1-0.5-0.1-0.5-0.2c0-0.2,0.1-0.4,0.2-0.6c0.2,0.1,0.5,0.1,0.5,0.2
		C134.4,241.2,134.3,241.4,134.2,241.7z"/>
	<polygon id="XMLID_106_" class="st24" points="119.2,194.9 118.9,195.5 118.6,195.2 	"/>
	<polygon id="XMLID_105_" class="st24" points="141,216.6 141.4,216 141.7,216.3 	"/>
	<path id="XMLID_104_" class="st18" d="M81.8,242.7c-1.4,2.7-3.7,4-6.9,3.3c-2.1-0.4-3.9,1.8-5.9,0.4c-2-1.4-2.3-3.7-3-5.7
		c-0.5-1.4-1.2-2.7-1.1-4.2c0.1-1.2,0.5-2.4,1.6-3.1c1.3-0.9,2.4-0.3,3.5,0.4c0.8,0.6,1.7,1.1,2.6,1.6c0.6,0.4,1.2,0.8,1.6,1.4
		c0.5,0.1,1,0.1,1.4,0.1c0.6,0.5,1.1,0.9,1.7,1.4l0,0c0.5,0.5,1,0.9,1.5,1.4c0.6,0.5,1.1,1,1.7,1.5
		C80.9,241.8,81.4,242.3,81.8,242.7L81.8,242.7z"/>
	<path id="XMLID_103_" class="st42" d="M30.5,205c0.3-3.4-0.6-6.9,1.6-10.1c1.8,0,3.5-0.3,4.5,1.7c2.1,4.2,4.9,8.2,6.4,12.7
		c-0.1,0.4-0.1,0.9,0,1.3c-0.4,0.6-1,1.1-1.5,1.6c-3.7,0.6-6.5-0.9-9.2-2.9l0,0c-0.5-0.5-1.1-0.9-1.5-1.5l0.1,0
		C29.6,207,29.7,206,30.5,205z"/>
	<path id="XMLID_102_" class="st44" d="M47.8,226.6c0-0.2,0-0.5-0.2-0.7c-2.6-3.6-2.1-7.1,0.1-10.7c2-0.1,3.3,1,4.6,2.1
		c1.5,1.3,3.1,2.4,4.6,3.7c0.3,0.4,0.5,0.8,0.8,1.2c3.4,4.8,2.7,6.5-3,7.8c-1.4,0.3-2.4,0.2-3.4-0.7C50.2,228.4,49,227.5,47.8,226.6
		z"/>
	<path id="XMLID_101_" class="st3" d="M57.6,157.4c1,4,3.7,6.7,3.9,10.3c0.1,1.1,1,2-0.5,3c-1.2,0.8-2,2.1-2.9,3.2
		c-0.8,0.9-1.7,2-3.1,1.4c-1.2-0.6-0.5-1.7-0.2-2.5c0.7-2-1.2-2.4-2.3-3.2c-2-1.4-3.5-3-1.2-5.2C50.3,160.1,54.4,159.7,57.6,157.4z"
		/>
	<path id="XMLID_100_" class="st45" d="M28.9,191.9c-4.4-0.5-6.6-3.3-7.7-6.9c-0.3-1.1-0.3-2.4-1.3-3.3c0.1-2.4,1.1-4.6,2.1-6.8
		c0.2-0.4,0.8-0.7,1.2-0.7c0.4,0,1,0.3,1.2,0.7C27.9,180.2,29.6,185.8,28.9,191.9z"/>
	<path id="XMLID_99_" class="st32" d="M31.5,173.8c3-1.1,6-2.6,9.4-1.9c1.1,0.2,1.7,1,1.4,2.1c-0.6,2.2-1.7,3.4-4.2,3.2
		c-1.9-0.1-2.9,0-3,2c-0.1,1.7-0.9,3.2-2.1,4.5c-0.3,0.3-0.9,0.4-1.3,0.3c-0.4-0.1-0.9-0.6-0.9-0.9c-0.2-1.2-0.2-2.4-0.1-3.5
		C30.9,177.6,31.2,175.8,31.5,173.8z"/>
	<path id="XMLID_98_" class="st3" d="M75.7,228.2c0.2-0.7,0.2-1.5,0.5-2.1c0.9-1.7,1.7-1.8,2.7-0.4c0.6,0.8,1,1.7,1.5,2.5
		c-0.9,0.2-1.9,0.3-2.8,0.6C76.7,229,76.1,228.8,75.7,228.2z"/>
	<path id="XMLID_97_" class="st3" d="M78.7,231.6c1.2-0.1,1.9,0.5,2.4,1.3c0.2,0.3,0.1,0.8,0.2,1.3c-0.4,0-1,0.2-1.3,0
		c-0.6-0.4-1.1-0.9-1.6-1.5C78,232.3,78.2,231.8,78.7,231.6z"/>
	<path id="XMLID_96_" class="st30" d="M50.6,204c0.2,0.2,0.8,0.5,0.7,0.8c-0.1,0.9-0.4,1.9-1.4,2.2c-0.8,0.2-1.4-0.5-1.4-1.3
		C48.6,204.7,49.4,204.2,50.6,204z"/>
	<path id="XMLID_95_" class="st3" d="M62.4,174.5c-0.4-0.2-1.2-0.4-1.3-0.6c-0.1-0.8,0.5-1.4,1.3-1.4c0.8,0,1.5,0.6,1.2,1.5
		C63.6,174.2,62.9,174.3,62.4,174.5z"/>
	<path id="XMLID_94_" class="st32" d="M28,172.7c0.2,0.1,0.5,0.1,0.5,0.2c0,0.2-0.1,0.4-0.2,0.6c-0.2-0.1-0.5-0.1-0.5-0.2
		C27.8,173.2,28,172.9,28,172.7z"/>
	<path id="XMLID_93_" class="st3" d="M74.1,234c-0.5-0.5-1-1-1.6-1.4c0.5-1,1-1,1.6,0c0.3,0.3,0.5,0.6,0.3,1
		C74.4,233.8,74.2,234,74.1,234L74.1,234z"/>
	<path id="XMLID_92_" class="st3" d="M86.6,226.8c0.2,0.1,0.6,0.3,0.6,0.3C87.1,227.6,86.8,227.5,86.6,226.8L86.6,226.8z"/>
	<path id="XMLID_91_" class="st30" d="M81.9,229.7c0.2,0.1,0.6,0.3,0.6,0.3C82.4,230.5,82.2,230.4,81.9,229.7L81.9,229.7z"/>
	<path id="XMLID_90_" class="st30" d="M74.1,234c0-0.5,0-1,0-1.4C75.2,233,75.2,233.5,74.1,234z"/>
	<path id="XMLID_89_" class="st3" d="M74.1,236.8c-0.5-0.5-1.1-0.9-1.6-1.4c0.5,0,1.1,0,1.6,0C74.1,235.9,74.1,236.4,74.1,236.8z"/>
	<path id="XMLID_88_" class="st3" d="M77.2,238.3c-0.6-0.5-1.1-0.9-1.7-1.4C76.1,237.4,76.7,237.9,77.2,238.3z"/>
	<path id="XMLID_87_" class="st3" d="M78.8,239.7c-0.5-0.5-1-0.9-1.5-1.4C77.8,238.8,78.3,239.3,78.8,239.7z"/>
	<path id="XMLID_86_" class="st3" d="M81.9,242.7c-0.5-0.5-1-1-1.4-1.5C80.9,241.8,81.4,242.3,81.9,242.7z"/>
	<polygon id="XMLID_85_" class="st3" points="74.1,134 73.8,134.6 73.5,134.4 	"/>
	<path id="XMLID_84_" class="st0" d="M51.3,145.7c0.2,0.6-0.1,1-0.7,0.8c-0.4-0.1-0.6-0.6-0.9-0.9c-0.1-0.1,0.3-0.5,0.3-0.5
		C50.5,145.3,50.9,145.5,51.3,145.7z"/>
	<path id="XMLID_83_" class="st0" d="M82.3,78.9c0.2-0.1,0.4-0.2,0.6-0.4c0.2,0.4,0.4,0.8,0.5,1.2c0.3,0.8,0,0.9-0.6,0.3
		C82.6,79.8,82.5,79.3,82.3,78.9z"/>
	<path id="XMLID_82_" class="st3" d="M200.2,210.8c-0.9,0.4-1.9,0.8-2.8,1.2c-2.4,1-2.4,1-3.5,3.8c-1.7-0.2-2.6-1.7-3.4-2.7
		c-1.1-1.3-1.7-3-2.1-4.6c-0.6-2,1.3-2.9,2.4-4.3c1.7-2.1,1.4-3.8-0.7-4.6c-1.3-0.6-2.5-0.3-3.4,0.8c-0.3,0.4-0.4,0.9-0.5,1.4
		c-0.8,3.8-3.9,4.6-7.4,5.1c-1.6,0.2-2.5-0.5-3-1.7c-0.4-0.9-0.4-1.9-0.6-2.8c-0.2-0.7-0.8-1.4-1.6-1.2c-0.7,0.1-1.7,0.7-1.8,1.1
		c-0.3,1.9-1.3,3-3.2,3.6c-1.6,0.5-3,0.5-4-1c-1-1.5-2-2.9-0.3-4.6c0.4-0.3,0.8-0.6,1.2-0.9c1.1-0.6,1.4-1.4,0.5-2.3
		c-0.9-0.9-1.8-1.9-3.3-1.3c-1.2,0.4-2.4,1.1-2.7,2.4c-0.9,4.2-3.1,8.3-0.5,12.6c0.4,0.8,0.2,1.9,0.2,3c-2.4-0.4-4.6-0.6-6.7-1.2
		c-2.5-0.7-3-2.5-1.4-4.4c0.6-0.8,1.4-1.4,2-2.2c1.4-2,0.2-3.1-1.6-3.9h0c0-0.5,0-1,0-1.4c-0.1-1.4-0.9-3-0.3-4.2
		c0.8-1.8,2.7-0.2,4.1-0.3c2.5-0.2,4.7-1.7,4.5-4c-0.2-2.4,0.8-3.5,2.6-4.7c1.8-1.2,2.7-2.9,1.9-5c-0.2-0.4-0.4-1.1-0.2-1.4
		c2.3-3.5,1.8-7.2,0.8-11c-0.6-2.3,0.9-3.4,4.1-3.3c1.2,0,2,0,2.6-1c0.7-1,1.3-2,1.9-3c1.7,0.6,1.2,1.6,0.8,2.3
		c-1.8,3.2-0.9,6.1,1,8.9c1.2,1.8,2.4,3.6,3.6,5.4c1.4-0.3,2.9-0.6,4.3-0.9c1.1,2-1,2.6-1.5,3.8c-0.4,1-0.3,1.9,0.6,2.6
		c0.6,0.5,1.4,0.6,2.1,0.3c0.9-0.4,2.1-0.8,2.2-1.8c0.1-0.9-0.5-1.8-0.7-2.8c-0.5-2.9-0.5-5.7,2.1-7.8c2.1,0.4,2.9,2.1,4.4,3
		c0.8,0.5,1.7,1,2.7,1.3c1.2,0.4,2.8-2.1,3.7,0.4c0.4,1.1,0.8,2.2,1.2,3.4c-0.8,1.2-1.7,0.2-2.5,0.1c-3-0.5-3.8,0.1-4.1,2.7
		c-0.2,2.1-0.7,4.3-0.5,6.4c0.3,2.2,1.3,4.4,2,6.6c0,0.1,1.1,0,1.2-0.2c0.6-1,0.6-2.4,1.9-3h0c0.9-2.7,0.9-2.7,4.7-2.9
		c0.6,0.5,1,1.1,1.3,1.8c0.3,1.1,0.4,2.2,0.3,3.3c-1.3,4.2-0.6,10.1-8.4,9.1c-0.7,0.2-1.2,0.7-1.7,1.2c0.5-0.3,0.8-1,1.5-1.2
		C199.6,205.7,201.9,207.2,200.2,210.8z"/>
	<path id="XMLID_81_" class="st15" d="M221.9,222.4c-1.7,1.9-4.4,2.9-4.7,5.8c-0.3,0.2-0.5,0.4-0.8,0.6c-0.3-0.2-0.6-0.3-0.8-0.5
		c-1.2-2.1-1.7-4,0.7-5.7c1-0.7,2.1-1.3,3.2-2c1.6-1.1,2.7-2.3,0.8-4.1c-0.5-0.5-1-1.6-0.8-1.8c2.6-3,2.4-5.5-1.3-7.6
		c-0.6-0.3-0.5-1.3,0-2c1.3-2,2.6-4.1,4-6.1c0.7-1,1.9-0.9,2.5,0c1.3,1.9,2.7,2.9,5,1.5c0.7,0.7,1.2,1.6,2,2
		c1.3,0.5,2.6-0.4,3.4-1.2c1.7-1.7,2.4-4.2,4.5-5.7c0.7-0.5,0.7-1.5,0.2-1.9c-4.5-4-0.6-7.8,0.2-11.7c0.2-0.7,1-1,1.8-0.6
		c0.6,0.4,1,1.1,1.7,1.4c1.1,0.6,2.2,1.1,3.4,1.7c1.2,3-0.2,6.9,3.7,8.9c0.4,1,0.2,1.9-0.6,2.7l0,0c-1,1.2-0.4,3.5-2.9,3.7
		c-0.7-0.2-1.3-0.3-0.8,0.8c-0.4,1.4-0.4,2.8-0.9,4.2l0,0c-3.9,2.2-4.3,2.3-3,5.1c1.4,3.1,0.7,5.5-1.7,7.6c-2.4,2.1-3.6,4.5-3.1,7.5
		c-3.9,0.7-7.9,1.3-8,7c-2-3.2-2.3-5.2-0.6-7.5c1.3-1.8-0.8-2.2-2.3-2.5c-0.4-3.4,2.8-4.9,4.5-7.2c1.5-2.1,3.9-3.8,3.5-7.2
		c-4.1,0.5-4.5,4-6.7,5.7c-1.4,1.2-2.6,2.5-2.7,4.4c-0.1,0.9-0.4,1.8-0.9,2.6C223.7,221.6,222.6,221.8,221.9,222.4z"/>
	<path id="XMLID_80_" class="st34" d="M195.5,205c1.2-2.2,4.7-0.7,5.7-2.8c0.9-1.9,1.3-4,1.9-6c0.1-0.4,0.2-0.9,0.2-1.4
		c1-1,1-1.9,0-2.9c0-0.5,0-1,0-1.4c1.9-1.2,2.5-3.6,4.8-4.6c0.9-0.4,0.3-1.2,0-1.9c-0.4-0.6-0.8-1.3,0-1.8c1-0.6,2.1-0.2,2.8,0.4
		c0.7,0.6,1.5,1.5,1.6,2.3c0.7,4.3,2.2,8.3,5.6,11.6c1.3,1.3,0.1,3.3-2.2,3.1c-1.7-0.1-3,0.2-4.4,0.9c-1.3,0.7-1.7,1.7-1.8,3
		c-2.8,1.7-5.6,3.4-4,7.2c0.5,1.2,0.5,2.4-1.2,2.7c-1.5,0.3-3,0.3-3.8-1.3c-0.2-0.4-0.3-0.9-0.4-1.3C200,207.9,198,206.3,195.5,205
		L195.5,205z"/>
	<path id="XMLID_79_" class="st1" d="M229.8,160.1c-1.4,6.3-2.7,12.6-4,18.9c-0.3,1.3-1.9,1.7-2.9,0.7c-1-1-3.2-2.2-2.5-3.2
		c3.5-4.5-0.6-4.4-3.3-5.3c-1.2-0.4-2.3-1.9-1.7-2.9c1.3-1.8,0.5-3-0.6-4.4c-0.5-0.6-0.2-1.4,0.8-1.5c1.4-0.2,1.5-1,1.3-2
		c-0.2-1.3,0.7-1.6,1.8-1.6c1,0,2.1,0,2.2,1.4c0.1,0.7-0.1,1.5,0.1,2.1c0.6,1.5,2.5,2.2,3.6,1.1C226.1,161.9,227.9,161,229.8,160.1z
		"/>
	<path id="XMLID_78_" class="st27" d="M190.9,246.9c1.4,4.4,1,5.8-2.5,7.8c-3.3,1.8-6.6,3.5-10,5.3c-3.6,0.5-5.5-1.1-6.2-4.3l0,0
		c1.1-4,4.9-5.3,8.3-6.6C183.8,248,187.4,247.6,190.9,246.9z"/>
	<path id="XMLID_77_" class="st44" d="M164.4,261.5c0,0.4-0.1,0.9-0.1,1.3c-3,0.6-6.5,0.4-8.9,1.8c-4,2.4-6.5,1.3-8.9-1.8
		c-0.8-1-1.6-1.9-2.3-2.8c0.3-1.5,1-2.8,2.9-2.8c4.4-0.1,8.8-0.1,13.1,0C162.9,257.4,164.2,259.1,164.4,261.5z"/>
	<path id="XMLID_76_" class="st41" d="M211.1,239.8c-2.8,1.4-5.7,2.7-8.9,3.4c-1.4,0.3-2.4-0.1-3.5-0.5c2.6-4.1,7-6.9,9.7-11
		c1.5-2.2,4.4-3.2,7.3-3.4c0,0,0,0,0,0c0.6,0.4,1.2,0.8,1.6,1.4l0,0c1.1,1.9,1.3,3.8-0.1,5.7l0-0.1c-0.4,0.6-1,1.1-1.5,1.7
		c-0.4,0.3-0.8,0.7-1.2,1c-0.4,0.3-0.8,0.6-1.2,1C212.6,239.4,211.9,239.8,211.1,239.8z"/>
	<path id="XMLID_75_" class="st46" d="M133.3,261.5c-2.8,0.1-5.6-0.2-8.3,0.9c-2.7,1.1-4.9,0.5-6.5-2c-0.5-0.8-1.5-1.2-2.3-1.8
		c-0.3-0.7-0.7-1.3-0.9-2c-0.9-2.9-0.2-3.8,2.6-3c2,0.5,4,0.6,6,0.7c3.2,0.2,5.8,1.7,8.3,3.3C133.5,258.5,133.2,260.1,133.3,261.5z"
		/>
	<path id="XMLID_74_" class="st47" d="M105.1,255.7c-3.5-0.6-7.1-1.1-10.6-1.7c-1.6-0.3-2.6-1.4-3.4-2.7c-1.8-2.6-1.5-5.5-1.4-8.4
		c3.2-1.5,4.6,0.9,6.1,2.7l0,0c1.9,2,4.3,3.3,6.7,4.6C105,251.4,105.4,253.4,105.1,255.7z"/>
	<path id="XMLID_73_" class="st1" d="M242.2,158.7c0.6,0.5,1.3,0.9,1.6,1.5c1,1.7,4.1,1.1,4.5,3.6c0.3,2.1-0.9,3.7-1.4,5.6
		c-0.3,0.9-1,1.6-1.6,2.4c-0.2-2.5-1.4-4-4.2-4.3c-1.3-0.1-2.5-0.3-3.7-0.5c-0.3-0.1-0.5-0.7-0.6-1.1c0-0.2,0.2-0.6,0.3-0.6
		c3.7,0.5,3.6-2.5,4.6-4.5C242.1,160.1,242,159.4,242.2,158.7z"/>
	<path id="XMLID_72_" class="st1" d="M187.1,167.4c0.3-0.4,0.5-0.8,0.8-1.1c0.3-0.2,1-0.2,1-0.2c0.4,1.2,0.4,2.4-0.6,3.3
		c-0.5,0.4-1.4,0.6-2.1,0.6c-1.4-0.1-2.3-1-2.8-2.1c-0.2-0.4-0.1-1,0.1-1.4c1-2.4,1.9-4.9,3-7.3c0.5-1,0.9-2.4,2.3-2.6
		c2-0.2,2.2,1.7,3.1,2.7c1,1.2,0.7,1.9-1.1,2.3c-4.5,1.1-4.8,1.6-4.8,5C186.2,167.3,186.5,167.6,187.1,167.4z"/>
	<path id="XMLID_71_" class="st1" d="M237.5,174.6c0.2,0.1,0.5,0.2,0.7,0.3c1.1,1,3.9,1.7,2.3,3.6c-1,1.2-3.3,0.7-4.6-1
		C236.5,176.5,237,175.6,237.5,174.6z"/>
	<path id="XMLID_70_" class="st1" d="M229.5,177c-0.3-0.6-0.7-1-0.6-1.3c0.3-1.6,1.7-2.2,3.2-2.7c0.4-0.1,1.1-0.2,1.3,0
		c0.7,0.6,0.2,1.3-0.4,1.6C231.7,175.2,231.1,176.8,229.5,177z"/>
	<path id="XMLID_69_" class="st3" d="M175.7,211.3c-0.2,0.2-0.4,0.5-0.5,0.5c-2-0.4-3.5-1.7-4.9-3.1c0,0,0.2-0.4,0.3-0.5
		c0.2-0.1,0.5-0.2,0.7-0.2c2,0,3.2,1.2,4.2,2.6C175.7,210.9,175.7,211.1,175.7,211.3z"/>
	<path id="XMLID_68_" class="st1" d="M211.1,152.9c0.7,0.2,1.4,0.2,2,0.6c0.6,0.4,0.7,1.2-0.1,1.6c-0.3,0.1-1-0.1-1.2-0.3
		C211.4,154.2,211.3,153.5,211.1,152.9L211.1,152.9z"/>
	<path id="XMLID_67_" class="st1" d="M181.4,153.9c-0.1,0.8-0.5,1.5-1.4,1.4c-0.6-0.1-0.7-0.6-0.5-1.2c0.3-0.6,0.5-1.4,1.4-1.5
		C181,152.6,181.2,153.4,181.4,153.9z"/>
	<path id="XMLID_66_" class="st1" d="M188.5,153.4c0-0.4-0.1-0.8-0.1-1.2c0-0.1,0.4-0.3,0.6-0.3c0.6,0,0.9,0.4,0.6,0.9
		C189.5,153.1,188.9,153.2,188.5,153.4z"/>
	<path id="XMLID_65_" class="st1" d="M245.3,171.7c-0.2,0.4-0.4,0.9-0.7,1.2c-1.4,1.3-1.7,1.2-2.4-1.2
		C243.2,171.7,244.2,171.7,245.3,171.7z"/>
	<path id="XMLID_64_" class="st15" d="M229.7,196.3c1.9,2.2,1.9,2.2,0,4.3C229.7,199.2,229.7,197.8,229.7,196.3z"/>
	<path id="XMLID_63_" class="st3" d="M151.9,202.1c-0.1,0.4-0.1,0.9-0.2,1.3c0,0.2-0.3,0.5-0.4,0.5c-0.6-0.1-0.8-0.5-0.5-1
		C151.1,202.7,151.6,202.4,151.9,202.1L151.9,202.1z"/>
	<path id="XMLID_62_" class="st34" d="M210.7,205.1c-0.2,0.1-0.4,0.2-0.6,0.4c-0.2-0.4-0.4-0.8-0.5-1.2c-0.3-0.8,0-0.9,0.6-0.3
		C210.4,204.2,210.5,204.7,210.7,205.1z"/>
	<polygon id="XMLID_61_" class="st3" points="108.4,206.5 108.7,205.9 109,206.1 	"/>
	<path id="XMLID_60_" class="st30" d="M116.1,248.5c0.2,0.1,0.6,0.3,0.6,0.3C116.6,249.3,116.4,249.2,116.1,248.5L116.1,248.5z"/>
	<path id="XMLID_59_" class="st15" d="M193.9,102.2c0.2-0.8-0.1-2.1,1.5-1.8c1.2,0.2,1.9,1.6,3.8,1.1c-1.7-3.6-4.2-6.2-8.3-7.2
		c-1-0.2-2.3-0.3-2.3-1.3c0-1.5-0.9-3.3,0.9-4.6c1-0.7,1.9-1.5,2.9-2.2c1,0.1,2.1,0.3,2.7,1.2c0.8,1.5,1.4,3.1,2.2,4.6
		c0.1,0.3,0.9,0.5,1.3,0.3c0.4-0.2,0.9-0.8,0.8-1.1c-1.1-3.5,1.3-4.7,4.2-5.6c0.4-0.1,1.1,0.1,1.4,0.3c0.3,0.3,0.5,1.1,0.4,1.2
		c-2.6,1.6-1.6,4.4-2.7,6.5c-0.7,1.4,0.2,2.4,1.7,2.5c2.4,0.2,3.1,1.3,2.3,3.3c-0.4,1.1-0.3,2.6-1.1,3.4c-1.6,1.6-1.5,2.8,0,4.3
		c0.7,0.8,0.4,1.9-0.5,2.5c-0.6,0.4-1.8,0.9-2,0.6c-3.4-2.9-6-0.8-8.9,0.8c-1.2,0.7-1.3-0.9-1.5-1.7c0.5-0.5,1-1,1.6-1.5
		c1-0.7,0.6-2.1,1.6-2.9c0-0.5,0-1,0-1.4C194.9,103.2,194.5,102.6,193.9,102.2z"/>
	<path id="XMLID_58_" class="st1" d="M201.7,131.1c-0.5-1-1-1-1.6,0c-2.1-1.2-2-3.7-3.8-5.2c-2.6-2.2-2.9-5.2-1.3-8.5
		c1.7-3.4,4.8-3.9,8.1-4.5c0.9-0.2,2,1.4,1.3,2c-2.7,2.3-2.6,5.5-3.3,8.5c-0.3,1.2-1.1,2.5,0.7,2.8c1.4,0.2,2.2-0.9,2.3-2.3
		c0-0.3,0.5-0.7,0.8-1c1.7,0.5,2,2.1,2.9,3.2c1.2,1.4,0.7,2.6-1.1,3.3C205.1,130,203.4,130.6,201.7,131.1z"/>
	<path id="XMLID_57_" class="st15" d="M195.5,83.3c1-1.4,2.1-2.9,3.1-4.3c1.3,0.1,2.6,0.3,1.9,2c-0.4,1.1-1,2.1-1.6,3.1
		C197.9,85.8,197.7,85.8,195.5,83.3z"/>
	<path id="XMLID_56_" class="st15" d="M208.5,80.6c0.8,0,1.6,0.3,1.8,1c0.3,0.9-0.5,1.3-1.2,1.5c-0.5,0.1-1,0.2-1.5,0.1
		c-0.5-0.1-1.2-0.2-1.3-0.5c-0.3-0.7,0.2-1.3,0.9-1.7C207.5,80.8,208,80.8,208.5,80.6z"/>
	<path id="XMLID_55_" class="st11" d="M183,100.9c0-0.7,0-1.2,0-1.6c0.9,0.5,1.5,1.2,1.4,2.2c0,0.4-0.5,0.7-0.7,1
		C183.4,101.8,183.2,101.2,183,100.9z"/>
	<path id="XMLID_54_" class="st48" d="M264,167.4c0,1.4-0.1,2.9-0.1,4.3c-1.6,0.1-2.9,0.7-4.1,1.7c-1.1,1-2.4,1.8-3.6,2.6
		c-3.9-0.4-2.1-2.6-1.6-4.3c0.1-0.5,0.1-0.9,0.1-1.4c2.3-2.4,1.7-5.8,3.3-8.4c0.4-0.6,0.8-1.3,1.6-1.2c0.7,0.1,1.5,0.4,1.9,0.9
		C262.8,163.3,263.8,165.2,264,167.4z"/>
	<path id="XMLID_53_" class="st49" d="M249.9,193.4c-1,0.2-2.1,0.8-2.9,0.5c-0.8-0.3-1.4-1.4-1.6-2.3c-0.7-2.5,0.2-4.7,1.4-6.9
		c2-0.8,1.2-3.4,3.1-4.3c4.2-0.4,1.1,3.5,3.1,4.4c0,0.9,0.1,1.9,0.1,2.8c0.8,0.8,0.7,1.9,0.7,2.9C253.5,192.6,252,193.3,249.9,193.4
		z"/>
	<path id="XMLID_52_" class="st15" d="M253,184.8c-1.9-0.9-1-3.5-3.1-4.4c1.5-2.9,3.1-5.8,4.6-8.7c0.1,1.6-0.3,3.3,1.6,4.3
		C254.8,178.9,252.7,181.5,253,184.8z"/>
	<path id="XMLID_51_" class="st1" d="M262.4,148.5c1.2,0.7,1.5,1.7,1.5,2.9C262.7,150.8,262.4,149.7,262.4,148.5z"/>
	<path id="XMLID_50_" class="st7" d="M265.5,152.9c-0.5,0-1,0-1.6,0c0-0.5,0-1,0-1.5C264.5,151.9,265,152.4,265.5,152.9z"/>
	<path id="XMLID_49_" class="st1" d="M260.9,93.5c-2.3-2.5-3.2-5.5-3.1-8.7c2.4,1.5,2.5,4.5,4.9,6.1c0.9,0.6,0,1.7-0.2,2.6l-0.8,0
		L260.9,93.5z"/>
	<path id="XMLID_48_" class="st1" d="M267.1,99.3c-2.1-0.8-3.1-2.3-3.1-4.4C266.9,95.8,266.9,95.8,267.1,99.3z"/>
	<path id="XMLID_47_" class="st37" d="M249.9,81.9c0.1,0.5,0.1,0.9,0.1,1.4c-2.3,2.4-5.7,3-8.3,5.1c-1.6-2.2-0.9-4.1-1-5.9
		c-0.1-2.4,0.3-4.9-4-4.5c-1.7,0.2-2.9-3.2-2-4.7c0.2-0.3,1.1-0.6,1.2-0.5c2.1,2.1,4.1-0.8,6.4,0c1.8,0.7,4.1,0.2,6.1,0.3
		C247.7,76.3,246.2,79.5,249.9,81.9z"/>
	<path id="XMLID_46_" class="st50" d="M231.3,108c1,0,2,0,3,0C233.3,109.5,232.3,109.6,231.3,108z"/>
	<path id="XMLID_45_" class="st29" d="M164.4,263c0.5,0,1,0,1.5,0c4.3,0.3,4.3,0.3,4.7,4.4c0,0.5,0,0.9,0,1.4
		c-1.1,1.2-2.2,2.5-3.5,3.6c-0.7,0.6-1.8,0.8-2.8,0.4c-1-0.4-1.5-1.2-1.3-2.3C163.4,268,163.9,265.5,164.4,263z"/>
	<path id="XMLID_44_" class="st24" d="M95.9,245.6c-2-0.9-4.1-1.8-6.1-2.7c-0.1-1.9-0.3-3.8,2-5.2C93.1,240.5,96.5,242.1,95.9,245.6
		z"/>
	<path id="XMLID_43_" class="st16" d="M41.4,212.3c0.5-0.5,1-1.1,1.5-1.6C42.4,211.2,41.9,211.7,41.4,212.3z"/>
	<path id="XMLID_42_" class="st0" d="M30.5,205c0,0.9,0.1,1.9,0.1,2.8C28.9,207,29,206,30.5,205z"/>
	<path id="XMLID_41_" class="st30" d="M30.6,207.8c0.5,0.5,1,1,1.5,1.5C31.6,208.9,31.1,208.3,30.6,207.8z"/>
	<path id="XMLID_40_" class="st51" d="M153.5,13.7c0.2,0.4,0.7,1,0.6,1.2c-3.1,4-6.2,5-11.1,3.6c-1-0.3-2.1-0.4-2.9-0.8
		c-1-0.5-2.8-0.5-2.5-2.1c0.2-1,1.3-1.3,2.3-1.6c1.4-0.5,2.9-1,4.3-1.5c2.1-1.2,4.1-1.7,6.1,0.1l0,0
		C151.2,13.2,152.6,12.9,153.5,13.7z"/>
	<path id="XMLID_39_" class="st52" d="M150.3,12.4c-2,0-4.1-0.1-6.1-0.1c0.8-1.9,1.6-3.9,2.4-5.8c0.7-1.6,1.7-2.8,3.8-2.8l0,0
		c0.5,0.5,1,1,1.6,1.4h0c0.9,0.8,0.6,2.1,1.6,2.9l0,0C153.7,10.3,151.2,10.8,150.3,12.4z"/>
	<path id="XMLID_38_" class="st53" d="M175.1,15.3c-0.5-0.4-1-0.9-1.5-1.3c0-0.5,0-1.1,0-1.6c3.6-2,6.7-2,9.3,1.4
		c-0.4,0.6-0.9,1.2-1.7,1c-2-0.4-3.2-0.4-4.7,0.3C176.1,15.2,175.6,15.2,175.1,15.3z"/>
	<path id="XMLID_37_" class="st52" d="M153.5,13.7c-1.3,0-2.4-0.2-3.2-1.3C151.6,12.4,152.8,12.6,153.5,13.7z"/>
	<path id="XMLID_36_" class="st9" d="M211.1,239.8c0.4-0.5,0.9-1.1,1.3-1.6c0.7-0.3,1.3-0.8,1.7-1.4l0,0c1.8-0.8,2.3,0.7,3.2,1.6
		l0,0c-0.8,2-1.6,4-2.4,6c-0.6,1.4-0.9,2.8,0.5,3.9c1.8,1.5,0.1,3.1,0.4,4.7l0,0c-1,0.7-0.7,2.1-1.6,2.9l0,0c-0.5,0.5-1.1,0.5-1.6,0
		c-0.8,0-1.5,0-2.3,0c-3.1-0.3-3-0.3-3.1-3.2c-0.1-3-0.6-5.9,2.5-8.1C211.3,243.3,211,241.5,211.1,239.8z"/>
	<path id="XMLID_35_" class="st9" d="M200.1,262.9c-0.5,0.5-1,0.9-1.6,1.4c-2-0.1-4.1,0-6.1-0.2c-1.3-0.2-2.4-1-2.5-2.3
		c0-0.6,0.3-1.4,0.8-1.9c1.1-1,2.2-0.9,3.3,0.1c1.1,1,2.2,1,3.1-0.3c1.4-1.9,1.9-4.5,4.6-5.5c0.3,0.9,1.1,2,0.2,2.7
		C199.6,258.6,200.3,260.9,200.1,262.9z"/>
	<path id="XMLID_34_" class="st24" d="M172.2,255.7c1.6,2,4.1,2.9,6.2,4.3c-3,3.3-4.6,3.3-6.4-0.3c-0.1-0.2-0.2-0.4-0.3-0.6
		C171,257.9,171.7,256.8,172.2,255.7z"/>
	<polygon id="XMLID_33_" class="st9" points="201.7,254.3 202.1,253.7 202.4,254 	"/>
	<path id="XMLID_32_" class="st11" d="M212.6,255.7c0.5,0,1.1,0,1.6,0c-0.5,0.5-1.1,0.9-1.6,1.4
		C212.6,256.7,212.6,256.2,212.6,255.7z"/>
	<path id="XMLID_31_" class="st11" d="M214.2,255.8c0-1.2,0.3-2.3,1.6-2.9C215.7,254,215.4,255.1,214.2,255.8z"/>
	<path id="XMLID_30_" class="st53" d="M183,13.8c1-1.5,2.1-1.5,3.1,0C185.1,13.8,184.1,13.8,183,13.8z"/>
	<path id="XMLID_29_" class="st15" d="M203.3,41.3c0.1-0.2,0.3-0.6,0.3-0.6C204.1,40.9,204,41.1,203.3,41.3L203.3,41.3z"/>
	<path id="XMLID_28_" class="st38" d="M245.3,205c-1.7-1.9,0-3.9,0-5.8h0c2.4,0.3,3-2.1,4.7-2.9c0.8,1.7,1.9,3.2-0.6,4.7
		C247.7,202,246.6,203.7,245.3,205z"/>
	<path id="XMLID_27_" class="st38" d="M249.9,193.4c1.1-1,2.1-1.9,3.2-2.9c0.5-0.7,1-0.7,1.5,0c0,1,0,1.9,0,2.9
		c-1.6,1-3.1,1.9-4.7,2.9C249.9,195.4,249.9,194.4,249.9,193.4z"/>
	<path id="XMLID_26_" class="st54" d="M223.4,221c0-0.9,0.1-1.8,0.1-2.8c0.9-1.5,0.9-3.6,3-4.5c0.9-1.7,1.8-3.4,2.9-5.1
		c0.5-0.8,1.2-1.6,2-2.1c1.5-1,3.1-1.8,5-0.9c1.2,0.6,1.5,2.8,0.6,4.6c-0.7,1.5-1.6,3-2.7,4.3c-2.5,2.7-5.1,5.3-7.7,7.9
		c-0.5,0-1,0-1.5,0.1c-0.5,0.4-1,0.4-1.5-0.1l0,0c-0.4-0.3-0.6-0.6-0.5-0.9C223.2,221.1,223.3,221,223.4,221z"/>
	<path id="XMLID_25_" class="st11" d="M217.1,235.4c0-1.9,0.1-3.8,0.1-5.7C219.4,232.5,219.4,232.8,217.1,235.4z"/>
	<path id="XMLID_24_" class="st11" d="M217.3,238.4c-1.1-0.5-2.1-1-3.2-1.6c0.7-1.1,1.8-1.4,3-1.5
		C217.2,236.3,217.2,237.3,217.3,238.4z"/>
	<path id="XMLID_23_" class="st24" d="M223.4,221c0.1,0.5,0.1,0.9,0.1,1.4c-0.5,0-1.1,0-1.6,0.1C222.4,221.9,222.9,221.5,223.4,221z
		"/>
	<path id="XMLID_22_" class="st24" d="M223.5,222.3c0.5,0,1,0,1.5,0.1C224.5,223.4,224,223.4,223.5,222.3z"/>
	<path id="XMLID_21_" class="st24" d="M217.3,229.6c-0.5-0.5-1.1-0.9-1.6-1.4c0.5,0,1.1,0,1.6-0.1
		C217.3,228.7,217.3,229.2,217.3,229.6z"/>
	<path id="XMLID_20_" class="st0" d="M153.5,8c-1.3-0.6-1.5-1.7-1.6-2.9C153.2,5.7,153.4,6.8,153.5,8z"/>
	<path id="XMLID_19_" class="st0" d="M151.9,5.1c-0.5-0.5-1-1-1.6-1.4C150.9,4.1,151.4,4.6,151.9,5.1z"/>
	<path id="XMLID_18_" class="st15" d="M254.6,190.5c-0.5,0-1,0-1.5,0c0-1,0-1.9,0-2.9C254.3,188.3,254.6,189.4,254.6,190.5z"/>
	<path id="XMLID_17_" class="st36" d="M125.5,158.7c-1.1-1.8-1.8-3.7-1.6-5.8c-1.3-0.6-0.6-2.1-1.6-2.9c1-2.9,2.1-5.8,3.1-8.7
		c2.3-1.1,4.5-2.3,6.8-3.4c1.4,0.7,1.9,2.2,2.6,3.4c0.4,0.6,0.8,1.2,1.2,1.8c0.4,0.7,1.7,1.8,0.1,2.3c-1.9,0.6-2.9,2-4.3,2.9
		c-1.4,1-4.1,2.2-3.5,3.4c1.3,2.4,1.8,5.5,4.6,7.2c0.3,0.2,1.3,0.2,1.4,0.1c0.6-1.1,2.5-1.2,2.2-3.2c-0.5-4,0.8-5.8,5.3-9.1
		c1.4,2.2,1.9,4.9,4.3,6.6c1.3,0.9,0.4,2.2-0.1,3.3c-0.8,1.7-1.9,1-3.1,0.5c-1.4-0.6-1.8,0.2-1.9,1.3c-0.1,2.8-1.5,4.5-4.7,4.7
		c-1.2,1.9-1.7,4-1.6,6.2c0,1.2-0.6,2.4-1.7,3.1c-1.2,0.8-2.6,1.8-4.2,1.2c-1.7-0.6-1.8-2.2-1.8-3.7c0-1.5,0.2-2.8,1.5-3.9
		c2.2-1.8,0.7-4,0.3-6C128.6,158.9,126.8,158.7,125.5,158.7z"/>
	<path id="XMLID_16_" class="st15" d="M134.8,132.6c-0.5-0.5-1-1-1.6-1.4h0c-0.3-0.3-0.4-0.6-0.3-1c0.1-0.3,0.2-0.5,0.3-0.5
		c0.9-0.2,2-1.2,2.7-0.1C136.7,130.8,136.1,131.9,134.8,132.6z"/>
	<path id="XMLID_15_" class="st3" d="M133.2,129.7c0,0.5,0,1,0,1.4C132.2,130.7,132.2,130.2,133.2,129.7z"/>
	<path id="XMLID_14_" class="st15" d="M201.7,67.4c0.1-1.2-0.2-2.4,0.7-3.4c0.8-0.8,1.8-1,2.7-0.3c1.1,0.7,0.7,1.6,0,2.4
		C204.3,67.1,203,67.3,201.7,67.4L201.7,67.4z"/>
	<path id="XMLID_13_" class="st24" d="M195.5,105.1c0,1.2-0.3,2.3-1.6,2.9C194,106.8,194.2,105.7,195.5,105.1z"/>
	<path id="XMLID_12_" class="st24" d="M193.9,102.2c0.5,0.5,1,1,1.6,1.4C195,103.1,194.4,102.7,193.9,102.2z"/>
	<polygon id="XMLID_11_" class="st36" points="134.8,134 134.4,134.6 134.2,134.4 	"/>
	<polygon id="XMLID_10_" class="st24" points="136.4,136.9 136,137.5 135.7,137.3 	"/>
	<path id="XMLID_9_" class="st3" d="M122.4,150c1.3,0.6,1.5,1.7,1.6,2.9c-1.1,0.3-2.2,1.2-3.3,0.3c-0.5-0.4-1-1.1-1-1.7
		c0-0.9,1-0.6,1.6-0.7C121.7,150.7,122,150.2,122.4,150z"/>
	<path id="XMLID_8_" class="st3" d="M116.1,151.4c0.2,0.1,0.6,0.3,0.6,0.3C116.6,152.2,116.4,152.1,116.1,151.4L116.1,151.4z"/>
	<path id="XMLID_7_" class="st34" d="M195.5,205c-0.1,1.4-0.1,2.8-0.3,4.2c0,0.2-0.9,0.5-1.1,0.3c-0.4-0.2-0.9-0.7-0.8-1
		C193.5,207.1,194,205.8,195.5,205L195.5,205z"/>
	<path id="XMLID_6_" class="st24" d="M203.3,192c1.6,1,1.6,1.9,0,2.9C203.3,193.9,203.3,193,203.3,192z"/>
	<path id="XMLID_5_" class="st24" d="M198.6,193.4c0.2,0.1,0.6,0.3,0.6,0.3C199.1,194.2,198.9,194.1,198.6,193.4L198.6,193.4z"/>
	<path id="XMLID_4_" class="st24" d="M226.6,213.7c-0.8,1.6-1.4,3.4-3,4.5C223.6,214.6,223.6,214.6,226.6,213.7z"/>
	<path id="XMLID_3_" class="st38" d="M245.3,199.2c-0.2-0.1-0.6-0.3-0.6-0.3C244.8,198.4,245,198.5,245.3,199.2L245.3,199.2z"/>
	<path id="XMLID_2_" class="st11" d="M214.1,236.8c-0.3,0.8-0.9,1.2-1.7,1.4C213,237.8,213.5,237.3,214.1,236.8z"/>
	<polygon id="XMLID_1_" class="st24" points="136.4,163 135.7,162.7 136,162.4 	"/>
</g>
</svg>
