<?xml version="1.0" encoding="utf-8"?>
<!-- Generator: Adobe Illustrator 19.0.0, SVG Export Plug-In . SVG Version: 6.00 Build 0)  -->
<svg version="1.1" xmlns="http://www.w3.org/2000/svg" xmlns:xlink="http://www.w3.org/1999/xlink" x="0px" y="0px"
	 viewBox="0 0 800 800" style="enable-background:new 0 0 800 800;" xml:space="preserve">
<style type="text/css">
	.st0{opacity:0.8;fill:url(#SVGID_1_);}
	.st1{clip-path:url(#SVGID_3_);}
	.st2{fill:#F6FFAF;}
	.st3{fill:#DDD354;}
	.st4{fill:#C6B642;}
	.st5{fill:url(#SVGID_4_);}
	.st6{opacity:0.2;fill:#B5B73C;}
	.st7{fill:url(#SVGID_5_);}
	.st8{opacity:0.4;fill:#AFAF38;}
	.st9{opacity:0.4;fill:#93902C;}
	.st10{opacity:0.5;}
	.st11{fill:#EADB6E;}
	.st12{opacity:0.6;fill:#B5B73C;}
	.st13{opacity:0.7;}
	.st14{opacity:0.2;fill:#7C5300;}
	.st15{fill:#FEFFD2;}
	.st16{fill:#B7B229;}
	.st17{fill:#EDDF5A;}
	.st18{fill:#C6A206;}
	.st19{fill:#8E6D0D;}
	.st20{fill:#D1AB0D;}
	.st21{opacity:0.4;fill:#F6FFAF;}
	.st22{fill:#CEC146;}
	.st23{fill:#F7EBA6;}
	.st24{fill:#E5D898;}
	.st25{fill:#9B7310;}
	.st26{fill:#7A5606;}
	.st27{fill:#CCA60A;}
	.st28{fill:#B59406;}
	.st29{fill:#E5D729;}
	.st30{fill:url(#SVGID_6_);}
	.st31{opacity:0.3;fill:#F6FFAF;}
	.st32{fill:#CEC742;}
	.st33{fill:#BFB53A;}
	.st34{fill:#F2E797;}
	.st35{fill:#E5D88F;}
	.st36{fill:#E0D54B;}
	.st37{fill:#B59408;}
	.st38{fill:#FFCE78;}
	.st39{opacity:0.1;fill:#F6FFAF;}
	.st40{fill:#BFB82B;}
	.st41{fill:#ADA323;}
	.st42{fill:#D3C733;}
	.st43{fill:#D8B009;}
	.st44{fill:#BF9C08;}
	.st45{fill:#F2C370;}
	.st46{fill:#FFD683;}
	.st47{fill:#D3AF16;}
	.st48{fill:#BC9C13;}
	.st49{opacity:0.6;fill:url(#SVGID_7_);}
</style>
<g id="Background">
	<linearGradient id="SVGID_1_" gradientUnits="userSpaceOnUse" x1="400" y1="-102.3844" x2="400" y2="578.8193">
		<stop  offset="0" style="stop-color:#F2DC42"/>
		<stop  offset="1" style="stop-color:#FCE9A9"/>
	</linearGradient>
	<rect class="st0" width="800" height="800"/>
</g>
<g id="Objects">
	<g>
		<defs>
			<rect id="SVGID_2_" width="800" height="800"/>
		</defs>
		<clipPath id="SVGID_3_">
			<use xlink:href="#SVGID_2_"  style="overflow:visible;"/>
		</clipPath>
		<g class="st1">
			<g>
				<g>
					<path class="st2" d="M757.2,105.7c-10.9-31.2-95.7-60.1-122.4,15c0,0-27.5-19.4-38.2,5.5c-8.2-11.8-30-3.9-34.5,9.7
						c0,0,15.3-28.3,0-41.2c-13-10.9-24.8,5.5-24.8,5.5s14.5-24.2-12.1-15.1c0,0,3-13.2-9.9-9.1c-19.1,6.1-7.3,29.8,9.9,35.7
						c-23.6,5-23,20.1-0.1,31.3c0,0-43.8-3.4-36.8,22c0,0-21.2-9.1-21.2,0.6c0,12.8,21.2,5.3,39.4-4.2c0,0,22.9,44.1,61.4,9.6
						c0,0,39.9,32.1,83.9,0c0,0,21.6,23.7,46.2-3.6c0,0,40.9,45.5,81.8-4.8c0,0,34.8,23.3,55.7,4.2c20.9-19.1-18.7-24.8-18.7-24.8
						S810.2,70.2,757.2,105.7z"/>
					<path class="st3" d="M757.2,105.7c-10.9-31.2-95.7-60.1-122.4,15c0,0-27.5-19.4-38.2,5.5c-8.2-11.8-30-3.9-34.5,9.7
						c0,0,15.3-28.3,0-41.2c-13-10.9-24.8,5.5-24.8,5.5s14.5-24.2-12.1-15.1c0,0,3-13.2-9.9-9.1c-19.1,6.1,0.2,29.5,17.5,35.4
						c-23.6,5-23.5,20.2-0.7,31.3c0,0-50.8-3.2-43.8,22.3c0,0-18.9-8.3-18.9-0.9c0,12.8,19.9,2.8,38.1-6.7c0,0,22.2,42.5,60.7,8
						c0,0,40.7,32.1,84.7,0c0,0,20.6,29.3,45.1,2c0,0,40.9,45.5,81.8-4.8c0,0,34.8,23.3,55.7,4.2c20.9-19.1-18.7-24.8-18.7-24.8
						S810.2,70.2,757.2,105.7z"/>
				</g>
				<ellipse class="st2" cx="395.3" cy="358.8" rx="146.9" ry="135.8"/>
				<g>
					<path class="st2" d="M22,141.7c0,0,5-38.7,40-46.7s45,23.5,45,23.5s31.1-12.7,33.1,11.2c17-23.1,55.2-8.2,50.4,15.8
						c25.2-21,44.5-7.5,41.5,0.5s-26,7.5-26,7.5s-44.4,44.1-70.5,11.5c0,0-26.9,20.6-41.9,0c-7,21.4-59.6,31.6-70.6-3.4
						c-11,17-31.9,9.6-32.1-3.4c0,0-42.3,17-46.3-6s35-10.5,35-10.5S-6,123.7,22,141.7z"/>
					<path class="st3" d="M22,141.7c0,0,5-38.7,40-46.7s45,23.5,45,23.5s31.1-12.7,33.1,11.2c17-23.1,55.2-8.2,50.4,15.8
						c25.2-21,44.5-7.5,41.5,0.5s-28.3,4-28.3,4s-42.2,42.6-68.3,10c0,0-29,18.9-44-1.7c-7,21.4-57.3,38.2-68.3,3.2
						c-11,17-31.9,9.6-32.1-3.4c0,0-42.3,17-46.3-6s35-10.5,35-10.5S-6,123.7,22,141.7z"/>
				</g>
				<g>
					<path class="st4" d="M611.3,45.2c0,0-1.8-1.3-2.5-3h5.4c0,0,2.1-3.8,2.3-7c0.2-3.2-1.3-7-1.3-7s6.2,3.2,5.8,6.5
						s-3.2,9.2-3.2,9.2s5.5,1,6.3,0.5c0.8-0.5-2.7,4.2-3.8,4.3c-1.2,0.2-5.3-1.3-5.3-1.3s-11.2,5.5-16-0.3
						C599,47,607.7,48.2,611.3,45.2z"/>
					<path class="st4" d="M653.1,64c0,0-0.8-1-1-2l3,0.7c0,0,1.7-1.8,2.2-3.5c0.5-1.7,0.2-4,0.2-4s3,2.6,2.3,4.4s-3,4.6-3,4.6
						s2.9,1.3,3.4,1.1c0.5-0.2-2,1.9-2.7,1.9c-0.7-0.1-2.7-1.5-2.7-1.5s-6.9,1.5-8.7-2.4C646.1,63.3,650.7,65.1,653.1,64z"/>
					<path class="st4" d="M639,38.9c0,0-4-1.6-6-1.4s-3.2,2.5-3.2,2.5l3.3,0.8c0,0-7.5,9.1-3.3,13.6c0,0,1.7-1,2-2.5
						c0.3-1.5,1.7-7.8,3.5-8.3c1.8-0.5,10.7,5,13.5,5.2c2.8,0.2,4-0.3,4-0.3s-8-3.7-9.2-4.5c0,0,7.5,1.5,9.2,0.7
						c1.7-0.8,2.5-2.3,2.5-2.3l-2.5-0.3c0,0-5.5,1-7.8,0S640.6,39.5,639,38.9z"/>
				</g>
			</g>
			<ellipse class="st2" cx="395.3" cy="358.8" rx="143.7" ry="132.8"/>
			<g>
				<path class="st2" d="M-13,382c0,0,0.8-0.5,2.2-1.5C6.8,368.2,122.8,287.8,133,285c11-3,133.3,96,161.7,115
					c4.3-4,46.3-25,62.8-25s85.2,41,85.2,41S260,554,205,557S-1.2,570-39.6,547S-13,382-13,382z"/>
				<linearGradient id="SVGID_4_" gradientUnits="userSpaceOnUse" x1="196.7975" y1="545.8531" x2="192.9327" y2="316.8604">
					<stop  offset="0" style="stop-color:#FCFAD5"/>
					<stop  offset="1" style="stop-color:#D6E569"/>
				</linearGradient>
				<path class="st5" d="M-13,382c0,0,0.8-0.5,2.2-1.5c17.6-12.2,133.6-83.3,143.8-86.1c11-3,133.3,86.7,161.7,105.7
					c4.3-4,46.3-25,62.8-25s85.2,41,85.2,41S260,554,205,557S-1.2,570-39.6,547S-13,382-13,382z"/>
				<path class="st6" d="M133,294.3c0,0-34.9,67.3-39.4,82c0,0,18.4-5.5,30.4-8.2c10,1.9,22,57.9,29,72.9s42.5,72.6,42.5,72.6
					S20,563.5-20,561.8S-32,396-13,382C6,368,123,299.7,133,294.3z"/>
				<path class="st6" d="M131,370.8c0,0,29.5,24.7,36.5,29.2s33,15.5,33,15.5s-31.7-11.2-34.8-12.5S131,370.8,131,370.8z"/>
			</g>
			<g>
				<path class="st2" d="M816,258c0,0-101-75.3-115-84.3S582,297.3,575,299.3s-45.3-10-52.3-11s-171,150.3-190.9,157.3
					S180.6,497,148.8,504s30.2,46,84.2,50s524,59.7,598-30.6S816,258,816,258z"/>
				<linearGradient id="SVGID_5_" gradientUnits="userSpaceOnUse" x1="501.6428" y1="766.5089" x2="498.7623" y2="347.4044">
					<stop  offset="0" style="stop-color:#FCFAD5"/>
					<stop  offset="1" style="stop-color:#D6E569"/>
				</linearGradient>
				<path class="st7" d="M815.3,258c0,0-99.3-73.7-115.7-79.6c-14-9-117.3,123.6-124.3,125.6s-46-8.7-53-9.7S355.4,442,335.5,449
					s-155.6,48-187.4,55s30.2,46,84.2,50s524,59.7,598-30.6S815.3,258,815.3,258z"/>
				<path class="st8" d="M700.3,178.4c0,0,17.7,51.6,32.7,93.6c0,0,9,35.7,7,54.8c0,0-12.5-12.7-32-17.8c-13-1-25.6,67.3-25.6,67.3
					S699,478.4,734,488s102.5,76.7,118.8-13.7S816,258,816,258S712.6,181.9,700.3,178.4z"/>
				<path class="st9" d="M706.1,309.3c0,0-23.4,9.2-37.8,18.5c-12,10.6-34.2,27.5-47.2,36.2c-13,8.7-25.9,14.7-25.9,14.7
					s13.4-4.4,31.1-15.7c17.7-11.3,38.7-31.6,46.1-35.6C679.7,323.4,706.1,309.3,706.1,309.3z"/>
				<g class="st10">
					<path class="st9" d="M740,326.8C729,315,708,309,708,309s23.7,11.1,29.7,19.3c4.3,4,13,16.3,16.3,19s46,20.5,46,20.5
						c-11-5.2-44.1-24.2-44.1-24.2S751,338.7,740,326.8z"/>
				</g>
				<path class="st2" d="M706.1,309.3c0,0-29,14.4-35.1,19c-6.1,4.6-40.4,32.1-44.6,34.7s-37.9,19-37.9,19s29.8-13,39.1-18
					s37.1-26.7,46.1-33.7S706.1,309.3,706.1,309.3z"/>
			</g>
			<g>
				<path class="st2" d="M832,464c0,0-133.5-93.2-172.7-100c-37.3,17.5-104,96-174.6,124S304,522,251,536s164,111.6,281,122.3
					C649,669,897,588,832,464z"/>
				<path class="st11" d="M832,464c0,0-140-89.9-171-95.9C631.8,379.3,555.4,460,484.7,488S304,522,251,536s164,111.6,281,122.3
					C649,669,897,588,832,464z"/>
				<path class="st12" d="M661,368.1c-5.3,17.6-29.2,91.4-46,117.9c-17,24-167.4,101.1-167.4,101.1s28.9,50.9,95.2,52.9
					S809,632.3,827,574.6s32-92.5,5-110.6C713,384.1,661,368.1,661,368.1z"/>
			</g>
			<g class="st13">
				<path class="st14" d="M772.4,555.2c0.9-0.1,1.7,6.7,2.6,6.6C775.5,561.7,774.6,554.8,772.4,555.2z"/>
			</g>
			<g>
				<g>
					<path class="st15" d="M286,43.6v-0.3c-0.3,0.4-0.7,0.7-1,1c-0.3,0.3-0.7,0.4-1.1,0.6c-0.4,0.1-0.8,0.2-1.3,0.2
						c-0.6,0-1.2-0.1-1.7-0.4c-0.5-0.3-1-0.6-1.4-1.1c-0.4-0.5-0.7-1.1-0.9-1.7c-0.2-0.7-0.3-1.4-0.3-2.1c0-1.6,0.4-2.9,1.2-3.8
						c0.8-0.9,1.8-1.4,3.1-1.4c0.7,0,1.4,0.1,1.9,0.4c0.5,0.3,1,0.7,1.5,1.2v-3.8c0-0.5,0.1-0.9,0.3-1.2c0.2-0.3,0.5-0.4,0.9-0.4
						c0.4,0,0.7,0.1,0.9,0.4c0.2,0.3,0.3,0.6,0.3,1.1v11.4c0,0.5-0.1,0.9-0.3,1.1c-0.2,0.2-0.5,0.4-0.9,0.4c-0.4,0-0.6-0.1-0.9-0.4
						C286.1,44.5,286,44.1,286,43.6z M280.9,39.8c0,0.7,0.1,1.3,0.3,1.8c0.2,0.5,0.5,0.9,0.9,1.1c0.4,0.3,0.8,0.4,1.2,0.4
						c0.5,0,0.9-0.1,1.2-0.4c0.4-0.2,0.7-0.6,0.9-1.1c0.2-0.5,0.3-1.1,0.3-1.8c0-0.7-0.1-1.3-0.3-1.8c-0.2-0.5-0.5-0.9-0.9-1.1
						c-0.4-0.3-0.8-0.4-1.3-0.4c-0.5,0-0.9,0.1-1.3,0.4c-0.4,0.3-0.7,0.7-0.9,1.2C281,38.6,280.9,39.2,280.9,39.8z"/>
					<path class="st15" d="M297.5,40.5h-5.1c0,0.6,0.1,1.1,0.4,1.6c0.2,0.5,0.5,0.8,0.9,1c0.4,0.2,0.8,0.3,1.3,0.3
						c0.3,0,0.6,0,0.9-0.1c0.3-0.1,0.5-0.2,0.7-0.3c0.2-0.2,0.5-0.3,0.7-0.5c0.2-0.2,0.5-0.4,0.8-0.7c0.1-0.1,0.3-0.2,0.6-0.2
						c0.3,0,0.5,0.1,0.6,0.2c0.2,0.1,0.2,0.4,0.2,0.6c0,0.2-0.1,0.5-0.3,0.8c-0.2,0.3-0.5,0.6-0.8,0.9c-0.4,0.3-0.8,0.5-1.4,0.7
						c-0.6,0.2-1.2,0.3-1.9,0.3c-1.7,0-3-0.5-3.9-1.4s-1.4-2.2-1.4-3.9c0-0.8,0.1-1.5,0.3-2.1c0.2-0.7,0.6-1.2,1-1.7
						c0.4-0.5,1-0.8,1.6-1.1c0.6-0.3,1.3-0.4,2.1-0.4c1,0,1.9,0.2,2.6,0.6c0.7,0.4,1.3,1,1.6,1.7c0.4,0.7,0.5,1.4,0.5,2.1
						c0,0.7-0.2,1.1-0.6,1.3C298.7,40.4,298.1,40.5,297.5,40.5z M292.4,39h4.7c-0.1-0.9-0.3-1.6-0.7-2c-0.4-0.4-1-0.7-1.6-0.7
						c-0.6,0-1.2,0.2-1.6,0.7C292.7,37.5,292.5,38.1,292.4,39z"/>
					<path class="st15" d="M309.3,41.7c0,0.7-0.2,1.3-0.5,1.8c-0.3,0.5-0.9,0.9-1.5,1.2c-0.7,0.3-1.5,0.4-2.5,0.4
						c-0.9,0-1.7-0.1-2.4-0.4c-0.7-0.3-1.2-0.6-1.5-1.1c-0.3-0.4-0.5-0.9-0.5-1.3c0-0.3,0.1-0.5,0.3-0.7c0.2-0.2,0.5-0.3,0.8-0.3
						c0.3,0,0.5,0.1,0.6,0.2c0.1,0.1,0.3,0.3,0.4,0.6c0.3,0.5,0.6,0.8,1,1c0.4,0.2,0.9,0.3,1.5,0.3c0.5,0,0.9-0.1,1.3-0.3
						c0.3-0.2,0.5-0.5,0.5-0.8c0-0.5-0.2-0.8-0.5-1c-0.3-0.2-0.9-0.4-1.7-0.6c-0.9-0.2-1.6-0.5-2.2-0.7c-0.6-0.2-1-0.6-1.3-1
						c-0.3-0.4-0.5-0.9-0.5-1.5c0-0.5,0.2-1,0.5-1.5c0.3-0.5,0.8-0.8,1.4-1.1c0.6-0.3,1.3-0.4,2.2-0.4c0.7,0,1.3,0.1,1.8,0.2
						c0.5,0.1,1,0.3,1.3,0.6c0.4,0.2,0.6,0.5,0.8,0.8c0.2,0.3,0.3,0.6,0.3,0.8c0,0.3-0.1,0.5-0.3,0.7c-0.2,0.2-0.5,0.3-0.9,0.3
						c-0.3,0-0.5-0.1-0.7-0.2c-0.2-0.2-0.4-0.4-0.6-0.7c-0.2-0.3-0.4-0.5-0.7-0.6c-0.3-0.2-0.6-0.2-1.1-0.2c-0.5,0-0.9,0.1-1.2,0.3
						c-0.3,0.2-0.5,0.4-0.5,0.7c0,0.3,0.1,0.5,0.3,0.7c0.2,0.2,0.5,0.3,0.9,0.4c0.4,0.1,0.9,0.3,1.6,0.4c0.8,0.2,1.5,0.4,2,0.7
						c0.5,0.3,0.9,0.6,1.2,1C309.1,40.8,309.3,41.2,309.3,41.7z"/>
					<path class="st15" d="M311.9,33.4c-0.4,0-0.7-0.1-0.9-0.3c-0.3-0.2-0.4-0.5-0.4-0.9c0-0.4,0.1-0.7,0.4-0.9
						c0.3-0.2,0.6-0.4,0.9-0.4c0.3,0,0.6,0.1,0.9,0.3c0.3,0.2,0.4,0.5,0.4,0.9c0,0.4-0.1,0.7-0.4,0.9
						C312.6,33.2,312.3,33.4,311.9,33.4z M313.2,36v7.5c0,0.5-0.1,0.9-0.4,1.2c-0.2,0.3-0.6,0.4-0.9,0.4s-0.7-0.1-0.9-0.4
						c-0.2-0.3-0.4-0.7-0.4-1.2v-7.4c0-0.5,0.1-0.9,0.4-1.2c0.2-0.3,0.5-0.4,0.9-0.4s0.7,0.1,0.9,0.4
						C313.1,35.2,313.2,35.6,313.2,36z"/>
					<path class="st15" d="M324.6,36.5V44c0,0.9-0.1,1.6-0.3,2.2c-0.2,0.6-0.5,1.1-0.9,1.5c-0.4,0.4-0.9,0.7-1.6,0.9
						c-0.7,0.2-1.5,0.3-2.4,0.3c-0.9,0-1.7-0.1-2.4-0.4c-0.7-0.3-1.2-0.6-1.6-1c-0.4-0.4-0.6-0.8-0.6-1.2c0-0.3,0.1-0.6,0.3-0.8
						c0.2-0.2,0.5-0.3,0.8-0.3c0.4,0,0.7,0.2,1,0.5c0.1,0.2,0.3,0.3,0.4,0.5c0.1,0.2,0.3,0.3,0.5,0.4c0.2,0.1,0.4,0.2,0.7,0.3
						c0.3,0.1,0.5,0.1,0.9,0.1c0.7,0,1.2-0.1,1.6-0.3c0.4-0.2,0.6-0.4,0.8-0.8c0.1-0.3,0.2-0.7,0.3-1.1c0-0.4,0-1,0.1-1.8
						c-0.4,0.6-0.9,1-1.4,1.3c-0.5,0.3-1.1,0.4-1.9,0.4c-0.9,0-1.6-0.2-2.3-0.7c-0.6-0.4-1.1-1.1-1.5-1.9c-0.3-0.8-0.5-1.7-0.5-2.8
						c0-0.8,0.1-1.5,0.3-2.1c0.2-0.6,0.5-1.2,0.9-1.6c0.4-0.4,0.8-0.8,1.4-1c0.5-0.2,1.1-0.3,1.7-0.3c0.7,0,1.4,0.1,1.9,0.4
						c0.5,0.3,1,0.7,1.5,1.3V36c0-0.4,0.1-0.8,0.3-1c0.2-0.2,0.5-0.4,0.9-0.4c0.5,0,0.8,0.2,1,0.5C324.5,35.4,324.6,35.8,324.6,36.5
						z M317,39.7c0,1.1,0.2,1.8,0.7,2.4c0.5,0.5,1.1,0.8,1.8,0.8c0.4,0,0.8-0.1,1.2-0.3c0.4-0.2,0.7-0.6,0.9-1
						c0.2-0.5,0.4-1,0.4-1.7c0-1.1-0.2-1.9-0.7-2.5c-0.5-0.6-1.1-0.9-1.8-0.9c-0.7,0-1.3,0.3-1.8,0.8C317.3,37.9,317,38.7,317,39.7z
						"/>
					<path class="st15" d="M328.7,36v0.3c0.5-0.6,1-1,1.5-1.3c0.5-0.3,1.2-0.4,1.9-0.4c0.7,0,1.3,0.1,1.8,0.4
						c0.5,0.3,0.9,0.7,1.2,1.3c0.2,0.3,0.3,0.7,0.3,1c0.1,0.4,0.1,0.8,0.1,1.4v4.8c0,0.5-0.1,0.9-0.4,1.2c-0.2,0.3-0.5,0.4-0.9,0.4
						c-0.4,0-0.7-0.1-0.9-0.4c-0.2-0.3-0.4-0.7-0.4-1.2v-4.3c0-0.9-0.1-1.5-0.4-2c-0.2-0.5-0.7-0.7-1.4-0.7c-0.5,0-0.9,0.1-1.3,0.4
						c-0.4,0.3-0.7,0.7-0.8,1.1c-0.1,0.4-0.2,1.1-0.2,2.2v3.2c0,0.5-0.1,0.9-0.4,1.2c-0.2,0.3-0.6,0.4-0.9,0.4
						c-0.4,0-0.7-0.1-0.9-0.4c-0.2-0.3-0.4-0.7-0.4-1.2V36c0-0.5,0.1-0.9,0.3-1.1c0.2-0.2,0.5-0.4,0.9-0.4c0.2,0,0.4,0.1,0.6,0.2
						c0.2,0.1,0.3,0.3,0.4,0.5C328.6,35.4,328.7,35.7,328.7,36z"/>
					<path class="st15" d="M344.5,40.5h-5.1c0,0.6,0.1,1.1,0.4,1.6c0.2,0.5,0.5,0.8,0.9,1c0.4,0.2,0.8,0.3,1.3,0.3
						c0.3,0,0.6,0,0.9-0.1c0.3-0.1,0.5-0.2,0.7-0.3c0.2-0.2,0.5-0.3,0.7-0.5c0.2-0.2,0.5-0.4,0.8-0.7c0.1-0.1,0.3-0.2,0.6-0.2
						c0.3,0,0.5,0.1,0.6,0.2c0.2,0.1,0.2,0.4,0.2,0.6c0,0.2-0.1,0.5-0.3,0.8c-0.2,0.3-0.5,0.6-0.8,0.9c-0.4,0.3-0.8,0.5-1.4,0.7
						c-0.6,0.2-1.2,0.3-1.9,0.3c-1.7,0-3-0.5-3.9-1.4c-0.9-0.9-1.4-2.2-1.4-3.9c0-0.8,0.1-1.5,0.3-2.1c0.2-0.7,0.6-1.2,1-1.7
						c0.4-0.5,1-0.8,1.6-1.1c0.6-0.3,1.3-0.4,2.1-0.4c1,0,1.9,0.2,2.6,0.6c0.7,0.4,1.3,1,1.6,1.7c0.4,0.7,0.5,1.4,0.5,2.1
						c0,0.7-0.2,1.1-0.6,1.3C345.7,40.4,345.1,40.5,344.5,40.5z M339.4,39h4.7c-0.1-0.9-0.3-1.6-0.7-2c-0.4-0.4-1-0.7-1.6-0.7
						c-0.6,0-1.2,0.2-1.6,0.7C339.7,37.5,339.5,38.1,339.4,39z"/>
					<path class="st15" d="M355,43.6v-0.3c-0.3,0.4-0.7,0.7-1,1c-0.3,0.3-0.7,0.4-1.1,0.6c-0.4,0.1-0.8,0.2-1.3,0.2
						c-0.6,0-1.2-0.1-1.7-0.4c-0.5-0.3-1-0.6-1.4-1.1c-0.4-0.5-0.7-1.1-0.9-1.7c-0.2-0.7-0.3-1.4-0.3-2.1c0-1.6,0.4-2.9,1.2-3.8
						c0.8-0.9,1.8-1.4,3.1-1.4c0.7,0,1.4,0.1,1.9,0.4c0.5,0.3,1,0.7,1.5,1.2v-3.8c0-0.5,0.1-0.9,0.3-1.2c0.2-0.3,0.5-0.4,0.9-0.4
						c0.4,0,0.7,0.1,0.9,0.4c0.2,0.3,0.3,0.6,0.3,1.1v11.4c0,0.5-0.1,0.9-0.3,1.1c-0.2,0.2-0.5,0.4-0.9,0.4c-0.4,0-0.6-0.1-0.9-0.4
						C355.1,44.5,355,44.1,355,43.6z M349.9,39.8c0,0.7,0.1,1.3,0.3,1.8c0.2,0.5,0.5,0.9,0.9,1.1c0.4,0.3,0.8,0.4,1.2,0.4
						c0.5,0,0.9-0.1,1.2-0.4c0.4-0.2,0.7-0.6,0.9-1.1c0.2-0.5,0.3-1.1,0.3-1.8c0-0.7-0.1-1.3-0.3-1.8c-0.2-0.5-0.5-0.9-0.9-1.1
						c-0.4-0.3-0.8-0.4-1.3-0.4c-0.5,0-0.9,0.1-1.3,0.4c-0.4,0.3-0.7,0.7-0.9,1.2C350,38.6,349.9,39.2,349.9,39.8z"/>
					<path class="st15" d="M365.6,32.2v4c0.5-0.5,1-0.9,1.5-1.2c0.5-0.3,1.1-0.4,1.9-0.4c0.9,0,1.6,0.2,2.3,0.6
						c0.6,0.4,1.2,1,1.5,1.8c0.4,0.8,0.5,1.7,0.5,2.8c0,0.8-0.1,1.5-0.3,2.2c-0.2,0.7-0.5,1.2-0.9,1.7c-0.4,0.5-0.8,0.9-1.4,1.1
						c-0.5,0.3-1.1,0.4-1.8,0.4c-0.4,0-0.8,0-1.1-0.1c-0.4-0.1-0.7-0.2-0.9-0.4c-0.2-0.2-0.5-0.3-0.6-0.5c-0.2-0.2-0.4-0.4-0.7-0.7
						v0.3c0,0.5-0.1,0.9-0.4,1.1c-0.2,0.3-0.5,0.4-0.9,0.4c-0.4,0-0.7-0.1-0.9-0.4c-0.2-0.3-0.3-0.6-0.3-1.1V32.3
						c0-0.5,0.1-0.9,0.3-1.2c0.2-0.3,0.5-0.4,0.9-0.4c0.4,0,0.7,0.1,0.9,0.4C365.5,31.3,365.6,31.7,365.6,32.2z M365.7,39.9
						c0,1,0.2,1.8,0.7,2.4c0.5,0.6,1.1,0.8,1.9,0.8c0.7,0,1.2-0.3,1.7-0.9c0.5-0.6,0.7-1.4,0.7-2.4c0-0.7-0.1-1.3-0.3-1.8
						c-0.2-0.5-0.5-0.9-0.8-1.1c-0.4-0.3-0.8-0.4-1.3-0.4c-0.5,0-0.9,0.1-1.3,0.4c-0.4,0.3-0.7,0.7-0.9,1.2
						C365.9,38.6,365.7,39.2,365.7,39.9z"/>
					<path class="st15" d="M376.7,45.4l0.2-0.6l-3.2-8c-0.2-0.5-0.3-0.8-0.3-1c0-0.2,0.1-0.4,0.2-0.6c0.1-0.2,0.3-0.3,0.5-0.5
						c0.2-0.1,0.4-0.2,0.6-0.2c0.4,0,0.7,0.1,0.8,0.4c0.2,0.2,0.4,0.6,0.5,1l2.2,6.4l2.1-5.9c0.2-0.5,0.3-0.9,0.4-1.1
						c0.1-0.3,0.3-0.5,0.4-0.5c0.1-0.1,0.4-0.1,0.6-0.1c0.2,0,0.4,0.1,0.6,0.2c0.2,0.1,0.3,0.2,0.4,0.4c0.1,0.2,0.1,0.4,0.1,0.6
						c0,0.1-0.1,0.3-0.1,0.5c-0.1,0.2-0.1,0.4-0.2,0.7l-3.4,8.9c-0.3,0.8-0.6,1.4-0.9,1.8c-0.3,0.4-0.6,0.8-1.1,1
						c-0.5,0.2-1.1,0.4-1.9,0.4c-0.8,0-1.3-0.1-1.7-0.2c-0.4-0.2-0.6-0.5-0.6-0.9c0-0.3,0.1-0.5,0.3-0.7c0.2-0.2,0.4-0.2,0.8-0.2
						c0.1,0,0.3,0,0.4,0.1c0.2,0,0.3,0.1,0.4,0.1c0.3,0,0.5,0,0.7-0.1c0.2-0.1,0.3-0.2,0.5-0.5C376.3,46.2,376.5,45.9,376.7,45.4z"
						/>
				</g>
				<g>
					<path class="st15" d="M414.2,34.8h0.6V34c0-0.8,0.1-1.5,0.3-1.9c0.2-0.5,0.6-0.8,1-1c0.5-0.2,1.2-0.3,2-0.3
						c1.5,0,2.3,0.4,2.3,1.1c0,0.2-0.1,0.4-0.2,0.6c-0.2,0.2-0.3,0.3-0.6,0.3c-0.1,0-0.3,0-0.5-0.1c-0.2,0-0.5-0.1-0.6-0.1
						c-0.5,0-0.8,0.1-0.9,0.4c-0.1,0.3-0.2,0.7-0.2,1.2v0.6h0.6c1,0,1.5,0.3,1.5,0.9c0,0.4-0.1,0.7-0.4,0.8
						c-0.3,0.1-0.6,0.2-1.1,0.2h-0.6v6.9c0,0.5-0.1,0.9-0.4,1.2c-0.2,0.3-0.6,0.4-0.9,0.4c-0.4,0-0.7-0.1-0.9-0.4
						c-0.2-0.3-0.4-0.7-0.4-1.2v-6.9h-0.7c-0.4,0-0.7-0.1-0.9-0.3c-0.2-0.2-0.3-0.4-0.3-0.7C412.9,35.1,413.4,34.8,414.2,34.8"/>
					<path class="st15" d="M422.7,41.4v2.2c0,0.5-0.1,0.9-0.4,1.2c-0.2,0.3-0.6,0.4-0.9,0.4c-0.4,0-0.7-0.1-0.9-0.4
						c-0.2-0.3-0.4-0.7-0.4-1.2v-7.2c0-1.2,0.4-1.7,1.3-1.7c0.4,0,0.7,0.1,0.9,0.4c0.2,0.3,0.3,0.7,0.3,1.2c0.3-0.5,0.6-0.9,0.9-1.2
						c0.3-0.3,0.8-0.4,1.3-0.4c0.5,0,1.1,0.1,1.6,0.4c0.5,0.3,0.8,0.6,0.8,1.1c0,0.3-0.1,0.6-0.3,0.8c-0.2,0.2-0.5,0.3-0.7,0.3
						c-0.1,0-0.3-0.1-0.7-0.2c-0.4-0.1-0.7-0.2-1-0.2c-0.4,0-0.7,0.1-0.9,0.3c-0.2,0.2-0.4,0.5-0.6,0.9c-0.1,0.4-0.2,0.9-0.3,1.4
						C422.7,39.9,422.7,40.6,422.7,41.4"/>
					<path class="st15" d="M434.6,40.5h-5.1c0,0.6,0.1,1.1,0.4,1.6c0.2,0.4,0.5,0.8,0.9,1c0.4,0.2,0.8,0.3,1.3,0.3
						c0.3,0,0.6,0,0.8-0.1c0.3-0.1,0.5-0.2,0.7-0.3c0.2-0.2,0.5-0.3,0.7-0.5c0.2-0.2,0.5-0.4,0.8-0.7c0.1-0.1,0.3-0.2,0.6-0.2
						c0.3,0,0.5,0.1,0.6,0.2c0.2,0.1,0.2,0.4,0.2,0.6c0,0.2-0.1,0.5-0.3,0.8c-0.2,0.3-0.5,0.6-0.8,0.9c-0.4,0.3-0.8,0.5-1.4,0.7
						c-0.6,0.2-1.2,0.3-1.9,0.3c-1.7,0-3-0.5-3.9-1.4c-0.9-1-1.4-2.2-1.4-3.9c0-0.8,0.1-1.5,0.3-2.1c0.2-0.7,0.6-1.2,1-1.7
						c0.4-0.5,1-0.8,1.6-1.1c0.6-0.2,1.3-0.4,2.1-0.4c1,0,1.9,0.2,2.6,0.6c0.7,0.4,1.3,1,1.6,1.7c0.4,0.7,0.5,1.4,0.5,2.1
						c0,0.6-0.2,1.1-0.6,1.3C435.8,40.4,435.3,40.5,434.6,40.5 M429.6,39h4.7c-0.1-0.9-0.3-1.5-0.7-2c-0.4-0.4-1-0.7-1.6-0.7
						c-0.6,0-1.2,0.2-1.6,0.7C429.9,37.5,429.7,38.1,429.6,39"/>
					<path class="st15" d="M445.4,40.5h-5.1c0,0.6,0.1,1.1,0.4,1.6c0.2,0.4,0.5,0.8,0.9,1c0.4,0.2,0.8,0.3,1.3,0.3
						c0.3,0,0.6,0,0.8-0.1c0.3-0.1,0.5-0.2,0.8-0.3c0.2-0.2,0.5-0.3,0.7-0.5c0.2-0.2,0.5-0.4,0.8-0.7c0.1-0.1,0.3-0.2,0.6-0.2
						c0.3,0,0.5,0.1,0.7,0.2c0.2,0.1,0.2,0.4,0.2,0.6c0,0.2-0.1,0.5-0.3,0.8c-0.2,0.3-0.5,0.6-0.8,0.9c-0.4,0.3-0.8,0.5-1.4,0.7
						c-0.6,0.2-1.2,0.3-1.9,0.3c-1.7,0-3-0.5-3.9-1.4c-0.9-1-1.4-2.2-1.4-3.9c0-0.8,0.1-1.5,0.3-2.1c0.2-0.7,0.6-1.2,1-1.7
						c0.4-0.5,1-0.8,1.6-1.1c0.6-0.2,1.4-0.4,2.1-0.4c1,0,1.9,0.2,2.6,0.6c0.7,0.4,1.3,1,1.6,1.7c0.4,0.7,0.5,1.4,0.5,2.1
						c0,0.6-0.2,1.1-0.6,1.3C446.6,40.4,446.1,40.5,445.4,40.5 M440.4,39h4.7c-0.1-0.9-0.3-1.5-0.7-2c-0.4-0.4-1-0.7-1.6-0.7
						c-0.6,0-1.2,0.2-1.6,0.7C440.7,37.5,440.4,38.1,440.4,39"/>
					<path class="st15" d="M451.1,36v0.3c0.5-0.6,1-1,1.5-1.3c0.5-0.3,1.1-0.4,1.8-0.4c0.8,0,1.5,0.2,2.2,0.6c0.7,0.4,1.2,1,1.6,1.8
						c0.4,0.8,0.6,1.7,0.6,2.8c0,0.8-0.1,1.5-0.3,2.2c-0.2,0.7-0.5,1.2-0.9,1.7c-0.4,0.5-0.9,0.8-1.4,1c-0.5,0.2-1.1,0.4-1.7,0.4
						c-0.7,0-1.4-0.1-1.9-0.4c-0.5-0.3-1-0.7-1.4-1.3v3.9c0,1.1-0.4,1.7-1.2,1.7c-0.5,0-0.8-0.1-1-0.4c-0.2-0.3-0.2-0.7-0.2-1.3V36
						c0-0.5,0.1-0.9,0.3-1.1c0.2-0.2,0.5-0.4,0.9-0.4c0.4,0,0.7,0.1,0.9,0.4C451,35.2,451.1,35.5,451.1,36 M456.2,39.8
						c0-0.7-0.1-1.3-0.3-1.8c-0.2-0.5-0.5-0.9-0.9-1.1c-0.4-0.3-0.8-0.4-1.2-0.4c-0.7,0-1.3,0.3-1.8,0.8c-0.5,0.6-0.7,1.4-0.7,2.5
						c0,1,0.2,1.8,0.7,2.4c0.5,0.6,1.1,0.9,1.8,0.9c0.4,0,0.8-0.1,1.2-0.4c0.4-0.3,0.7-0.6,0.9-1.1
						C456.1,41.1,456.2,40.5,456.2,39.8"/>
					<path class="st15" d="M461.4,33.4c-0.4,0-0.7-0.1-0.9-0.3c-0.3-0.2-0.4-0.5-0.4-0.9c0-0.4,0.1-0.7,0.4-0.9
						c0.3-0.2,0.6-0.4,0.9-0.4c0.3,0,0.6,0.1,0.9,0.3c0.3,0.2,0.4,0.5,0.4,0.9c0,0.4-0.1,0.7-0.4,0.9
						C462.1,33.2,461.8,33.4,461.4,33.4 M462.7,36v7.5c0,0.5-0.1,0.9-0.4,1.2c-0.3,0.3-0.6,0.4-0.9,0.4c-0.4,0-0.7-0.1-0.9-0.4
						c-0.2-0.3-0.4-0.7-0.4-1.2v-7.4c0-0.5,0.1-0.9,0.4-1.2c0.2-0.3,0.5-0.4,0.9-0.4c0.4,0,0.7,0.1,0.9,0.4
						C462.6,35.2,462.7,35.6,462.7,36"/>
					<path class="st15" d="M471.1,43.9l-2.3-3.8l-1.4,1.3v2.1c0,0.5-0.1,0.9-0.4,1.1c-0.3,0.3-0.6,0.4-0.9,0.4
						c-0.4,0-0.7-0.1-0.9-0.4c-0.2-0.3-0.3-0.7-0.3-1.2V32.5c0-0.6,0.1-1,0.3-1.3c0.2-0.3,0.5-0.5,1-0.5c0.4,0,0.7,0.1,0.9,0.4
						c0.2,0.3,0.4,0.7,0.4,1.2v6.3l2.9-3.1c0.4-0.4,0.6-0.6,0.8-0.8c0.2-0.1,0.4-0.2,0.7-0.2c0.3,0,0.6,0.1,0.8,0.3
						c0.2,0.2,0.3,0.5,0.3,0.8c0,0.4-0.4,0.9-1.1,1.5l-1.4,1.3l2.7,4.2c0.2,0.3,0.3,0.5,0.4,0.7c0.1,0.2,0.1,0.3,0.1,0.5
						c0,0.4-0.1,0.7-0.3,1c-0.2,0.2-0.5,0.4-0.9,0.4c-0.3,0-0.6-0.1-0.7-0.3C471.6,44.7,471.3,44.4,471.1,43.9"/>
					<path class="st15" d="M476.7,45.1c-0.4,0-0.7-0.1-1-0.4c-0.3-0.2-0.4-0.6-0.4-1.1c0-0.4,0.1-0.7,0.4-1c0.3-0.3,0.6-0.4,1-0.4
						c0.4,0,0.7,0.1,1,0.4c0.3,0.3,0.4,0.6,0.4,1c0,0.5-0.1,0.8-0.4,1.1C477.4,45,477.1,45.1,476.7,45.1"/>
					<path class="st15" d="M489.6,41.9c0,0.3-0.1,0.7-0.3,1c-0.2,0.4-0.5,0.7-0.9,1c-0.4,0.3-0.9,0.6-1.5,0.8
						c-0.6,0.2-1.3,0.3-2,0.3c-1.6,0-2.9-0.5-3.8-1.4c-0.9-0.9-1.3-2.2-1.3-3.8c0-1.1,0.2-2,0.6-2.8c0.4-0.8,1-1.4,1.8-1.9
						c0.8-0.4,1.7-0.7,2.8-0.7c0.7,0,1.3,0.1,1.9,0.3c0.6,0.2,1,0.5,1.4,0.8c0.4,0.3,0.7,0.6,0.9,1c0.2,0.4,0.3,0.7,0.3,1
						c0,0.3-0.1,0.6-0.3,0.8c-0.2,0.2-0.5,0.3-0.8,0.3c-0.2,0-0.4-0.1-0.5-0.2c-0.1-0.1-0.3-0.3-0.5-0.5c-0.3-0.5-0.6-0.8-1-1.1
						c-0.3-0.2-0.8-0.4-1.3-0.4c-0.8,0-1.4,0.3-1.9,0.9c-0.5,0.6-0.7,1.4-0.7,2.5c0,0.5,0.1,0.9,0.2,1.3c0.1,0.4,0.3,0.8,0.5,1
						c0.2,0.3,0.5,0.5,0.8,0.7c0.3,0.2,0.7,0.2,1.1,0.2c0.5,0,1-0.1,1.3-0.4c0.4-0.2,0.7-0.6,1-1.1c0.2-0.3,0.3-0.5,0.5-0.7
						c0.2-0.2,0.4-0.2,0.7-0.2c0.3,0,0.6,0.1,0.8,0.4C489.5,41.4,489.6,41.6,489.6,41.9"/>
					<path class="st15" d="M500.8,39.8c0,0.8-0.1,1.5-0.4,2.1c-0.2,0.7-0.6,1.2-1,1.7c-0.5,0.5-1,0.8-1.6,1.1
						c-0.6,0.2-1.3,0.4-2.1,0.4c-0.8,0-1.5-0.1-2.1-0.4c-0.6-0.2-1.2-0.6-1.6-1.1c-0.5-0.5-0.8-1-1.1-1.7c-0.2-0.6-0.4-1.4-0.4-2.1
						c0-0.8,0.1-1.5,0.4-2.2c0.2-0.7,0.6-1.2,1-1.7c0.5-0.5,1-0.8,1.6-1.1c0.6-0.2,1.3-0.4,2.1-0.4c0.8,0,1.5,0.1,2.1,0.4
						c0.6,0.3,1.2,0.6,1.6,1.1c0.5,0.5,0.8,1,1,1.7C500.7,38.3,500.8,39.1,500.8,39.8 M498.2,39.8c0-1.1-0.2-1.9-0.7-2.5
						c-0.5-0.6-1.1-0.9-1.9-0.9c-0.5,0-1,0.1-1.3,0.4c-0.4,0.3-0.7,0.6-0.9,1.2c-0.2,0.5-0.3,1.1-0.3,1.8c0,0.7,0.1,1.3,0.3,1.8
						c0.2,0.5,0.5,0.9,0.9,1.2c0.4,0.3,0.8,0.4,1.4,0.4c0.8,0,1.4-0.3,1.9-0.9C497.9,41.7,498.2,40.9,498.2,39.8"/>
					<path class="st15" d="M510.7,40v3.4c0,0.5-0.1,1-0.4,1.2c-0.3,0.3-0.6,0.4-1,0.4c-0.4,0-0.7-0.1-1-0.4
						c-0.2-0.3-0.4-0.7-0.4-1.2v-4.1c0-0.7,0-1.2-0.1-1.5c0-0.4-0.2-0.7-0.4-0.9c-0.2-0.2-0.5-0.4-0.9-0.4c-0.9,0-1.4,0.3-1.7,0.9
						c-0.3,0.6-0.4,1.4-0.4,2.5v3.5c0,0.5-0.1,0.9-0.4,1.2c-0.2,0.3-0.6,0.4-1,0.4c-0.4,0-0.7-0.1-1-0.4c-0.3-0.3-0.4-0.7-0.4-1.2
						v-7.4c0-0.5,0.1-0.9,0.3-1.1c0.2-0.3,0.5-0.4,0.9-0.4c0.4,0,0.7,0.1,0.9,0.4c0.2,0.2,0.4,0.6,0.4,1v0.2
						c0.5-0.5,0.9-0.9,1.4-1.2c0.5-0.3,1.1-0.4,1.7-0.4c0.7,0,1.2,0.1,1.7,0.4c0.5,0.3,0.9,0.7,1.2,1.2c0.4-0.5,0.9-0.9,1.4-1.2
						c0.5-0.3,1.1-0.4,1.7-0.4c0.7,0,1.3,0.1,1.8,0.4c0.5,0.3,0.9,0.7,1.1,1.2c0.2,0.5,0.3,1.2,0.3,2.2v5.1c0,0.5-0.1,1-0.4,1.2
						c-0.2,0.3-0.6,0.4-1,0.4c-0.4,0-0.7-0.1-1-0.4c-0.3-0.3-0.4-0.7-0.4-1.2v-4.4c0-0.6,0-1-0.1-1.3c0-0.3-0.2-0.6-0.4-0.8
						c-0.2-0.2-0.5-0.3-1-0.3c-0.3,0-0.7,0.1-1,0.3c-0.3,0.2-0.5,0.5-0.7,0.8C510.8,38.1,510.7,38.9,510.7,40"/>
				</g>
				<g>
					<path class="st15" d="M390,39.2C390,39.2,390,39.2,390,39.2C390,39.2,390,39.2,390,39.2z"/>
					<path class="st15" d="M390.1,40C390.1,40,390.1,40,390.1,40c0-0.2-0.1-0.5-0.1-0.7C390,39.6,390.1,39.8,390.1,40z"/>
					<path class="st15" d="M391,42.4C391,42.4,390.9,42.4,391,42.4C390.9,42.4,391,42.4,391,42.4z"/>
					<path class="st15" d="M390.9,42.3c0,0,0-0.1-0.1-0.1C390.8,42.2,390.9,42.2,390.9,42.3z"/>
					<path class="st15" d="M390.3,41c0.1,0.4,0.3,0.8,0.5,1.2C390.6,41.7,390.5,41.4,390.3,41C390.3,41,390.3,41,390.3,41z"/>
					<path class="st15" d="M400,29.3c0.5,0,0.9,0,1.3,0.1l0.1-0.8c0,0-1.2-0.4-2.7-0.2l-0.1-0.4c0.5-0.1,0.8-0.5,0.8-1
						c0-0.6-0.5-1.1-1.1-1.1c-0.6,0-1.1,0.5-1.1,1.1c0,0.5,0.4,0.9,0.8,1l0.1,0.5c-1.6,0.2-2.9,0.9-2.9,0.9l0.2,0.7
						c1-0.3,1.8-0.5,2.6-0.6C399,29.3,399.5,29.3,400,29.3z"/>
					<path class="st15" d="M390.9,33.1L390.9,33.1c0-0.1,0.1-0.1,0.1-0.2l-0.3-0.2l-0.5-0.4c0,0-0.8,0.7-1.4,2c0,0-0.1-0.1-0.1-0.1
						c-0.2-0.2-0.4-0.3-0.8-0.3c0,0,0,0,0,0c-0.2,0-0.3-0.1-0.4-0.1c0.1-0.1,0.1-0.3,0.1-0.4c0-0.4-0.3-0.7-0.7-0.7
						c-0.4,0-0.7,0.3-0.7,0.7c0,0.4,0.3,0.7,0.7,0.7c0.1,0,0.1,0,0.2,0c0.2,0.2,0.4,0.3,0.8,0.3c0.2,0,0.3,0,0.4,0.2
						c0.1,0.1,0.1,0.3,0.2,0.4c0,0,0,0,0,0c-0.4,1.2-0.3,2.7-0.3,2.7l1.1,0c0-0.5,0.1-1.5,0.4-2.2C390.3,34.1,390.9,33.2,390.9,33.1
						z"/>
					<path class="st15" d="M409.2,30.2c-0.4,0-0.7,0.3-0.7,0.7c0,0.1,0,0.1,0,0.2c-0.2,0.2-0.3,0.4-0.3,0.8c0,0.2,0,0.3-0.2,0.4
						c-0.1,0.1-0.2,0.1-0.3,0.1c-0.8-1.1-1.8-1.8-1.8-1.8l-0.8,0.8c0.6,0.5,1.2,1.2,1.7,2c0.4,0.6,0.8,1.3,1.1,2l1-0.5
						c0,0-0.5-1.2-1.1-2.2c0.1,0,0.2-0.1,0.3-0.2c0.2-0.2,0.3-0.4,0.3-0.8c0-0.2,0.1-0.3,0.1-0.4c0.1,0.1,0.3,0.1,0.4,0.1
						c0.4,0,0.7-0.3,0.7-0.7C409.9,30.5,409.6,30.2,409.2,30.2z"/>
					<path class="st15" d="M406.5,39.4c-1.4,0.7-3.7,1.6-6.8,2c-1.2,0.2-2.4,0.2-3.4,0.2c-1.4,0-2.6-0.1-3.6-0.2
						c-1.1-0.1-1.9-0.3-2.4-0.4c0.1,0.4,0.3,0.8,0.5,1.2c0,0,0,0,0,0c0,0,0,0.1,0.1,0.1c0,0,0,0.1,0.1,0.1c0,0,0,0,0,0
						c0.3,0.6,0.7,1.1,1.1,1.5c1.4,1.6,2.9,1.8,2.9,1.8l0,0l0,0c0,0,1.3,0.4,3.3,0.4c1.9,0,3.9-0.4,5.7-1.2c1.3-0.7,2.6-1.7,3.3-2.7
						c0.5-0.7,0.8-1.5,1-2.3c0.1-0.4,0.2-1.1,0.1-1.8C408,38.6,407.4,38.9,406.5,39.4z"/>
					<path class="st15" d="M391.4,33.5c0,0.1-0.7,0.9-1.1,2.3c-0.4,1-0.3,2.4-0.3,2.5v0c0,0.3,0,0.7,0.1,1c0,0,0,0,0,0
						c0,0,0,0.1,0,0.1c0,0.2,0.1,0.5,0.1,0.7c0.7,0.2,4.9,1.2,9.5,0.5c2.9-0.4,5.1-1.3,6.5-1.9c1.1-0.5,1.8-1,2.1-1.2
						c-0.3-1-1-2.6-1.7-3.6c-2-2.9-4.2-3.6-5.3-3.8c-0.4-0.1-0.8-0.1-1.2-0.1c-0.4,0-1,0-1.7,0.1c-0.7,0.1-1.6,0.3-2.5,0.6
						c-1.3,0.5-2.6,1.2-3.5,2l0,0C392,32.8,391.7,33,391.4,33.5z M403.7,32.8c1,0,1.7,0.8,1.7,1.7c0,1-0.8,1.7-1.7,1.7
						c-1,0-1.7-0.8-1.7-1.7C401.9,33.6,402.7,32.8,403.7,32.8z M395.4,32.7c1.6,0,2.8,1.3,2.8,2.8c0,1.6-1.3,2.8-2.8,2.8
						c-1.6,0-2.8-1.3-2.8-2.8C392.6,34,393.9,32.7,395.4,32.7z"/>
				</g>
			</g>
			<path class="st16" d="M278.3,638.2"/>
			<path class="st17" d="M258.7,619.3c0,0,2-3.2,4.5-3.1c2.6,0.1,0.9,1.6,0.9,1.6s4-2.5,5.7-2.3c1.7,0.2-0.6,1.9-0.6,1.9
				s5.3-2.3,5.6,0C275.1,619.6,266.1,623.4,258.7,619.3z"/>
			<g>
				<g>
					<g>
						<path class="st2" d="M291.4,506.2c0,0,2,2.8,5.5,1.1c0,0,2.9,1.5,3.6-2.1c2.8-0.4,1.1-3.7,0.1-3.8c2-1.1,0.4-4.3-2-3.1
							c1-2.8-5.1-8.9-9-3.5c-1.3-1.4-2.6,1.1-1.9,1.9c-2.5-1.2-6.5,3.2-1,6.1C285.5,504.5,287.8,508.5,291.4,506.2z"/>
						<path class="st18" d="M291.4,506.2c0,0,2,2.8,5.5,1.1c0,0,2.2,1.1,3-2.5c2.8-0.4,1-3.1,0-3.2c2-1.1,0.7-3.9-1.7-2.7
							c1-2.8-4.5-8.9-8.4-3.6c-1.3-1.4-2.8,0.5-2.1,1.4c-2.5-1.2-6.5,3.2-1,6.1C285.5,504.5,287.8,508.5,291.4,506.2z"/>
						<path class="st19" d="M293.8,518.6c0,0-2.1-3.7-2.2-6.8c-0.1-3,0.2-5.3,1.2-6.2c1-0.9,2.3-1.6,2.3-1.6l-1.1-0.1
							c0,0-0.8,0.8-1.1,0.6c-0.4-0.2,0.2-1.8,0.6-2.7c0.4-0.9-1.1-0.8-1.1-0.8s-0.3,3.5-0.7,3.6c-0.4,0.1-1.9-1.9-2.1-2.4
							c-0.2-0.5-0.5,0-0.5,0s1.3,2.4,1.6,2.7c0.3,0.3-2.4,8.3-1.8,12.4C290.1,519.5,293.8,518.6,293.8,518.6z"/>
						<path class="st20" d="M287.8,502.7c0,0.1,0,0.6,0.9,0.6c0.9,0,0.9-0.6,0.9-0.6s1,0.3,1.5-0.3c0.5-0.5,0.2-1-0.5-0.9
							c-0.3-0.6-0.9-0.4-1,0c-1.1-0.8-1.5,0.5-1.4,0.9C287.7,501.9,287.6,502.4,287.8,502.7z"/>
						<path class="st20" d="M293.3,503c0,0.1-0.4,0.5,0.3,1s1.1,0.2,1.1,0.2s0.6,0.9,1.3,0.8c0.7-0.1,0.9-0.6,0.3-1
							c0.2-0.6-0.4-0.9-0.7-0.7c-0.3-1.4-1.4-0.6-1.6-0.3C293.8,502.4,293.4,502.7,293.3,503z"/>
						<path class="st20" d="M289.5,501c0,0-0.1,1,0.8,1.4c0.8,0.4,1.2-0.1,1.2-0.1s0.3,0.5,0.9,0.3c0,0,0.8,1.2,2,0.2
							c0,0,1,0.7,1.3-0.2c0.3-0.8,0.1-1.4-1-1.6c-0.3-1-1.2-0.6-1.6-0.2c-0.4-1.2-1.4-1-1.6-0.4C291.6,500.4,290,499.4,289.5,501z"
							/>
						<path class="st2" d="M292,506.8c0,0-1.2,4.6,0.2,8.5C292.2,515.3,290.2,511.2,292,506.8z"/>
					</g>
					<path class="st21" d="M300.6,501.4c2-1.1,0.4-4.3-2-3.1c1-2.8-5.1-8.9-9-3.5c-1.2-1.3-2.4,0.8-2,1.8c0,0.1,0.1,0.1,0.1,0.2
						c-2.5-1.2-6.5,3.2-1,6.1c-1,1.5,0.6,4.8,3.5,3.9c-0.6,2.6-2,7.7-1.5,10.7c1.4,2.1,5,1.2,5,1.2s-1.2-2-1.8-4.3
						c-0.9-3.5,0-7.2,0.1-7.6c0,0,0,0,0,0c0.8,0.7,2.5,1.6,5,0.5c0,0,2.9,1.5,3.6-2.1C303.3,504.8,301.7,501.4,300.6,501.4z
						 M292,506.9C292,506.9,292,506.9,292,506.9C292,506.9,292,506.9,292,506.9z"/>
				</g>
				<path class="st2" d="M-35.1,528.5c0,0,116.3-43.3,300.8-20.5C460.3,532.1,605,690.6,605,690.6s-117.2,50.2-297.6,71.5
					S-0.1,734.1-25.1,689.3C-50.1,644.5-35.1,528.5-35.1,528.5z"/>
				<path class="st3" d="M-35.1,528.5c0,0,113.4-41.9,297.4-15.5C446.3,539.4,622,681.6,622,681.6s-134.2,59.3-314.6,80.6
					S-0.1,734.1-25.1,689.3C-50.1,644.5-35.1,528.5-35.1,528.5z"/>
				<path class="st22" d="M95.7,505.7c0,0-34.7,17.9-30.7,43.9s204,118.7,309.3,96.7s112.4-52.9,112.4-52.9s51.8,24,103.1,70
					c51.3,46-278,111.7-332.8,110c-54.8-1.6-248-48-268.7-114.3S0,518.8,0,518.8S53.7,507.2,95.7,505.7z"/>
				<path class="st23" d="M368.5,540c0,0,148.5,89.6,85,141.5c0,0,9.6,5,15.8,4.4c0,0,21.7-18.7,13.7-46.4
					c-8-27.6-52.3-68.2-96.4-92.9L368.5,540z"/>
				<g>
					<path class="st24" d="M453.5,681.6c0,0,9.6,5,15.8,4.4c0,0,21.7-18.7,13.7-46.4c-2.3-8-7.7-17.1-15.2-26.5
						c-2.8,1.9-6.1,3.8-9.9,5.9C472,640.8,475.6,663.5,453.5,681.6z"/>
				</g>
				<g>
					<g>
						<path class="st2" d="M270.8,590c0,0-3.4,24.6,2.5,29.1c0,0-7.9,2.4-9.3-0.6c-1.4-3,4.7-27.8,4.7-27.8L270.8,590z"/>
						<path class="st25" d="M270.8,590c0,0-4.5,24.9,1.4,29.4c0,0-6.8,2.1-8.2-0.9c-1.4-3,4.7-27.8,4.7-27.8L270.8,590z"/>
						<path class="st26" d="M270.1,590c0,0-4.5,24.9,1.4,29.3c0,0-5.5,2.3-6.9-0.7c-1.4-3,4.5-28,4.5-28L270.1,590z"/>
						<path class="st2" d="M269.4,594.1c0,0,5.1,3.7,7.8,0c0,0,7.6-0.3,5.9-8.5c3.2,0.5,3.4-6.5,0.2-7.5c3.5-5.4-11-21.3-20.6-4.3
							c-5.6-3.7-16.2,4.3-8.1,11.2C254.6,585,254.3,597,269.4,594.1z"/>
						<path class="st27" d="M269.4,594.1c0,0,5.1,3.7,7.8,0c0,0,6-0.6,4.3-8.7c3.2,0.5,4.1-5.6,0.2-6.6c3.5-5.4-9.2-20.5-18.8-3.5
							c-5.6-3.7-15.4,2.9-8.2,9.7C254.6,585,254.3,597,269.4,594.1z"/>
						<path class="st28" d="M269.4,594.1c0,0,4.5,2.5,6.7-1.9c2.2-4.4-1.4-7.4-1.4-7.4s3.8-0.3,2.1-3.8s-6.3-1.9-6.7,0
							c0,0-2.2-2.8-5.7-2.9c-3.4-0.1-4.2,4.3-4.2,4.3s-4.3,0-3.8,6.8C256.9,596,266.7,595.2,269.4,594.1z"/>
					</g>
					<path class="st21" d="M283.3,578.1c3.5-5.4-11-21.3-20.6-4.3c-5.6-3.7-16.2,4.3-8.1,11.2c0,0-0.1,3.8,2.5,6.6
						c2,3.4,7.6,3.5,10.7,2.9c-1.6,7.1-4.8,21.7-3.8,23.9c0.3,0.7,1,1.2,1.7,1.4c1.1,0.6,2.7,0.4,3.9,0.1c1.4-0.2,2.6-0.6,2.6-0.6
						l0,0c0.7-0.2,1.1-0.3,1.1-0.3c-4.3-3.2-3.7-17-3.1-24.4c1.6,0.9,4.8,2.1,6.8-0.6c0,0,7.6-0.3,5.9-8.5
						C286.3,586.1,286.4,579.1,283.3,578.1z"/>
				</g>
				<g>
					<g>
						<path class="st2" d="M194.2,478.1c0,0-1.4-5.4-6.1-5.9c-4.7-0.5-7.7,4.5-8.2,5.9c0,0-6.8-2.3-9.4,1.9s1.8,8,1.8,8
							s-5.8,4-2.6,7.7c3.2,3.8,9.5,1.9,9.5,1.9s10.6,5.6,13.9-1.4c4.5,4.2,9.2-2.8,7.3-7.5C206,485.6,201.5,475.3,194.2,478.1z"/>
						<path class="st27" d="M193.2,479c0,0-0.8-4.8-5.5-5.3c-4.7-0.5-7.3,3.1-7.8,4.5c0,0-6.8-2.3-9.4,1.9s1.8,8,1.8,8
							s-5.8,4-2.6,7.7c3.2,3.8,9.5,1.9,9.5,1.9s11.6,6.4,13.1-2.6c4.5,4.2,8.3-2,6.5-6.7C204.5,485.2,200.5,476.1,193.2,479z"/>
						<path class="st25" d="M187.7,493.4c0,0,1.8,7.5,3.5,11.5c2.4,5.6,5.4,12.4,5.4,14.6c0,0-6.5,3.7-9.6,0c0,0-1-0.7-2.4-0.7
							c0,0,2.2-6.2,2.2-10.8s-3.4-13.5-3.4-14.2c0,0,2.4-0.6,2-1.9C185.4,491.9,186.5,493.4,187.7,493.4z"/>
						<path class="st29" d="M205.9,521.6c0,0-1.4-3.4-5.6-3.8c-3.8-0.4-3.1,2.6-3.1,2.6s-1.7-2.9-5.6-3.7s-2.5,3.7-2.5,3.7
							s-6.1-8.1-5.7,0c0,0-5.2-1.6-4.5,2.7c0,0,2.8-2.2,5.5,0c0,0,2.3-2.2,4.4,0c0,0,5.4-3.9,9.9,0
							C198.7,522.9,201.1,519.1,205.9,521.6z"/>
						<path class="st2" d="M197.3,520.9c0,0-0.3-3.2,3.6-2.4s4.9,3.1,4.9,3.1s-1.3-3.1-4.8-3.7c-3.3-0.6-4.2,0.6-4.2,1.9
							c0,0-0.4-1.3-3.1-2.3C193.9,517.4,195.7,518.4,197.3,520.9z"/>
					</g>
					<path class="st21" d="M205.8,521.4C205.8,521.3,205.7,521.3,205.8,521.4c-0.1-0.1-0.1-0.1-0.1-0.1c-0.4-0.8-1.8-2.9-4.6-3.4
						c-3.3-0.6-4.2,0.6-4.2,1.9c0,0-0.1-0.2-0.4-0.6c-0.3-2.4-3.1-8.9-5.4-14.2c-0.6-1.5-1.3-3.5-1.9-5.4c1.5-0.4,2.9-1.4,3.7-3.2
						c4.5,4.2,9.2-2.8,7.3-7.5c5.6-3.1,1.2-13.4-6.1-10.6c0,0-1.4-5.4-6.1-5.9c-4.7-0.5-7.7,4.5-8.2,5.9c0,0-6.8-2.3-9.4,1.9
						c-2.6,4.2,1.8,8,1.8,8s-5.8,4-2.6,7.7c3.2,3.8,9.5,1.9,9.5,1.9s2.9,1.6,6,2.1c0.8,2.8,1.6,6,1.6,8.2c0,3-0.9,6.7-1.6,8.9
						c-1.1-0.4-2,0.3-1.8,3.5c0,0-5.2-1.6-4.5,2.7c0,0,2.8-2.2,5.5,0c0,0,2.3-2.2,4.4,0c0,0,5.4-3.9,9.9,0c0,0,2.4-3.8,7.2-1.4
						C205.9,521.6,205.8,521.5,205.8,521.4z"/>
				</g>
			</g>
			
				<radialGradient id="SVGID_6_" cx="622" cy="487.6089" r="0" gradientTransform="matrix(1 0 0 0.8707 0 63.0499)" gradientUnits="userSpaceOnUse">
				<stop  offset="0" style="stop-color:#F6FFAF"/>
				<stop  offset="1" style="stop-color:#F6FFAF;stop-opacity:0"/>
			</radialGradient>
			<path class="st30" d="M622,487.6"/>
			<g>
				<g>
					<g>
						<path class="st2" d="M535.8,581c0,0-4.9,7.1-13.9,2.7c0,0-7.2,3.8-9-5.2c-6.9-0.9-2.8-9.4-0.2-9.5c-5-2.7-1.1-10.9,5.1-7.8
							c-2.4-7.1,12.8-22.3,22.5-8.8c3.3-3.5,6.5,2.7,4.8,4.9c6.2-3,16.3,8,2.6,15.4C550.6,576.8,545.1,586.9,535.8,581z"/>
						<path class="st18" d="M535.8,581c0,0-4.9,7.1-13.9,2.7c0,0-5.6,2.7-7.5-6.3c-6.9-0.9-2.6-7.9,0.1-8c-5-2.7-1.9-9.8,4.3-6.8
							c-2.4-7.1,11.2-22.4,21-8.9c3.3-3.5,7,1.3,5.3,3.5c6.2-3,16.3,8,2.6,15.4C550.6,576.8,545.1,586.9,535.8,581z"/>
						<path class="st19" d="M530,612.3c0,0,5.4-9.3,5.6-17s-0.5-13.2-2.9-15.6s-5.9-4-5.9-4l2.9-0.4c0,0,1.9,2.1,2.8,1.6
							s-0.6-4.6-1.5-6.8c-0.9-2.1,2.7-2.1,2.7-2.1s0.7,8.9,1.8,9.1c1.1,0.2,4.7-4.8,5.2-6c0.4-1.2,1.3,0.1,1.3,0.1s-3.3,6-3.9,6.9
							c-0.7,0.8,6.1,20.8,4.5,31.1C539.1,614.5,530,612.3,530,612.3z"/>
						<path class="st20" d="M545,572.4c-0.1,0.2-0.1,1.5-2.3,1.5c-2.1-0.1-2.4-1.4-2.4-1.4s-2.6,0.7-3.8-0.7
							c-1.2-1.4-0.6-2.6,1.2-2.3c0.7-1.5,2.2-0.9,2.4,0c2.9-2,3.6,1.3,3.4,2.2C545.3,570.3,545.4,571.6,545,572.4z"/>
						<path class="st20" d="M531.1,573.1c0.1,0.3,1,1.2-0.7,2.6c-1.6,1.4-2.7,0.6-2.7,0.6s-1.5,2.2-3.3,2c-1.8-0.2-2.2-1.5-0.7-2.5
							c-0.5-1.6,1-2.2,1.8-1.7c0.8-3.4,3.6-1.5,4-0.7C529.9,571.5,530.8,572.3,531.1,573.1z"/>
						<path class="st20" d="M540.6,568c0,0,0.1,2.4-2,3.4c-2.1,1-3.1-0.4-3.1-0.4s-0.7,1.2-2.2,0.8c0,0-2,2.9-5.1,0.5
							c0,0-2.4,1.6-3.3-0.4s-0.2-3.5,2.5-4c0.8-2.6,3.1-1.5,4-0.5c1-3.1,3.6-2.5,3.9-0.9C535.4,566.6,539.5,563.9,540.6,568z"/>
						<path class="st2" d="M534.4,582.6c0,0,3.1,11.6-0.6,21.3C533.8,603.9,538.9,593.7,534.4,582.6z"/>
					</g>
					<path class="st31" d="M512.9,578.6c1.9,9,9,5.2,9,5.2c6.1,2.9,10.4,0.6,12.4-1.2c0,0,0,0,0,0.1c0.2,0.8,2.5,10.2,0.2,18.9
						c-1.6,5.7-4.5,10.8-4.5,10.8s9.1,2.1,12.5-3.1c1.2-7.5-2.2-20.3-3.8-26.9c7.4,2.3,11.5-6.1,8.9-9.7c13.7-7.3,3.6-18.4-2.6-15.4
						c0.1-0.1,0.2-0.3,0.3-0.5c1-2.5-1.9-7.7-5.1-4.4c-9.7-13.5-24.9,1.7-22.5,8.8c-6.2-3-10,5.1-5.1,7.8
						C510.1,569.2,506,577.7,512.9,578.6z M534.5,582.9C534.5,582.9,534.5,582.9,534.5,582.9C534.5,582.9,534.5,582.9,534.5,582.9z"
						/>
				</g>
				<g>
					<path class="st2" d="M852.8,510.8c0,0-139.1-42.8-256.1,39.2s-92.4,156.8-309.2,144.8s-114.7,161-114.7,161l670,10L852.8,510.8
						z"/>
					<path class="st32" d="M852.8,513.3c0,0-135.2-39.8-252.2,42.2s-96.3,153.8-313.1,141.8s-114.7,161-114.7,161l670,10
						L852.8,513.3z"/>
					<g>
						<path class="st33" d="M682.4,516.3c0,0,83.6,10.2,64.6,124S642.8,809.1,461.4,772.1C280,735,342,880,342,880l503.4-9l10.5-356
							C855.9,515,803.4,483.3,682.4,516.3z"/>
					</g>
					<path class="st34" d="M627,800c0,0-170-1.5-165-126c0,0-7,4-11.5,5.5c0,0-19.4,86.5,50.3,123.5S634.1,800.3,627,800z"/>
					<g>
						<path class="st35" d="M500.8,803c69.7,37,133.3-2.7,126.2-3c0,0-44-0.4-86.5-17.1c-22.5-1.3-47.1-4.5-73.7-9.7
							C474.6,784.5,485.6,794.9,500.8,803z"/>
					</g>
				</g>
				<g>
					<g>
						<path class="st25" d="M753.3,479c0,0-2.6,10.7-5,16.3c-3.4,8-7.7,17.7-7.7,20.7c0,0,9.2,5.2,13.6,0c0,0,1.4-1,3.4-1
							c0,0-3.2-8.7-3.2-15.4c0-6.7,4.8-19.1,4.8-20.1c0,0-3.4-0.8-2.8-2.7C756.6,476.8,755,479,753.3,479z"/>
						<path class="st2" d="M747.3,500.5c-1.8,5.2-6.6,15.3-6.6,15.3c0.1-3.4,3.6-10.9,5.6-15.6c1.7-4.1,4.1-10.9,4.7-12.5
							C751,487.6,748.6,496.8,747.3,500.5z"/>
					</g>
					<g>
						<path class="st36" d="M727.5,519c0,0,2-4.9,8-5.4c5.5-0.5,4.4,3.6,4.4,3.6s2.4-4.2,7.9-5.2s3.5,5.2,3.5,5.2s8.7-11.6,8.1,0
							c0,0,7.4-2.3,6.4,3.8c0,0-4-3.1-7.8,0c0,0-3.3-3.1-6.3,0c0,0-7.6-5.5-14.1,0C737.7,520.9,734.3,515.5,727.5,519z"/>
						<path class="st2" d="M739.7,518.1c0,0,0.5-4.6-5.2-3.5s-7,4.4-7,4.4s1.8-4.4,6.8-5.3c4.7-0.9,6,0.9,5.9,2.7
							c0,0,0.6-1.8,4.4-3.3C744.5,513,741.9,514.5,739.7,518.1z"/>
					</g>
					<g>
						<path class="st2" d="M744,457.3c0,0,2-7.7,8.7-8.3c6.7-0.7,11,6.3,11.7,8.3c0,0,9.7-3.3,13.3,2.7c3.7,6-2.5,11.3-2.5,11.3
							s8.2,5.7,3.7,11c-4.5,5.3-13.5,2.7-13.5,2.7s-15,8-19.7-2c-6.3,6-13-4-10.3-10.7C727.3,468,733.7,453.3,744,457.3z"/>
						<path class="st27" d="M745.5,458.5c0,0,1.1-6.8,7.8-7.5s10.4,4.3,11.1,6.3c0,0,9.7-3.3,13.3,2.7c3.7,6-2.5,11.3-2.5,11.3
							s8.2,5.7,3.7,11c-4.5,5.3-13.5,2.7-13.5,2.7s-16.5,9-18.7-3.8c-6.3,6-11.8-2.8-9.2-9.5C729.5,467.4,735.2,454.5,745.5,458.5z"
							/>
						<path class="st37" d="M765.3,485c0,0-12.8,6.5-17.1-5.5c0,0-5.7,4.4-7.6-2.7c-1.9-7.1,6.3-9.8,9.3-8.3c-1-6.5,9.3-10.2,12-1.5
							c3.8-5.5,19.3-10,13.1,4.3C775.1,471.3,790,486.8,765.3,485z"/>
					</g>
				</g>
				<g>
					<path class="st33" d="M566.7,745.3c0,0,22.9,12.2,27.1,17.2c0,0-12.4,3-4.3,11.1c0,0-5.6,15.9,16.9,14.9
						c22.6-1,21.1-9.3,21.1-9.3s8.1,7.8,13.9-0.6c5.8-8.3,0-9.9,0-9.9s11.7-11.5,2.6-16.2C635,748,622,755,622,755s-7.2-4-14.9,0.5
						c0,0-8.9-7.6-13.3-16.8c0,0-26.4,1.5-27.1,8.7"/>
					<g>
						<path class="st36" d="M577.4,740c0,0-4.1-3.6,0.9-7.9c5.1-4.3,6.6,1.9,6.6,1.9s0.9-3.6,5.1-4.7c4.1-1.1,4.1,2.8,4.1,2.8
							s-0.9-8.8,7.1-8.8s7.2,5.6,7.2,5.6s7.6,2.4,0,7.2c0,0,1.3,6.3-6.6,6.7c-5,0.3-7.1-1.1-7.1-1.1s-3.2,5.8-7.9,2.6
							C583.1,745.7,578.4,745.7,577.4,740z"/>
						<path class="st2" d="M587.5,730.5c0,0,6-3.6,6.6,1.6c0,0-0.4-8.6,8.2-8.8c0,0-7.5-1.3-8.5,5.5
							C593.8,728.8,590.6,726.9,587.5,730.5z"/>
					</g>
					<g>
						<path class="st2" d="M574.3,684.3c0,0,6.8,48.5-4.9,57.2c0,0,15.6,4.8,18.3-1.2c2.7-6-9.4-54.7-9.4-54.7L574.3,684.3z"/>
						<path class="st25" d="M574.3,684.3c0,0,9,49.1-2.7,57.8c0,0,13.5,4.2,16.1-1.8c2.7-6-9.4-54.7-9.4-54.7L574.3,684.3z"/>
						<path class="st26" d="M575.7,684.3c0,0,9,49-2.7,57.8c0,0,10.8,4.6,13.5-1.4s-9-55.1-9-55.1L575.7,684.3z"/>
					</g>
					<g>
						<path class="st2" d="M577.2,692.4c0,0-10,7.3-15.3,0c0,0-15-0.6-11.7-16.6c-6.3,1-6.6-12.8-0.5-14.7
							c-6.9-10.6,21.5-41.9,40.5-8.6c11-7.3,31.8,8.5,16,22C606.2,674.4,606.8,698,577.2,692.4z"/>
						<path class="st27" d="M577.2,692.4c0,0-10,7.3-15.3,0c0,0-11.8-1.1-8.5-17.1c-6.3,1-8.1-11-0.3-13c-6.8-10.6,18-40.3,37-7
							c11-7.3,30.3,5.6,16.2,19.1C606.2,674.4,606.8,698,577.2,692.4z"/>
						<path class="st28" d="M577.2,692.4c0,0-8.8,4.9-13.2-3.7c-4.3-8.7,2.7-14.7,2.7-14.7s-7.5-0.5-4.1-7.4
							c3.4-6.9,12.5-3.8,13.1,0c0,0,4.4-5.4,11.2-5.7c6.8-0.2,8.3,8.4,8.3,8.4s8.4,0,7.4,13.4S582.3,694.5,577.2,692.4z"/>
					</g>
					<g>
						<g>
							<path class="st36" d="M557.6,743c0,0,4.4-7.3,10.2-7s2,3.5,2,3.5s9-5.6,12.8-5.2c3.8,0.4-1.3,4.3-1.3,4.3s12-5.1,12.6,0
								C594.5,743.8,574.2,752.3,557.6,743z"/>
							<path class="st38" d="M551.7,743.2c0,0,8.7-1.2,11.3,0s3.7,4.2,3.7,4.2s-12.4,2-15.1,1.3C549,748,551.7,743.2,551.7,743.2z"
								/>
							<path class="st2" d="M550.5,747.3c0,0,1.2-3.6,1.7-3.8c0.5-0.2,6.4-0.2,6.4-0.2s2.9-4.4,6.2-6c3.3-1.7,6.3-0.6,4.9,2.2
								c0,0,3.6-2.1,5.4-3c0,0-3.3,1.1-4.5,1.7c0,0,1.8-3.4-2.9-2.9s-10.2,7.3-10.2,7.3s-4.8-0.3-5.9,0.5
								C550.6,743.9,550.5,747.3,550.5,747.3z"/>
						</g>
						<path class="st38" d="M585.7,752.3c-3.1-1.1-3.3-3-3.3-3s5.7-9,9.7-10.3s8.3,9,8.7,11C601,752,588.1,753.2,585.7,752.3z"/>
						<path class="st38" d="M611.8,740.7c-5.1,0.4-7-0.2-10,2.1c-3,2.3-1.1,3.5-1.1,3.5s8.9,1.5,11.1,0.7
							C614,746.3,611.8,740.7,611.8,740.7z"/>
					</g>
				</g>
			</g>
			<g>
				<g>
					<g>
						<path class="st2" d="M37.8,588.6c0,0,5.8,48.6,19.3,54.1c0,0-13.9,8.6-18,3.4s-4.8-55.3-4.8-55.3L37.8,588.6z"/>
						<path class="st25" d="M37.8,588.6c0,0,3.8,49.7,17.3,55.2c0,0-12,7.5-16.1,2.3s-4.8-55.3-4.8-55.3L37.8,588.6z"/>
						<path class="st26" d="M36.4,588.9c0,0,3.8,49.7,17.3,55.2c0,0-9.3,7.2-13.4,2.1S35,590.6,35,590.6L36.4,588.9z"/>
						<path class="st2" d="M37.1,597.1c0,0,11.5,4.5,14.8-3.9c0,0,14.3-4.4,7.1-19.1c6.4-0.6,3.2-14.1-3.3-14.4
							c3.9-12-31.4-35.1-41.3,2c-12.5-4.3-28.6,16.3-9.9,25.3C4.4,587.1,9.8,610.1,37.1,597.1z"/>
						<path class="st27" d="M37.1,597.1c0,0,11.5,4.5,14.8-3.9c0,0,11.2-4,3.9-18.7c6.4-0.6,5-12.7-3-12.7
							c3.9-12-27.7-34.4-37.6,2.6c-12.5-4.3-27.9,13.1-10.8,22.6C4.4,587.1,9.8,610.1,37.1,597.1z"/>
						<path class="st28" d="M37.1,597.1c0,0,9.8,2.5,11.8-7c2-9.5-6.4-13.5-6.4-13.5s7.1-2.4,2.1-8.2c-5-5.8-13-0.5-12.7,3.3
							c0,0-5.7-4.1-12.3-2.6c-6.6,1.5-5.9,10.3-5.9,10.3s-8.1,2.2-3.8,14.8S32.6,600.4,37.1,597.1z"/>
					</g>
					<path class="st39" d="M55.7,559.8c3.9-12-31.4-35.1-41.3,2c-12.5-4.3-28.6,16.3-9.9,25.3c0,0,1.7,7.3,8.1,11.4
						c5.6,5.5,16.2,2.8,21.8,0.2c0.4,14.3,1.6,43.7,4.7,47.5c1,1.2,2.4,1.7,4,1.8c2.4,0.5,5.3-0.6,7.4-1.8c2.6-1.1,4.6-2.4,4.6-2.4
						l0,0c1.2-0.6,2-1.1,2-1.1c-9.8-4-15.5-30.6-17.9-44.9c3.5,0.9,10.3,1.6,12.7-4.5c0,0,14.3-4.4,7.1-19.1
						C65.3,573.5,62.1,560.1,55.7,559.8z"/>
				</g>
				<g>
					<path class="st2" d="M262.3,621.9C114.1,548.9-25,597-25,597l-8,278l590.6,6.6C557.6,881.6,410.5,694.9,262.3,621.9z"/>
					<path class="st40" d="M-35.6,603.5c0,0,144.4-49.5,292.6,23.5s300.6,254.6,300.6,254.6l-601.2-0.1L-35.6,603.5z"/>
					<path class="st41" d="M52.1,588.1c0,0-57.7,89.3,60.3,157c111.6,64,292.9,11.9,305.6-4.7c0,0,33.4,25.3,97.5,97.2
						s-553.7,46-553.7,46l6.8-281.3C-31.4,602.2,7.8,589.8,52.1,588.1z"/>
				</g>
				<g>
					<g>
						<path class="st42" d="M83.7,630.5c0,0-14.1-8-21.1,5.6c0,0-9.9-4.1-10.9,6.9c0,0-10.3-2.6-10.7,6c-0.3,8.6,29.3,1,29.3,1
							S97.7,652.6,83.7,630.5z"/>
						<g>
							<path class="st42" d="M101.7,628c0,0,14.1-8,21.1,5.6c0,0,9.9-4.1,10.9,6.9c0,0,10.3-2.6,10.7,6c0.3,8.6-29.2,1-29.2,1
								S87.7,650.2,101.7,628z"/>
							<path class="st2" d="M144.3,646.6c0,0,0-8.7-10.7-6c0,0,0-11.1-10.9-6.9c0,0-6.4-12-16.2-7.4c0,0,11.5-0.8,15,9.9
								c0,0,9.5-4.3,10.7,6.2C132.3,642.3,142.1,639.2,144.3,646.6z"/>
						</g>
					</g>
					<g>
						<path class="st41" d="M42.6,644.7c0,0-17.6,9.7-12.6,24c0,0-7.7,17,2.3,22c10,5,27.7,13.7,45.2,7C95,691,107.2,681,102.8,674
							s21.5-16.3,26.2-22.3C133.7,645.7,90.9,644.3,42.6,644.7z"/>
						<path class="st2" d="M92,558.8c0,0,17.3,19.3,42.5,3c0,0,22.8,8.7,25-18.8c20.3-5.3,5-29-3-28.3c13.8-10-0.8-32.8-18-21.5
							c4.5-22-46.3-61.8-70.3-18C57,466,50,485.6,55.8,491.5c-19.5-6.8-45.6,30-2.1,46.7C46.4,551.6,66.8,579.8,92,558.8z"/>
						<path class="st43" d="M92,558.8c0,0,17.3,19.3,42.5,3c0,0,17.8,5.9,20-21.6c20.3-5.3,4.8-24.4-3.2-23.7
							c13.8-10,1.9-30-15.3-18.7c4.5-22-41.8-62.6-65.8-18.8c-11.3-9.3-20.3,6.6-14.5,12.5c-19.5-6.8-45.6,30-2.1,46.7
							C46.4,551.6,66.8,579.8,92,558.8z"/>
						<path class="st44" d="M83.9,562.9c0,0-11,8.5-22.3-0.7c-7.9-6.5-13.3-15.5-8-23.9c0,0-15.2-7-16.6-18.6
							c-1.4-11.6,9.3-24.9,23.6-23.6c0,0,10.9-13.5,17.6-0.1c0,0,2.1-10.9,12.7-12.2c10.7-1.3,27.5,5.9,25.1,20.6
							c0,0,17-3.9,10.6,13.1c0,0,24,10.3,17.7,25.3c-6.3,15-21.7,13.9-21.7,13.9s1,21.5-27,5.3L83.9,562.9z"/>
						<path class="st19" d="M121,650c0,0-19.5-25.9-23-48.5s-3.5-39.5,3-47.5s16-14,16-14h-8.7c0,0-4.8,7-7.8,5.7s0-14,2-20.8
							s-8.8-5.3-8.8-5.3s1.3,26.8-2,27.8s-15.8-12.6-17.6-16.1c-1.8-3.5-3.9,0.8-3.9,0.8s12,16.8,14.3,19s-10.5,64.3-2,94.3
							C94.8,659.7,121,650,121,650z"/>
						<path class="st44" d="M61.5,536.5c0.4,0.7,0.9,4.6,7.3,3.5s6.5-5,6.5-5s8,1,11-3.5s0.8-8-4.5-6.5c-2.8-4.3-6.9-2-7.2,0.8
							c-9.3-5-10.4,5.2-9.3,7.8C60,530.5,60.1,534.4,61.5,536.5z"/>
						<path class="st44" d="M103.4,533.6c-0.1,0.8-2.4,4,3,7.5c5.4,3.5,8.2,0.7,8.2,0.7s5.2,6.1,10.5,4.8c5.2-1.3,5.9-5.4,1-7.8
							c0.8-5-3.8-6.1-5.8-4.3c-3.5-10-11.2-3.1-12.1-0.5C106.3,528.1,103.7,531.1,103.4,533.6z"/>
						<path class="st44" d="M72.9,521.7c0,0,0.5,7.3,7.2,9.5c6.7,2.2,9.1-2.2,9.1-2.2s2.5,3.5,6.8,1.7c0,0,7,7.9,15.4-0.5
							c0,0,7.9,4,9.6-2.3c1.7-6.3-0.7-10.5-8.9-11c-3.5-7.4-9.8-3.2-12.1,0c-4.1-8.9-11.7-6.1-12-1.2
							C88,515.8,74.9,509.3,72.9,521.7z"/>
						<path class="st42" d="M136,662c0,0-5-20.3-16.7-24.3s-16.7,0-13.7,6c-13.3-7-18-3.3-14,1.7c-13-5.3-38.7-2.8-25.3,13.9
							C100.3,665.7,112.3,641,136,662z"/>
						<path class="st2" d="M97,562.9c0,0-4.9,35.8,9.6,63.3C106.5,626.2,87.6,597.8,97,562.9z"/>
						<path class="st45" d="M53.6,665c0,0,1.7-5.3,4-7.7c2.3-2.3,11.5-4,14.6-4s15.8,2.3,19.1,4c3.3,1.7,3.3,9.3,3.3,9.3
							s-21.3,4-28.7,4S53.6,665,53.6,665z"/>
					</g>
					<g>
						<path class="st41" d="M123.5,656c0,0-7.3,9.9-7.4,12.7c-0.1,2.8,4.9,3.7,4.9,3.7s-2.9,7.9,4.4,11.6s10.6,1.6,10.6,1.6
							s-7.8,17.9-2.3,20.9s22.8-1.6,26.3-6.4c0,0,1.5,14.2,11.3,11.9s16.1-11.9,16.1-11.9s33.7,11.7,47.2-4.4c0,0-36-11.4-50-11.5
							c-14-0.1-31.3-7.5-31.3-8.7C153.3,674.3,123.5,656,123.5,656z"/>
						<path class="st46" d="M126.7,672c0,0,1.3-10,3.3-10s12.6-0.5,15,1.3s6.3,8.7,6.3,8.7s-10,4-15.3,3.3
							C130.7,674.7,130,673.7,126.7,672z"/>
						<g>
							<path class="st46" d="M121.5,663.3c0,0,4.6-10.9,7.5-11.7c2.8-0.7,20-3.3,24,0c4,3.3,7,10.3,7,10.3s-14.3,4.3-22.3,4.7
								C129.7,667,121.5,663.3,121.5,663.3z"/>
							<path class="st2" d="M136,650.5c0,0,10.2-1.2,14.6-0.2c4.4,0.9,9.4,11.7,9.4,11.7s-6.4-8.8-11.2-10.3
								C144,650.3,136,650.5,136,650.5z"/>
						</g>
						<g>
							<path class="st42" d="M151.3,672c0,0,6.3-11,18.2-10s6.4,12,6.4,12s11.6-9.2,20.5-5.3s-1.1,9.8-1.1,9.8s32.2-1.2,39,17.1
								c0,0-30.3,10.1-46-11.3c0,0-9.5,13.2-19.8,6.2c0,0-24.4,11-28.6-11.7C140.1,678.8,146.7,663,151.3,672z"/>
							<path class="st2" d="M154.6,667.9c0,0,8-9.4,18.1-5.3c10,4.1,3.3,11.4,3.3,11.4s10.6-9.7,20.5-5.3s-1.1,9.8-1.1,9.8
								s30.5-1.3,37.4,13.8c0,0-9.1-13.1-41.9-12.1c0,0,10.7-7.2,4.5-9.6c-6.2-2.4-22.2,6.3-22.2,6.3s7.3-9.8-3.7-12.9
								C162.3,661.9,154.6,667.9,154.6,667.9z"/>
						</g>
					</g>
				</g>
				<g>
					<path class="st2" d="M5.5,723.3c0,0,9.3-35,35.3-37.6c26-2.6,40.1,29.2,42.7,37c0,0,33.4-14.6,47.7,8.8
						c14.3,23.4-7.2,42.1-7.2,42.1s36.5,21.5,19,42.3s-52.7,10.4-52.7,10.4s-58.6,31.2-76.8-7.8c-24.7,23.4-50.8-15.6-40.3-41.7
						C-58.1,759.9-34.8,707.7,5.5,723.3z"/>
					<path class="st47" d="M8.6,731.5c0,0,6-38.3,32-40.9s38.1,28.5,40.7,36.4c0,0,30.7-16.1,45,7.3c14.3,23.4-10.6,42-10.6,42
						s44.4,18.7,26.9,39.6s-52.7,10.4-52.7,10.4s-58.6,31.2-76.8-7.8c-24.7,23.4-50.8-15.6-40.3-41.7
						C-58.5,759.9-31.8,715.9,8.6,731.5z"/>
					<path class="st25" d="M31.1,802.9c0,0-10.2,41.8-19.5,63.8c-13.2,31.1-29.9,69-29.9,80.7c0,0,32.3,13.9,49.5-6.5
						c0,0,9.2,2.7,17,2.7c0,0-12.4-34.1-12.4-60.1c0-26,18.9-74.6,18.9-78.5c0,0-13.2-3.3-10.8-10.4
						C43.7,794.4,37.6,802.9,31.1,802.9z"/>
					<path class="st2" d="M62.6,726.7c0,0,25-15,32,13.6C94.6,740.3,84.5,719.5,62.6,726.7z"/>
					<path class="st48" d="M-25.4,822c-19.5-11.2-22.9-30.5-22.9-30.5c6.3-40,48.5-19.2,48.5-19.2c1.1-15.6,24.9-33.6,37.9-5.1
						c7.2-10.3,28.2-14.9,39.3,8.8c26.1,1.6,34,15,28.5,35.2c-5.5,20.2-16,14.9-16,14.9c-62,31.2-76.8-7.8-76.8-7.8S-1,836-25.4,822
						z"/>
				</g>
			</g>
			
				<radialGradient id="SVGID_7_" cx="384.0674" cy="326.4269" r="361.1055" gradientTransform="matrix(1 0 0 1.001 0 -0.3994)" gradientUnits="userSpaceOnUse">
				<stop  offset="0" style="stop-color:#F6FFAF"/>
				<stop  offset="1" style="stop-color:#F6FFAF;stop-opacity:0"/>
			</radialGradient>
			<ellipse class="st49" cx="378" cy="344.5" rx="389" ry="380.4"/>
		</g>
	</g>
</g>
</svg>
