<?xml version="1.0" encoding="utf-8"?>
<!-- Generator: Adobe Illustrator 19.1.1, SVG Export Plug-In . SVG Version: 6.00 Build 0)  -->
<svg version="1.1" id="图层_1" xmlns="http://www.w3.org/2000/svg" xmlns:xlink="http://www.w3.org/1999/xlink" x="0px" y="0px"
	 viewBox="566 -426.4 1984.3 1133.9" style="enable-background:new 566 -426.4 1984.3 1133.9;" xml:space="preserve">
<style type="text/css">
	.st0{fill:#2EA7E0;stroke:#000000;stroke-width:10;stroke-miterlimit:10;}
	.st1{fill:#EFEFEF;}
	.st2{fill:#DCDDDD;}
	.st3{fill:url(#XMLID_7_);}
	.st4{fill:#F7F9F9;}
	.st5{fill:url(#XMLID_8_);}
	.st6{fill:url(#XMLID_9_);}
	.st7{fill:url(#XMLID_10_);}
	.st8{clip-path:url(#SVGID_2_);fill:#E4ADC9;}
	.st9{fill:#838384;}
	.st10{fill:#FFFFFF;}
	.st11{fill:#A7A7A6;}
	.st12{fill:#E4ADC9;}
	.st13{clip-path:url(#SVGID_4_);}
	.st14{fill:url(#XMLID_13_);}
	.st15{fill:url(#XMLID_14_);}
	.st16{fill:#8FC31F;}
</style>
<path class="st0" d="M2404.1,703.2H718.2c-78,0-141.7-63.8-141.7-141.7v-841.9c-0.1-78,63.7-141.7,141.7-141.7h1685.9
	c78,0,141.7,63.8,141.7,141.7v841.9C2545.8,639.4,2482,703.2,2404.1,703.2z"/>
<g>
	<path class="st1" d="M2405.5-422.1H719.6c-77.9,0-141.7,63.7-141.7,141.7v298h1969.4v-298C2547.3-358.4,2483.5-422.1,2405.5-422.1z
		"/>
	<path d="M2405.5-421.6l-137.9,0.1l-137.9,0.5l-275.8,1.8l-137.9,0.8l-137.9,0.5l-137.9,0.2l-137.9-0.1l-137.9-0.4l-137.9-0.7
		l-275.8-1.3l-17.2-0.1h-8.6h-4.3c-1.3,0-2.8,0.1-4.3,0.1c-1.4,0-2.9,0-4.3,0.1l-4.2,0.3l-2.1,0.2c-0.7,0.1-1.4,0.2-2.1,0.2
		l-4.2,0.5c-1.4,0.2-2.8,0.5-4.2,0.7c-1.4,0.3-2.8,0.5-4.2,0.8l-4.1,1l-2.1,0.5l-2,0.6c-21.9,5.9-42.3,17.4-58.8,33
		c-8.4,7.7-15.9,16.4-22,26l-2.3,3.6l-2.1,3.7l-1.1,1.8l-1,1.9l-2,3.8c-0.6,1.3-1.2,2.6-1.8,3.9c-0.6,1.3-1.2,2.6-1.7,3.9
		c-1,2.6-2.2,5.3-3,8l-1.4,4l-1.2,4.1l-0.6,2c-0.2,0.7-0.3,1.4-0.5,2.1l-1,4.2c-0.3,1.4-0.5,2.8-0.8,4.2c-0.2,1.4-0.5,2.8-0.7,4.2
		l-0.5,4.2l-0.3,2.1l-0.2,2.1l-0.3,4.3c-0.1,1.4-0.1,2.8-0.1,4.3c0,1.4-0.1,2.8-0.1,4.3v4.3v17.2l0.2,137.9L580,17.6l-2.1-2.1
		l492.3-2.1l492.3-1l246.2-0.2l123.1,0.1l123.1,0.2l123.1,0.3l123.1,0.5l123.1,0.7l123.1,0.8l-2.8,2.8l1.7-260.3l0.1-32.5v-4.1v-1
		v-1v-2l-0.1-4.1c-0.1-1.3-0.2-2.7-0.3-4c-0.1-1.3-0.2-2.7-0.3-4l-0.5-4c-0.3-2.7-0.8-5.3-1.3-8c-2-10.6-5.3-20.9-9.7-30.8
		c-4.4-9.8-9.9-19.2-16.5-27.8c-6.6-8.6-14.1-16.4-22.4-23.3c-8.3-6.9-17.4-12.8-27.1-17.6c-9.6-4.9-19.9-8.5-30.4-11
		C2427.1-420.3,2416.3-421.6,2405.5-421.6z M2405.5-422.6c10.9,0,21.8,1.3,32.4,3.8c10.6,2.5,20.9,6.1,30.7,11
		c9.7,4.9,18.9,10.8,27.4,17.7c8.4,6.9,16,14.8,22.7,23.4s12.3,18,16.9,27.9c4.5,9.9,8,20.3,10.1,31.1c0.5,2.7,1.1,5.4,1.4,8.1
		l0.5,4.1c0.2,1.4,0.2,2.7,0.4,4.1c0.1,1.4,0.2,2.7,0.3,4.1l0.1,4.1l0.1,2v1v1v4.1l0.1,32.5l1.7,260.3v2.8h-2.9l-123.1,0.8
		L2301.2,22l-123.1,0.5L2055,22.8L1931.9,23l-123.1,0.1l-246.2-0.2l-492.3-1L578,19.8h-2.1v-2.1l0.4-137.9l0.2-137.9v-17.2v-4.3
		c0-1.4,0.1-2.9,0.1-4.3c0.1-1.5,0-2.9,0.2-4.4l0.3-4.3c1-11.6,3.5-23,7.2-34c0.9-2.8,2-5.4,3.1-8.2c0.5-1.4,1.2-2.7,1.7-4
		c0.6-1.3,1.2-2.7,1.8-4l2-3.9l1-1.9l1.1-1.9l2-3.9l2.3-3.7c6.3-9.8,13.8-18.7,22.3-26.7c16.9-16,37.7-27.7,60.1-34l2.1-0.6l2.1-0.5
		l4.2-1c1.4-0.3,2.9-0.5,4.3-0.8c1.4-0.2,2.9-0.6,4.3-0.7l4.3-0.6c0.7-0.1,1.4-0.2,2.2-0.3l2.2-0.2l4.4-0.3c1.4-0.1,2.9-0.1,4.3-0.1
		c1.5,0,2.8-0.1,4.4-0.1h4.3h8.6l17.2-0.1l275.9-1.3l137.9-0.7l137.9-0.4l137.9-0.1l137.9,0.2l137.9,0.5l137.9,0.8l275.8,1.8
		l137.9,0.5L2405.5-422.6z"/>
</g>
<g>
	<circle class="st2" cx="1562.6" cy="76.6" r="291"/>
	<path d="M1854.1,76.6c0,0,0,1.8-0.1,5.2c0,1.7-0.1,3.9-0.2,6.4c0,1.3,0,2.7-0.1,4.1c-0.1,1.5-0.2,3.1-0.4,4.7
		c-0.9,13.4-2.9,33.1-9.5,57.3c-0.8,3-1.7,6.1-2.6,9.3c-1,3.1-2.1,6.4-3.2,9.6c-1,3.3-2.3,6.6-3.6,10c-1.3,3.4-2.5,6.9-4.1,10.3
		c-5.8,14-13.3,28.6-22.7,43.4c-9.4,14.8-20.7,29.8-34.2,44.2c-6.7,7.2-14.1,14.2-21.9,21c-1.9,1.8-4,3.3-6,5s-4.1,3.3-6.2,5
		c-2.1,1.6-4.3,3.1-6.5,4.7c-2.2,1.6-4.3,3.2-6.6,4.7c-17.9,12.2-38,23-60,31.4l-2,0.8c-0.7,0.3-1.4,0.5-2.1,0.7
		c-1.4,0.5-2.8,1-4.2,1.4c-2.8,0.9-5.6,1.9-8.4,2.8c-2.9,0.8-5.7,1.6-8.6,2.4c-1.4,0.4-2.9,0.8-4.3,1.2c-1.5,0.4-2.9,0.7-4.4,1
		c-3,0.7-5.9,1.4-8.9,2c-1.5,0.4-3,0.6-4.5,0.9c-1.5,0.3-3,0.5-4.5,0.8s-3,0.5-4.5,0.8l-2.3,0.4l-2.3,0.3c-3.1,0.4-6.2,0.7-9.2,1.1
		c-3.1,0.4-6.2,0.6-9.3,0.8c-3.1,0.2-6.3,0.5-9.4,0.6c-3.2,0.1-6.3,0.1-9.5,0.2c-1.6,0-3.2,0.1-4.8,0.1c-0.1,0-0.5,0-0.7,0h-0.6
		h-1.2l-2.4-0.1c-3.1-0.1-6.3-0.2-9.5-0.3c-1.6,0-3.2-0.2-4.8-0.4c-1.6-0.1-3.2-0.3-4.9-0.4c-6.5-0.4-12.9-1.5-19.4-2.3
		c-12.9-2.2-25.8-4.9-38.5-8.9c-6.4-1.8-12.7-4.2-19-6.4c-3.1-1.2-6.2-2.5-9.3-3.8c-1.6-0.6-3.1-1.3-4.7-1.9l-4.6-2.1
		c-24.6-11.2-47.9-26.2-69.1-44.1c-2.6-2.3-5.2-4.6-7.8-6.9c-2.6-2.3-5-4.8-7.5-7.2c-1.3-1.2-2.5-2.4-3.8-3.6l-3.6-3.8l-3.6-3.8
		c-1.2-1.3-2.4-2.5-3.5-3.9c-2.3-2.7-4.6-5.3-6.9-8c-1.2-1.3-2.2-2.7-3.3-4.1l-3.2-4.2c-1.1-1.4-2.2-2.8-3.2-4.2l-3.1-4.3l-3.1-4.3
		c-1-1.4-2.1-2.9-3-4.4c-1.9-3-3.8-5.9-5.7-8.9c-1-1.5-1.8-3-2.7-4.6l-2.7-4.6c-0.9-1.5-1.8-3.1-2.6-4.6l-2.4-4.7l-2.4-4.7l-1.2-2.4
		c-0.4-0.8-0.8-1.6-1.1-2.4c-1.5-3.2-3-6.5-4.5-9.7c-1.4-3.3-2.7-6.6-4-9.9c-0.7-1.7-1.4-3.3-2-5l-1.7-5.1l-1.7-5.1l-0.9-2.5
		c-0.3-0.8-0.5-1.7-0.8-2.6l-3-10.3c-0.5-1.7-0.9-3.5-1.3-5.2l-1.3-5.2l-1.3-5.2l-1-5.3l-1-5.3c-0.3-1.8-0.7-3.5-0.9-5.3l-1.5-10.7
		c-0.1-0.9-0.3-1.8-0.4-2.7l-0.2-2.7l-0.5-5.4l-0.5-5.4c-0.2-1.8-0.2-3.6-0.3-5.4l-0.4-10.8l0.1-10.8c0-1.8,0-3.6,0.1-5.4l0.3-5.4
		l0.3-5.4l0.2-2.7c0.1-0.9,0.2-1.8,0.3-2.7l1.2-10.8c0.2-1.8,0.5-3.6,0.8-5.3l0.9-5.3l0.9-5.3l1.1-5.3l1.2-5.3
		c0.4-1.8,0.7-3.5,1.2-5.3l2.8-10.4c0.2-0.9,0.5-1.7,0.7-2.6l0.8-2.6l1.7-5.1l1.7-5.1c0.6-1.7,1.3-3.4,1.9-5c1.3-3.3,2.5-6.7,3.9-10
		c1.5-3.3,2.9-6.6,4.3-9.9c0.4-0.8,0.7-1.7,1.1-2.5l1.2-2.4l2.4-4.8l2.4-4.8c0.8-1.6,1.8-3.1,2.6-4.7l2.6-4.7
		c0.9-1.5,1.7-3.1,2.7-4.6c1.9-3,3.8-6,5.7-9.1c0.9-1.5,2-3,3-4.4l3.1-4.4l3.1-4.4c1.1-1.4,2.2-2.8,3.3-4.2l3.3-4.2
		c1.1-1.4,2.1-2.8,3.3-4.2c2.3-2.7,4.6-5.4,6.9-8.1c1.1-1.4,2.4-2.6,3.6-3.9l3.6-3.9l3.6-3.8c1.2-1.2,2.5-2.5,3.8-3.7
		c2.6-2.4,5-4.9,7.6-7.3c2.6-2.3,5.3-4.6,7.9-6.9c21.4-18.1,45.1-33,70-44.1l4.6-2.1c1.6-0.6,3.2-1.3,4.7-1.9
		c3.2-1.2,6.3-2.5,9.5-3.7c6.4-2.2,12.7-4.5,19.2-6.2c12.8-3.9,25.9-6.4,38.9-8.4c6.5-0.8,13-1.8,19.5-2.1c1.6-0.1,3.2-0.2,4.8-0.4
		c1.6-0.1,3.2-0.3,4.8-0.3c3.2-0.1,6.4-0.2,9.6-0.2l2.4-0.1h1.2h0.6c0.2,0,0.6,0,0.7,0c1.6,0,3.1,0.1,4.7,0.1
		c3.1,0.1,6.2,0.2,9.4,0.3c3.2,0.2,6.4,0.5,9.5,0.7c3.2,0.3,6.3,0.4,9.4,0.9c3.1,0.4,6.2,0.8,9.3,1.2l2.3,0.3l2.3,0.4
		c1.5,0.3,3,0.6,4.6,0.8c1.5,0.3,3,0.6,4.5,0.8c1.5,0.3,3,0.5,4.5,0.9c3,0.7,5.9,1.4,8.9,2.1c1.5,0.4,3,0.7,4.4,1.1
		c1.5,0.4,2.9,0.8,4.3,1.3c2.9,0.8,5.8,1.7,8.6,2.5c2.8,0.9,5.6,1.9,8.4,2.9c1.4,0.5,2.8,1,4.2,1.5c0.7,0.2,1.4,0.5,2.1,0.7l2,0.8
		c5.4,2.2,10.9,4.2,16.1,6.8c2.6,1.2,5.2,2.4,7.8,3.6c2.5,1.3,5.1,2.6,7.6,3.9c10.1,5.2,19.4,11.2,28.5,17.2
		c2.3,1.5,4.4,3.2,6.6,4.7c2.2,1.6,4.3,3.1,6.5,4.8c2.1,1.7,4.1,3.3,6.2,5c2,1.7,4.1,3.3,6,5c7.8,6.9,15.2,13.9,21.9,21.1
		c13.5,14.4,24.8,29.4,34.2,44.2c9.4,14.8,16.9,29.5,22.7,43.5c1.6,3.4,2.8,7,4.1,10.3c1.3,3.4,2.6,6.7,3.6,10
		c1.1,3.3,2.1,6.5,3.2,9.6c0.9,3.2,1.7,6.3,2.6,9.3c6.5,24.3,8.5,43.9,9.4,57.3c0.1,1.7,0.2,3.2,0.3,4.7c0.1,1.5,0.1,2.9,0.1,4.1
		c0.1,2.6,0.1,4.7,0.1,6.4C1854,74.8,1854.1,76.6,1854.1,76.6L1854.1,76.6z M1853.1,76.6c0,0,0-1.8-0.1-5.2c0-1.7-0.1-3.9-0.2-6.4
		c-0.1-1.3,0-2.7-0.2-4.1c-0.1-1.5-0.2-3-0.4-4.7c-0.9-13.3-3.2-32.9-10.1-56.9c-0.9-3-1.8-6.1-2.7-9.2c-1.1-3.1-2.2-6.3-3.3-9.5
		c-1.1-3.3-2.5-6.5-3.8-9.8c-1.4-3.3-2.7-6.8-4.4-10.1c-1.6-3.4-3.2-6.9-4.9-10.4c-1.8-3.4-3.7-6.9-5.6-10.5c-2-3.5-4.2-7-6.3-10.6
		c-0.5-0.9-1.1-1.8-1.6-2.7c-0.6-0.9-1.2-1.8-1.8-2.6c-1.2-1.8-2.4-3.6-3.6-5.3c-9.7-14.3-21.4-28.6-35.1-42.2s-29.4-26.6-47.1-38.1
		c-8.9-5.7-18.2-11.2-28-16c-2.5-1.2-4.9-2.5-7.4-3.7c-2.5-1.1-5.1-2.2-7.6-3.4c-5.1-2.4-10.4-4.2-15.7-6.3
		c-21.3-7.9-44.3-13.3-68.2-16c-3-0.4-6-0.6-9-0.8s-6-0.5-9-0.6c-3.1-0.1-6.2-0.1-9.4-0.2c-1.6,0-3.1-0.1-4.7-0.1
		c-0.3,0-0.2,0-0.5,0h-0.6h-1.2l-2.3,0.1c-3.1,0.1-6.2,0.2-9.3,0.2c-1.6,0-3.1,0.2-4.7,0.3c-1.6,0.1-3.1,0.2-4.7,0.4
		c-6.3,0.3-12.5,1.3-18.8,2c-12.5,2-25.1,4.4-37.5,8.1c-3.1,0.9-6.2,1.7-9.3,2.8c-3.1,1-6.2,2.1-9.3,3.1c-3.1,1.1-6.1,2.4-9.1,3.5
		l-4.6,1.8l-4.5,2c-24.1,10.5-47.1,24.7-68,42c-2.6,2.2-5.1,4.4-7.7,6.6s-5,4.6-7.5,7c-1.2,1.2-2.5,2.3-3.7,3.5l-3.6,3.7l-3.6,3.7
		c-1.2,1.2-2.4,2.5-3.5,3.8c-2.3,2.6-4.5,5.2-6.8,7.8c-1.2,1.3-2.2,2.7-3.3,4l-3.2,4c-1.1,1.4-2.2,2.7-3.2,4.1l-3,4.2l-3,4.2
		c-1,1.4-2,2.8-3,4.3c-1.9,2.9-3.8,5.8-5.7,8.7c-1,1.4-1.8,3-2.7,4.5l-2.6,4.5c-0.9,1.5-1.8,3-2.6,4.5l-2.4,4.6l-2.4,4.6l-1.2,2.3
		c-0.4,0.8-0.7,1.6-1.1,2.4c-1.5,3.2-2.9,6.3-4.4,9.5c-1.4,3.2-2.7,6.5-4,9.7c-0.6,1.6-1.3,3.2-2,4.9l-1.7,5l-1.7,5l-0.9,2.5
		c-0.3,0.8-0.5,1.7-0.8,2.5l-3,10.1c-0.5,1.7-0.9,3.4-1.3,5.1l-1.2,5.1l-1.2,5.1l-1,5.2l-1,5.2c-0.3,1.7-0.7,3.5-0.9,5.2l-1.5,10.5
		c-0.1,0.9-0.3,1.7-0.3,2.6l-0.2,2.6l-0.5,5.3l-0.1,5c-0.2,1.7-0.2,3.6-0.3,5.3l-0.4,10.6l0.1,10.6c0,1.8,0,3.5,0.1,5.3l0.3,5.3
		l0.3,5.3l0.2,2.7c0.1,0.9,0.2,1.8,0.3,2.6l1.2,10.6c0.2,1.8,0.5,3.5,0.8,5.2l0.9,5.2l0.9,5.2l1.1,5.2l1.1,5.2
		c0.4,1.7,0.7,3.5,1.2,5.2l2.8,10.2c0.2,0.8,0.5,1.7,0.7,2.5l0.8,2.5l1.7,5l1.7,5c0.6,1.7,1.3,3.3,1.9,4.9c1.3,3.3,2.5,6.6,3.9,9.8
		c1.4,3.2,2.9,6.4,4.3,9.7c0.4,0.8,0.7,1.6,1.1,2.4l1.2,2.4l2.4,4.7l2.4,4.7c0.8,1.5,1.7,3.1,2.6,4.6l2.6,4.6
		c0.9,1.5,1.7,3.1,2.7,4.5c1.9,3,3.8,5.9,5.7,8.9c0.9,1.5,1.9,2.9,2.9,4.3l3,4.3l3,4.3c1.1,1.4,2.2,2.7,3.2,4.1l3.2,4.1
		c1.1,1.4,2.1,2.8,3.3,4c2.3,2.6,4.6,5.2,6.8,7.8c9.4,10.2,19.2,19.9,29.8,28.6c21.1,17.4,44.5,31.6,68.9,42l4.6,2l4.6,1.8
		c3.1,1.2,6.2,2.4,9.3,3.5c6.3,2,12.4,4.2,18.8,5.7c12.5,3.6,25.2,5.8,37.8,7.7c6.3,0.7,12.6,1.6,18.8,1.9c1.6,0.1,3.1,0.2,4.7,0.3
		c1.6,0.1,3.1,0.3,4.7,0.2c3.2,0,6.3,0.1,9.5,0.1h2.4h1.2h0.6c0.2,0,0.2,0,0.5,0c1.5-0.1,3.1-0.1,4.6-0.1c3.1-0.1,6.2-0.2,9.2-0.3
		c3.1-0.2,6.1-0.5,9.1-0.7c3-0.3,6.1-0.4,9.1-0.9c24-2.9,47-8.4,68.3-16.5c21.3-8,41-18.1,58.7-29.6c17.7-11.6,33.4-24.6,47.1-38.2
		c13.7-13.6,25.3-27.9,35.1-42.2c1.2-1.8,2.4-3.6,3.6-5.4c0.6-0.9,1.2-1.8,1.8-2.6c0.6-0.9,1.1-1.8,1.6-2.7
		c2.1-3.6,4.3-7.1,6.3-10.6c1.9-3.6,3.8-7.1,5.6-10.5c1.7-3.5,3.3-7,4.9-10.4c1.7-3.4,3-6.8,4.4-10.1s2.8-6.6,3.8-9.8
		c1.1-3.2,2.2-6.4,3.3-9.5c0.9-3.1,1.8-6.2,2.7-9.2c6.9-24,9.2-43.6,10-56.9c0.1-1.7,0.2-3.2,0.4-4.7c0.1-1.5,0.1-2.9,0.2-4.1
		c0.1-2.6,0.1-4.7,0.2-6.4C1853,78.4,1853.1,76.6,1853.1,76.6L1853.1,76.6z"/>
</g>
<g>
	
		<linearGradient id="XMLID_7_" gradientUnits="userSpaceOnUse" x1="938.2845" y1="-1936.8037" x2="840.5055" y2="-1856.1613" gradientTransform="matrix(0.9977 6.822254e-002 -6.822254e-002 0.9977 481.6533 2036.6587)">
		<stop  offset="0" style="stop-color:#BAC7BB"/>
		<stop  offset="7.595539e-003" style="stop-color:#BBC8BB"/>
		<stop  offset="0.4343" style="stop-color:#DFE5E0"/>
		<stop  offset="0.7801" style="stop-color:#F8F9F7"/>
		<stop  offset="1" style="stop-color:#FFFFFF"/>
	</linearGradient>
	<path id="XMLID_71_" class="st3" d="M1476.5,185c-5.9,4.6-9.9,11.4-12.9,18.3c-1.3,3-2.3,5.9-2.3,8.9c0,6.3,4.6,12,10.1,14.5
		s12.2,3,18.5,2.3c18.8-1.7,36.5-10.1,52.7-19.8c8.6-5.1,17.9-12.4,17.1-22.3c-0.4-5.9-4.8-11-10.1-13.7s-11.4-3.2-17.5-3.2
		c-10.7,0.2-21.3,2.5-31.6,5.1C1491.9,177.4,1483.2,179.7,1476.5,185z"/>
	<path id="XMLID_70_" class="st4" d="M1826.4,65.3c4.8,5.3,8,11.8,10.5,18.5c8.4,22.6,7.4,48.9-4.6,69.8
		c-11.8,20.9-34.8,35.6-58.8,36c-9.5,0.2-19.4-2.1-26.8-8.4c-8.9-7.6-12-19.8-13.3-31.6c-0.8-7.8-0.8-15.8-0.2-23.8
		c1.3-14.1,5.1-28,9.7-41.5c2.5-7.4,5.7-14.8,11-20.4c5.9-6.3,14.1-10.1,22.3-12.2C1794.1,47.6,1814.4,51.8,1826.4,65.3z"/>
	
		<linearGradient id="XMLID_8_" gradientUnits="userSpaceOnUse" x1="1133.512" y1="-2054.6833" x2="1144.7419" y2="-1804.1665" gradientTransform="matrix(1 0 0 1 471.365 2081.343)">
		<stop  offset="0" style="stop-color:#FFFFFF"/>
		<stop  offset="0.2199" style="stop-color:#F8F9F7"/>
		<stop  offset="0.5657" style="stop-color:#DFE5E0"/>
		<stop  offset="0.9924" style="stop-color:#BBC8BB"/>
		<stop  offset="1" style="stop-color:#BAC7BB"/>
	</linearGradient>
	<path id="XMLID_69_" class="st5" d="M1452.3,151.3c0,0,33.5,9.5,71.2,33.5s83.3,57.8,142.5,49.7c59.2-8,92.7-24.2,100.7-79.3
		c8-55-16.2-92.7-56.5-100.7s-60.5-1.3-137,36.3S1451,132.5,1451,132.5L1452.3,151.3z"/>
	
		<linearGradient id="XMLID_9_" gradientUnits="userSpaceOnUse" x1="983.171" y1="-2046.0107" x2="1283.5645" y2="-2392.7737" gradientTransform="matrix(1 0 0 1 471.365 2081.343)">
		<stop  offset="0" style="stop-color:#BAC7BB"/>
		<stop  offset="0.1331" style="stop-color:#C7D2C7"/>
		<stop  offset="0.4843" style="stop-color:#E6EAE6"/>
		<stop  offset="0.7856" style="stop-color:#F8FAFA"/>
		<stop  offset="1" style="stop-color:#FFFFFF"/>
	</linearGradient>
	<path id="XMLID_11_" class="st6" d="M1710.2-289c8.6,2.1,14.3,10.5,16.7,19c6.3,23-6.1,46.6-19.4,66.2
		c-37.9,55.9-87.7,102.4-137,148.6c-13.7,12.9-27.4,25.7-43.2,35.6c-4.2,2.7-11,4.6-13.5,0.4c-1.7-2.7-0.2-6.1,1.1-9.1
		c43.8-91.5,90-185.7,168.2-250.4C1691.1-284.8,1700.6-291.3,1710.2-289z"/>
	<g id="XMLID_141_">
		<g>
			
				<linearGradient id="XMLID_10_" gradientUnits="userSpaceOnUse" x1="2403.7422" y1="-1026.7041" x2="2384.5894" y2="-1465.1978" gradientTransform="matrix(-0.4348 -0.9005 -0.9005 0.4348 1524.9517 2668.6169)">
				<stop  offset="0" style="stop-color:#BAC7BB"/>
				<stop  offset="6.388396e-002" style="stop-color:#C3CFC4"/>
				<stop  offset="0.2823" style="stop-color:#DDE4DD"/>
				<stop  offset="0.5077" style="stop-color:#F0F2F0"/>
				<stop  offset="0.7421" style="stop-color:#FCFDFC"/>
				<stop  offset="1" style="stop-color:#FFFFFF"/>
			</linearGradient>
			<path id="XMLID_12_" class="st7" d="M1860.1-125.2c0-8.9-6.7-16.4-14.5-20.7c-20.7-11.6-46.6-5.3-68.9,3
				c-63.2,23.4-120.6,60.7-177,97.4c-15.6,10.1-31.4,20.4-45.1,33.3c-3.6,3.4-7.2,9.5-3.6,12.9c2.3,2.1,5.9,1.7,9.1,1.1
				c99.3-20.7,201.9-42.8,283.5-103.3C1851.5-107.5,1859.9-115.1,1860.1-125.2z"/>
		</g>
		<g>
			<g>
				<defs>
					<path id="SVGID_1_" d="M1860.1-125.2c0-8.9-6.7-16.4-14.5-20.7c-20.7-11.6-46.6-5.3-68.9,3c-63.2,23.4-120.6,60.7-177,97.4
						c-15.6,10.1-31.4,20.4-45.1,33.3c-3.6,3.4-7.2,9.5-3.6,12.9c2.3,2.1,5.9,1.7,9.1,1.1c99.3-20.7,201.9-42.8,283.5-103.3
						C1851.5-107.5,1859.9-115.1,1860.1-125.2z"/>
				</defs>
				<clipPath id="SVGID_2_">
					<use xlink:href="#SVGID_1_"  style="overflow:visible;"/>
				</clipPath>
				<path id="XMLID_68_" class="st8" d="M1585.9,8.4c49.7-11.4,99.5-23,147.5-39.6c28.9-9.9,57.8-22.1,80.3-42.6
					c6.1-5.5,11.8-11.8,16.2-18.8c1.9-3.2,3.6-6.7,3-10.3c-0.6-4.2-4.2-7.4-8.2-8.9s-8.4-1.3-12.6-1.1c-44.5,3-86.4,20.4-127.7,37.5
					c-43,17.9-86.2,36-126.7,59.4c-4,2.3-8,4.8-10.7,8.4s-4,8.9-1.7,12.9c2.3,4.2,7.4,5.9,12.2,6.3
					C1567.1,12.6,1576.6,10.5,1585.9,8.4z"/>
			</g>
		</g>
	</g>
	<path id="XMLID_67_" class="st4" d="M1549.2-75.7c-13.3-14.1-30.1-28.2-88.1-20.2S1334-47.6,1317.8-11.2
		c-16.2,36.5-3.6,118.9,53.7,161.2c67.2,49.7,139.1,26.6,182.1,2.3c43-24.2,61.1-91.5,54.4-133C1601.5-22.4,1571.3-52.1,1549.2-75.7
		z"/>
	<g id="XMLID_137_">
		<path id="XMLID_66_" class="st9" d="M1497.4,7.1c-0.6-9.1-7-16.7-15-19.8c-8-3.2-17.5-2.1-25.7,1.9c-8,4-14.8,10.5-20,18.1
			c-6.7,9.7-11.2,22.8-6.1,33.1c4.8,9.9,17.3,13.9,28,11.6c10.7-2.5,20-10.1,27.6-19C1492.5,25.5,1498,16.6,1497.4,7.1z"/>
		<path id="XMLID_65_" class="st10" d="M1478.6,1.4c-0.2-2.5-2.1-4.8-4.4-5.9s-5.3-0.8-7.6,0.2s-4.4,3-5.9,5.1
			c-1.9,2.7-3.2,6.3-1.7,9.5c1.5,3,5.1,4.2,8.4,3.6s5.9-2.7,8-5.1C1477.1,6.7,1478.8,4.2,1478.6,1.4z"/>
	</g>
	<g id="XMLID_64_">
		<g id="XMLID_77_">
			<path id="XMLID_81_" class="st11" d="M1356.1,12.6c-23.6,17.1,2.3,65.1,28.9,49.1c1.1-0.6,0.4-2.3-0.8-1.9
				c-26.3,9.7-46.2-27.2-27-45.9C1357.8,13.2,1357,12.2,1356.1,12.6L1356.1,12.6z"/>
		</g>
	</g>
	<g id="XMLID_63_">
		<g id="XMLID_59_">
			<path id="XMLID_75_" class="st11" d="M1355.5,12.8c-5.7,4.2-13.3,9.1-20.2,4.6c-6.3-4-6.3-11-7.2-17.5c-0.2-0.8-1.5-0.8-1.7,0
				c-1.9,7.4,1.5,16.4,8.4,20c7.8,4.2,15.8-0.6,21.7-6.1C1357.2,13.4,1356.4,12.2,1355.5,12.8L1355.5,12.8z"/>
		</g>
	</g>
	<path id="XMLID_62_" class="st12" d="M1358,22.9c7.4,1.3,15,1.1,22.3-0.6c3.6-0.8,7.2-2.3,9.3-5.5c1.7-2.7,1.7-6.5,0.4-9.5
		c-1.3-3.2-3.4-5.7-5.7-8.2c-4.2-4.6-8.6-9.1-13.3-13.3c-1.5-1.5-3.2-2.7-5.3-3.4c-3-1.1-6.3-0.2-9.3,0.8c-1.9,0.6-4,1.1-5.5,2.5
		c-2.1,1.9-2.3,5.1-2.5,8c-0.4,7,0,14.1,1.3,20.9c0.4,1.9,0.8,4,2.1,5.5C1353.6,21.9,1355.9,22.5,1358,22.9z"/>
	<g id="XMLID_117_">
		<g>
			<g>
				<defs>
					<path id="SVGID_3_" d="M1549.2-75.7c-13.3-14.1-30.1-28.2-88.1-20.2S1334-47.6,1317.8-11.2c-16.2,36.5-3.6,118.9,53.7,161.2
						c67.2,49.7,139.1,26.6,182.1,2.3c43-24.2,61.1-91.5,54.4-133C1601.5-22.4,1571.3-52.1,1549.2-75.7z"/>
				</defs>
				<clipPath id="SVGID_4_">
					<use xlink:href="#SVGID_3_"  style="overflow:visible;"/>
				</clipPath>
				<g id="XMLID_119_" class="st13">
					<path id="XMLID_61_" class="st9" d="M1411.2-104c8.6,2.3,15.2,9.9,16.7,18.3c1.7,8.4-1.3,17.7-6.7,24.9
						c-5.5,7.2-13.3,12.4-21.5,16.2c-10.7,4.8-24.4,6.7-33.5-0.2c-8.9-6.5-10.5-19.6-6.1-29.7c4.4-10.1,13.7-17.9,23.8-23.4
						C1392.2-102.7,1401.9-106.3,1411.2-104z"/>
					<path id="XMLID_60_" class="st10" d="M1412.4-92.6c2.5,0.6,4.4,3,4.8,5.5c0.4,2.5-0.2,5.3-1.7,7.4s-3.6,3.8-6.1,4.8
						c-3,1.5-7,1.9-9.7,0c-2.5-1.9-3.2-5.9-1.9-8.9c1.3-3,3.8-5.3,6.5-7C1407.2-92.2,1409.9-93.2,1412.4-92.6z"/>
				</g>
			</g>
		</g>
	</g>
	<g id="XMLID_48_">
		<g id="XMLID_52_">
			<path id="XMLID_57_" class="st11" d="M1322.4-38c-18.8-6.7-35.8-24.2-56.5-24.4c-1.1,0-1.3,1.5-0.2,1.7
				c20.4,4.8,36.3,18.5,56.3,24.4C1322.8-36.1,1323.3-37.6,1322.4-38L1322.4-38z"/>
		</g>
	</g>
	<g id="XMLID_42_">
		<g id="XMLID_45_">
			<path id="XMLID_50_" class="st11" d="M1343.1-59.9c-9.3-19-19.6-40.5-36.5-54c-0.8-0.6-1.9,0.4-1.3,1.3
				c14.5,16.9,25.5,34.1,36.3,53.5C1342-58,1343.5-58.9,1343.1-59.9L1343.1-59.9z"/>
		</g>
	</g>
	<g id="XMLID_36_">
		<g id="XMLID_38_">
			<path id="XMLID_43_" class="st11" d="M1368.8-75.1c-2.3-25.3-2.5-50.8-5.3-75.9c-0.2-1.1-1.7-1.1-1.7,0
				c-1.3,25.1,2.1,51.2,5.1,75.9C1367.1-74,1369-74,1368.8-75.1L1368.8-75.1z"/>
		</g>
	</g>
	<g id="XMLID_5_">
		<g id="XMLID_31_">
			<path id="XMLID_35_" class="st11" d="M1434.8,108.9c3,30.6,3.8,60.9,5.1,91.5c0,1.3,1.9,1.3,1.9,0c2.1-30.1-0.6-62-5.3-91.7
				C1436.5,107.7,1434.6,107.9,1434.8,108.9L1434.8,108.9z"/>
		</g>
	</g>
	<g id="XMLID_4_">
		<g id="XMLID_25_">
			<path id="XMLID_29_" class="st11" d="M1462.6,100.1c9.1,19.6,16.7,39.8,25.5,59.6c0.4,1.1,2.3,0.2,1.9-0.8
				c-6.5-20.4-16-40.5-25.7-59.6C1463.6,98.2,1462.2,99.2,1462.6,100.1L1462.6,100.1z"/>
		</g>
	</g>
	<g id="XMLID_3_">
		<g id="XMLID_23_">
			<path id="XMLID_76_" class="st11" d="M1484.5,85.7c5.5,8.4,13.1,13.7,21.7,18.5c11.8,6.5,22.1,14.1,33.1,21.9
				c0.8,0.6,1.7-0.6,1.1-1.5c-15.4-16.7-41.5-21.3-54.4-40C1485.4,84.1,1483.9,84.9,1484.5,85.7L1484.5,85.7z"/>
		</g>
	</g>
	
		<linearGradient id="XMLID_13_" gradientUnits="userSpaceOnUse" x1="1200.8152" y1="-1971.5718" x2="1196.7831" y2="-1717.5479" gradientTransform="matrix(1 0 0 1 471.365 2081.343)">
		<stop  offset="0" style="stop-color:#FFFFFF"/>
		<stop  offset="0.2199" style="stop-color:#F8F9F7"/>
		<stop  offset="0.5657" style="stop-color:#DFE5E0"/>
		<stop  offset="0.9924" style="stop-color:#BBC8BB"/>
		<stop  offset="1" style="stop-color:#BAC7BB"/>
	</linearGradient>
	<path id="XMLID_2_" class="st14" d="M1732.6,256c11.8-8.2,13.7-24.7,14.5-39.2c1.7-31,3-64.5-14.3-90.4c-13.3-20-37.3-32.5-61.3-32
		c-15.8,0.2-31.6,6.1-43,16.9c-11.4,10.7-18.1,26.8-16.7,42.4c1.3,14.1,8.9,26.8,17.3,37.9c11.6,15.2,25.7,28.7,41.3,39.6
		c-22.1,0.2-44.5,3.4-65.8,9.1c-5.3,1.5-11.4,4.2-11.8,9.7c-0.4,6.5,8,9.7,14.5,10.5c34.1,4.4,68.5,5.1,102.6,1.9
		C1717.8,261.7,1726.3,260.7,1732.6,256z"/>
	
		<linearGradient id="XMLID_14_" gradientUnits="userSpaceOnUse" x1="1278.3319" y1="-1838.9402" x2="1276.4077" y2="-1717.7163" gradientTransform="matrix(0.994 -0.1097 0.1097 0.994 459.5471 2153.4148)">
		<stop  offset="0" style="stop-color:#FFFFFF"/>
		<stop  offset="0.2199" style="stop-color:#F8F9F7"/>
		<stop  offset="0.5657" style="stop-color:#DFE5E0"/>
		<stop  offset="0.9924" style="stop-color:#BBC8BB"/>
		<stop  offset="1" style="stop-color:#BAC7BB"/>
	</linearGradient>
	<path id="XMLID_1_" class="st15" d="M1494.6,222.3c-2.7,7-3,14.8-2.1,22.3c0.4,3.2,0.8,6.3,2.5,8.9c3.2,5.5,9.9,8,16.2,7.6
		c6.3-0.4,12-3.6,17.3-7.2c15.4-11,26.6-27,35.8-43.4c4.8-8.6,9.3-19.8,3.6-28c-3.4-4.8-9.7-7.2-15.8-6.7s-11.6,3-16.7,6.1
		c-9.1,5.5-17.1,12.9-24.9,20.2C1504.3,207.8,1497.8,214.1,1494.6,222.3z"/>
</g>
<polygon class="st16" points="796,-420 874,-298.4 2258,-298.4 2332,-420.4 "/>
</svg>
