<?xml version="1.0" encoding="utf-8"?>
<!-- Generator: Adobe Illustrator 19.1.1, SVG Export Plug-In . SVG Version: 6.00 Build 0)  -->
<svg version="1.1" id="图层_1" xmlns="http://www.w3.org/2000/svg" xmlns:xlink="http://www.w3.org/1999/xlink" x="0px" y="0px"
	 viewBox="0 0 850.4 283.5" style="enable-background:new 0 0 850.4 283.5;" xml:space="preserve">
<style type="text/css">
	.st0{fill:#87AA5B;stroke:#000000;stroke-width:5;stroke-miterlimit:10;}
	.st1{font-family:'SimHei';}
	.st2{font-size:144px;}
	.st3{stroke:#000000;stroke-width:4;stroke-miterlimit:10;}
</style>
<path class="st0" d="M708.7,269.3h-567c-70.2,0-127.6-57.4-127.6-127.6l0,0c0-70.2,57.4-127.6,127.6-127.6h566.9
	c70.2,0,127.6,57.4,127.6,127.6l0,0C836.2,211.9,778.8,269.3,708.7,269.3z"/>
<text transform="matrix(1 0 0 1 299.5967 185.9555)" class="st1 st2">Next &gt;</text>
<g>
	<g>
		<path class="st3" d="M203.7,143.7l-84.5-54.9c-0.9-0.6-2.2-0.7-3.2-0.1s-1.6,1.6-1.6,2.8v109.8c0,1.1,0.6,2.2,1.6,2.8
			c0.4,0.3,1,0.4,1.5,0.4c0.6,0,1.2-0.2,1.7-0.5l84.5-54.9c0.9-0.6,1.5-1.6,1.5-2.7S204.6,144.3,203.7,143.7z M120.7,195.4V97.3
			l75.5,49.1L120.7,195.4z"/>
		<path class="st3" d="M125,110.9l53.2,34.6c0.3,0.2,0.6,0.3,0.9,0.3c0.5,0,1-0.3,1.3-0.7c0.5-0.8,0.3-1.7-0.4-2.2l-53.2-34.6
			c-0.8-0.5-1.7-0.3-2.2,0.4C124,109.4,124.3,110.4,125,110.9z"/>
		<path class="st3" d="M149.1,54.8c-50.5,0-91.6,41-91.6,91.6s41,91.6,91.6,91.6s91.6-41,91.6-91.6S199.6,54.8,149.1,54.8z
			 M149.1,231.6c-47,0-85.3-38.3-85.3-85.3S102.1,61,149.1,61s85.3,38.3,85.3,85.3S196.1,231.6,149.1,231.6z"/>
	</g>
</g>
</svg>
