<?xml version="1.0" encoding="utf-8"?>
<!-- Generator: Adobe Illustrator 19.1.1, SVG Export Plug-In . SVG Version: 6.00 Build 0)  -->
<svg version="1.1" id="图层_1" xmlns="http://www.w3.org/2000/svg" xmlns:xlink="http://www.w3.org/1999/xlink" x="0px" y="0px"
	 viewBox="0 0 850.4 283.5" style="enable-background:new 0 0 850.4 283.5;" xml:space="preserve">
<style type="text/css">
	.st0{fill:#EEB034;stroke:#000000;stroke-width:5;stroke-miterlimit:10;}
	.st1{fill:#040000;}
</style>
<path class="st0" d="M708.7,269.3h-567c-70.2,0-127.6-57.4-127.6-127.6l0,0c0-70.2,57.4-127.6,127.6-127.6h566.9
	c70.2,0,127.6,57.4,127.6,127.6l0,0C836.2,211.9,778.8,269.3,708.7,269.3z"/>
<g id="XMLID_2_">
	<g id="XMLID_10_">
		<path id="XMLID_7_" class="st1" d="M118.2,229.4c10.3,4.9,21.5,8.1,33.5,9V209c-6.6-0.7-13-2.2-18.9-4.8L118.2,229.4z"/>
		<path id="XMLID_6_" class="st1" d="M223.6,137.1H253C249.3,88.4,208.6,50,159,50c-29.2,0-56.6,13.7-74.3,36.3L57.5,70.5l-0.1,89.8
			l77.8-44.8l-25-14.5c12.3-13.8,30-22,48.8-22C192.5,79,219.9,104.5,223.6,137.1z"/>
		<path id="XMLID_5_" class="st1" d="M106.5,183l-25.4,14.7c6.6,9.6,14.9,17.9,24.5,24.5l14.7-25.4
			C115.1,192.9,110.4,188.2,106.5,183z"/>
		<path id="XMLID_4_" class="st1" d="M166.2,208.9v29.4c11.9-0.9,23.2-4.1,33.4-9L185,204.1C179.2,206.7,172.8,208.2,166.2,208.9z"
			/>
		<path id="XMLID_8_" class="st1" d="M197.6,196.8l14.7,25.4c9.6-6.6,17.9-14.9,24.5-24.5L211.4,183
			C207.5,188.2,202.9,192.9,197.6,196.8z"/>
		<path id="XMLID_9_" class="st1" d="M218.8,170.5L244,185c4.9-10.3,8.1-21.5,9-33.4h-29.4C222.8,158.2,221.3,164.6,218.8,170.5z"/>
	</g>
</g>
</svg>
