<?xml version="1.0" encoding="utf-8"?>
<!-- Generator: Adobe Illustrator 19.1.1, SVG Export Plug-In . SVG Version: 6.00 Build 0)  -->
<svg version="1.1" id="图层_1" xmlns="http://www.w3.org/2000/svg" xmlns:xlink="http://www.w3.org/1999/xlink" x="0px" y="0px"
	 viewBox="141 142.4 850.4 283.5" style="enable-background:new 141 142.4 850.4 283.5;" xml:space="preserve">
<style type="text/css">
	.st0{fill:#87AA5B;stroke:#000000;stroke-width:5;stroke-miterlimit:10;}
	.st1{enable-background:new    ;}
	.st2{stroke:#000000;stroke-width:4;stroke-miterlimit:10;}
</style>
<path class="st0" d="M849.8,411.8h-567c-70.2,0-127.6-57.4-127.6-127.6l0,0c0-70.2,57.4-127.6,127.6-127.6h566.9
	c70.2,0,127.6,57.4,127.6,127.6l0,0C977.3,354.4,919.8,411.8,849.8,411.8z"/>
<g class="st1">
	<path d="M451.5,328.5v-103h14l54.1,80.9v-80.9h13.1v103.1h-14l-54.1-81v81h-13.1V328.5z"/>
	<path d="M605.2,304.5l13.1,1.6c-2.1,7.6-5.9,13.6-11.5,17.8c-5.6,4.2-12.7,6.3-21.4,6.3c-10.9,0-19.6-3.4-26-10.1
		s-9.6-16.2-9.6-28.3c0-12.6,3.2-22.3,9.7-29.3c6.5-6.9,14.9-10.4,25.2-10.4c10,0,18.1,3.4,24.5,10.2c6.3,6.8,9.5,16.4,9.5,28.7
		c0,0.8,0,1.9-0.1,3.4H563c0.5,8.2,2.8,14.5,7,18.8c4.2,4.4,9.4,6.5,15.6,6.5c4.6,0,8.6-1.2,11.9-3.7
		C600.7,313.7,603.3,309.8,605.2,304.5z M563.7,284h41.7c-0.6-6.3-2.2-11-4.8-14.1c-4-4.9-9.3-7.3-15.7-7.3
		c-5.8,0-10.7,1.9-14.7,5.8C566.3,272.3,564,277.5,563.7,284z"/>
	<path d="M625.8,328.5l27.3-38.8l-25.2-35.9h15.8l11.5,17.5c2.2,3.3,3.9,6.1,5.2,8.4c2.1-3.1,4-5.8,5.7-8.2l12.6-17.6h15.1
		l-25.8,35.2l27.8,39.5h-15.5l-15.3-23.2l-4.1-6.3l-19.6,29.5h-15.5V328.5z"/>
	<path d="M733.8,317.2l1.8,11.2c-3.6,0.7-6.8,1.1-9.6,1.1c-4.6,0-8.2-0.7-10.7-2.2s-4.3-3.4-5.3-5.7c-1-2.4-1.5-7.3-1.5-14.9v-43
		h-9.3v-9.8h9.3v-18.5l12.6-7.6v26.1h12.7v9.8H721v43.7c0,3.6,0.2,5.9,0.7,7c0.4,1,1.2,1.9,2.2,2.5s2.4,0.9,4.3,0.9
		C729.7,317.7,731.5,317.5,733.8,317.2z"/>
	<path d="M793,302.9l-3.9-54.6v-22.9h15.7v22.9l-3.7,54.6H793z M789.7,328.5v-14.4h14.6v14.4H789.7z"/>
</g>
<g>
	<g>
		<path class="st2" d="M344.8,286.2l-84.5-54.9c-0.9-0.6-2.2-0.7-3.2-0.1s-1.6,1.6-1.6,2.8v109.8c0,1.1,0.6,2.2,1.6,2.8
			c0.4,0.3,1,0.4,1.5,0.4c0.6,0,1.2-0.2,1.7-0.5l84.5-54.9c0.9-0.6,1.5-1.6,1.5-2.7S345.7,286.8,344.8,286.2z M261.8,337.9v-98.1
			l75.5,49.1L261.8,337.9z"/>
		<path class="st2" d="M266,253.4l53.2,34.6c0.3,0.2,0.6,0.3,0.9,0.3c0.5,0,1-0.3,1.3-0.7c0.5-0.8,0.3-1.7-0.4-2.2l-53.2-34.6
			c-0.8-0.5-1.7-0.3-2.2,0.4C265,251.9,265.3,252.9,266,253.4z"/>
		<path class="st2" d="M290.2,197.3c-50.5,0-91.6,41-91.6,91.6s41,91.6,91.6,91.6s91.6-41,91.6-91.6S340.7,197.3,290.2,197.3z
			 M290.2,374.1c-47,0-85.3-38.3-85.3-85.3s38.3-85.3,85.3-85.3s85.3,38.3,85.3,85.3S337.2,374.1,290.2,374.1z"/>
	</g>
</g>
</svg>
