<?xml version="1.0" encoding="utf-8"?>
<!-- Generator: Adobe Illustrator 19.1.1, SVG Export Plug-In . SVG Version: 6.00 Build 0)  -->
<svg version="1.1" id="图层_1" xmlns="http://www.w3.org/2000/svg" xmlns:xlink="http://www.w3.org/1999/xlink" x="0px" y="0px"
	 viewBox="141 142.4 850.4 283.5" style="enable-background:new 141 142.4 850.4 283.5;" xml:space="preserve">
<style type="text/css">
	.st0{fill:#87AA5B;stroke:#000000;stroke-width:5;stroke-miterlimit:10;}
	.st1{font-family:'ArialMT';}
	.st2{font-size:144px;}
	.st3{stroke:#000000;stroke-width:4;stroke-miterlimit:10;}
</style>
<path class="st0" d="M849.8,411.8h-567c-70.2,0-127.6-57.4-127.6-127.6l0,0c0-70.2,57.4-127.6,127.6-127.6h566.9
	c70.2,0,127.6,57.4,127.6,127.6l0,0C977.3,354.4,919.8,411.8,849.8,411.8z"/>
<text transform="matrix(1 0 0 1 440.6467 328.5055)" class="st1 st2">Next !</text>
<g>
	<g>
		<path class="st3" d="M344.8,286.2l-84.5-54.9c-0.9-0.6-2.2-0.7-3.2-0.1c-1,0.6-1.6,1.6-1.6,2.8v109.8c0,1.1,0.6,2.2,1.6,2.8
			c0.4,0.3,1,0.4,1.5,0.4c0.6,0,1.2-0.2,1.7-0.5l84.5-54.9c0.9-0.6,1.5-1.6,1.5-2.7C346.3,287.8,345.7,286.8,344.8,286.2z
			 M261.8,337.9v-98.1l75.5,49.1L261.8,337.9z"/>
		<path class="st3" d="M266,253.4l53.2,34.6c0.3,0.2,0.6,0.3,0.9,0.3c0.5,0,1-0.3,1.3-0.7c0.5-0.8,0.3-1.7-0.4-2.2l-53.2-34.6
			c-0.8-0.5-1.7-0.3-2.2,0.4C265,251.9,265.3,252.9,266,253.4z"/>
		<path class="st3" d="M290.2,197.3c-50.5,0-91.6,41-91.6,91.6s41,91.6,91.6,91.6s91.6-41,91.6-91.6S340.7,197.3,290.2,197.3z
			 M290.2,374.1c-47,0-85.3-38.3-85.3-85.3s38.3-85.3,85.3-85.3s85.3,38.3,85.3,85.3S337.2,374.1,290.2,374.1z"/>
	</g>
</g>
</svg>
