<?xml version="1.0" encoding="utf-8"?>
<!-- Generator: Adobe Illustrator 19.1.1, SVG Export Plug-In . SVG Version: 6.00 Build 0)  -->
<svg version="1.1" id="图层_1" xmlns="http://www.w3.org/2000/svg" xmlns:xlink="http://www.w3.org/1999/xlink" x="0px" y="0px"
	 viewBox="141 142.4 850.4 283.5" style="enable-background:new 141 142.4 850.4 283.5;" xml:space="preserve">
<style type="text/css">
	.st0{fill:#EEB034;stroke:#000000;stroke-width:5;stroke-miterlimit:10;}
	.st1{fill:#040000;}
	.st2{font-family:'ArialMT';}
	.st3{font-size:144px;}
</style>
<path class="st0" d="M849.7,411.7h-567c-70.2,0-127.6-57.4-127.6-127.6l0,0c0-70.2,57.4-127.6,127.6-127.6h566.9
	c70.2,0,127.6,57.4,127.6,127.6l0,0C977.2,354.3,919.8,411.7,849.7,411.7z"/>
<g id="XMLID_2_">
	<g id="XMLID_10_">
		<path id="XMLID_7_" class="st1" d="M259.2,371.8c10.3,4.9,21.5,8.1,33.5,9v-29.4c-6.6-0.7-13-2.2-18.9-4.8L259.2,371.8z"/>
		<path id="XMLID_6_" class="st1" d="M364.6,279.5H394c-3.7-48.7-44.4-87.1-94-87.1c-29.2,0-56.6,13.7-74.3,36.3l-27.2-15.8
			l-0.1,89.8l77.8-44.8l-25-14.5c12.3-13.8,30-22,48.8-22C333.5,221.4,360.9,246.9,364.6,279.5z"/>
		<path id="XMLID_5_" class="st1" d="M247.5,325.4l-25.4,14.7c6.6,9.6,14.9,17.9,24.5,24.5l14.7-25.4
			C256.1,335.3,251.4,330.6,247.5,325.4z"/>
		<path id="XMLID_4_" class="st1" d="M307.2,351.3v29.4c11.9-0.9,23.2-4.1,33.4-9L326,346.5C320.2,349.1,313.8,350.6,307.2,351.3z"
			/>
		<path id="XMLID_8_" class="st1" d="M338.6,339.2l14.7,25.4c9.6-6.6,17.9-14.9,24.5-24.5l-25.4-14.7
			C348.5,330.6,343.9,335.3,338.6,339.2z"/>
		<path id="XMLID_9_" class="st1" d="M359.8,312.9l25.2,14.5c4.9-10.3,8.1-21.5,9-33.4h-29.4C363.8,300.6,362.3,307,359.8,312.9z"/>
	</g>
</g>
<text transform="matrix(1 0 0 1 440.5967 328.4655)" class="st2 st3">Replay</text>
</svg>
