<?xml version="1.0" encoding="utf-8"?>
<!-- Generator: Adobe Illustrator 19.1.1, SVG Export Plug-In . SVG Version: 6.00 Build 0)  -->
<svg version="1.1" id="图层_1" xmlns="http://www.w3.org/2000/svg" xmlns:xlink="http://www.w3.org/1999/xlink" x="0px" y="0px"
	 viewBox="141 142.4 850.4 283.5" style="enable-background:new 141 142.4 850.4 283.5;" xml:space="preserve">
<style type="text/css">
	.st0{fill:#EEB034;stroke:#000000;stroke-width:5;stroke-miterlimit:10;}
	.st1{fill:#040000;}
	.st2{enable-background:new    ;}
</style>
<path class="st0" d="M853.4,411.8h-567c-70.2,0-127.6-57.4-127.6-127.6l0,0c0-70.2,57.4-127.6,127.6-127.6h566.9
	c70.2,0,127.6,57.4,127.6,127.6l0,0C980.9,354.4,923.5,411.8,853.4,411.8z"/>
<g id="XMLID_2_">
	<g id="XMLID_10_">
		<path id="XMLID_7_" class="st1" d="M262.9,371.9c10.3,4.9,21.5,8.1,33.5,9v-29.4c-6.6-0.7-13-2.2-18.9-4.8L262.9,371.9z"/>
		<path id="XMLID_6_" class="st1" d="M368.3,279.6h29.4c-3.7-48.7-44.4-87.1-94-87.1c-29.2,0-56.6,13.7-74.3,36.3L202.2,213
			l-0.1,89.8l77.8-44.8l-25-14.5c12.3-13.8,30-22,48.8-22C337.2,221.5,364.6,247,368.3,279.6z"/>
		<path id="XMLID_5_" class="st1" d="M251.2,325.5l-25.4,14.7c6.6,9.6,14.9,17.9,24.5,24.5l14.7-25.4
			C259.8,335.4,255.1,330.7,251.2,325.5z"/>
		<path id="XMLID_4_" class="st1" d="M310.9,351.4v29.4c11.9-0.9,23.2-4.1,33.4-9l-14.6-25.2C323.9,349.2,317.5,350.7,310.9,351.4z"
			/>
		<path id="XMLID_8_" class="st1" d="M342.3,339.3l14.7,25.4c9.6-6.6,17.9-14.9,24.5-24.5l-25.4-14.7
			C352.2,330.7,347.6,335.4,342.3,339.3z"/>
		<path id="XMLID_9_" class="st1" d="M363.5,313l25.2,14.5c4.9-10.3,8.1-21.5,9-33.4h-29.4C367.5,300.7,366,307.1,363.5,313z"/>
	</g>
</g>
<g class="st2">
	<path d="M455.6,328.6V225.5h45.7c9.2,0,16.2,0.9,21,2.8s8.6,5.1,11.5,9.8c2.9,4.7,4.3,9.9,4.3,15.5c0,7.3-2.4,13.5-7.1,18.5
		c-4.7,5-12,8.2-21.9,9.6c3.6,1.7,6.4,3.4,8.2,5.1c4,3.7,7.8,8.2,11.3,13.7l17.9,28.1h-17.2l-13.6-21.5c-4-6.2-7.3-10.9-9.8-14.2
		c-2.6-3.3-4.9-5.6-6.9-6.9s-4.1-2.2-6.2-2.7c-1.5-0.3-4.1-0.5-7.6-0.5h-15.8v45.8L455.6,328.6L455.6,328.6z M469.3,271h29.3
		c6.2,0,11.1-0.6,14.6-1.9s6.2-3.4,8-6.2c1.8-2.8,2.7-5.9,2.7-9.2c0-4.9-1.8-8.9-5.3-12s-9.1-4.7-16.8-4.7h-32.6L469.3,271
		L469.3,271z"/>
	<path d="M608.9,304.5l13.1,1.6c-2.1,7.6-5.9,13.6-11.5,17.8c-5.6,4.2-12.7,6.3-21.4,6.3c-10.9,0-19.6-3.4-26-10.1
		s-9.6-16.2-9.6-28.3c0-12.6,3.2-22.3,9.7-29.3c6.5-6.9,14.9-10.4,25.2-10.4c10,0,18.1,3.4,24.5,10.2c6.3,6.8,9.5,16.4,9.5,28.7
		c0,0.8,0,1.9-0.1,3.4h-55.7c0.5,8.2,2.8,14.5,7,18.8c4.2,4.4,9.4,6.5,15.6,6.5c4.6,0,8.6-1.2,11.9-3.7
		C604.4,313.8,607,309.9,608.9,304.5z M567.3,284.1H609c-0.6-6.3-2.2-11-4.8-14.1c-4-4.9-9.3-7.3-15.7-7.3c-5.8,0-10.7,1.9-14.7,5.8
		C570,272.4,567.8,277.6,567.3,284.1z"/>
	<path d="M637.9,357.2V253.9h11.5v9.7c2.7-3.8,5.8-6.6,9.2-8.5s7.6-2.8,12.4-2.8c6.4,0,12,1.6,16.9,4.9s8.6,7.9,11,13.9
		c2.5,6,3.7,12.5,3.7,19.7c0,7.6-1.4,14.5-4.1,20.6s-6.7,10.8-12,14.1c-5.2,3.3-10.7,4.9-16.5,4.9c-4.2,0-8-0.9-11.4-2.7
		c-3.4-1.8-6.1-4-8.3-6.8v36.4h-12.4V357.2z M649.3,291.7c0,9.6,1.9,16.7,5.8,21.3c3.9,4.6,8.6,6.9,14.1,6.9
		c5.6,0,10.4-2.4,14.4-7.1c4-4.8,6-12.1,6-22.1c0-9.5-2-16.6-5.9-21.4c-3.9-4.7-8.6-7.1-14-7.1s-10.2,2.5-14.3,7.6
		C651.4,274.7,649.3,282.1,649.3,291.7z"/>
	<path d="M717.7,328.6V225.5h12.7v103.1H717.7z"/>
	<path d="M798.7,319.4c-4.7,4-9.2,6.8-13.5,8.4s-9,2.5-14,2.5c-8.2,0-14.5-2-18.9-6s-6.6-9.1-6.6-15.4c0-3.7,0.8-7,2.5-10
		s3.8-5.4,6.5-7.3c2.7-1.8,5.7-3.2,9.1-4.1c2.5-0.7,6.2-1.3,11.3-1.9c10.2-1.2,17.7-2.7,22.6-4.4c0-1.7,0.1-2.8,0.1-3.3
		c0-5.2-1.2-8.8-3.6-10.9c-3.2-2.9-8-4.3-14.4-4.3c-6,0-10.3,1-13.2,3.1c-2.8,2.1-4.9,5.8-6.3,11.1l-12.4-1.7
		c1.1-5.3,3-9.6,5.6-12.8c2.6-3.3,6.3-5.8,11.2-7.5c4.9-1.8,10.5-2.6,16.9-2.6s11.6,0.8,15.5,2.3c4,1.5,6.9,3.4,8.8,5.7
		c1.9,2.3,3.2,5.1,3.9,8.6c0.4,2.2,0.6,6,0.6,11.7v16.9c0,11.8,0.3,19.2,0.8,22.3c0.5,3.1,1.6,6.1,3.2,9h-13.2
		C799.9,326,799,322.9,798.7,319.4z M797.6,291.1c-4.6,1.9-11.5,3.5-20.7,4.8c-5.2,0.8-8.9,1.6-11,2.5c-2.2,0.9-3.8,2.3-5,4.1
		c-1.2,1.8-1.8,3.8-1.8,6c0,3.4,1.3,6.2,3.8,8.4c2.6,2.3,6.3,3.4,11.2,3.4s9.2-1.1,13-3.2s6.6-5.1,8.4-8.8c1.4-2.9,2-7.1,2-12.7
		L797.6,291.1L797.6,291.1z"/>
	<path d="M829.5,357.4l-1.4-11.9c2.8,0.7,5.2,1.1,7.2,1.1c2.8,0,5.1-0.5,6.8-1.4s3.1-2.3,4.1-3.9c0.8-1.3,2.1-4.4,3.9-9.4
		c0.2-0.7,0.6-1.7,1.1-3.1L822.9,254h13.6l15.5,43.2c2,5.5,3.8,11.3,5.4,17.3c1.5-5.8,3.2-11.5,5.2-17l16-43.5h12.7l-28.4,75.9
		c-3,8.2-5.4,13.9-7.1,16.9c-2.3,4.2-4.8,7.2-7.7,9.2c-2.9,1.9-6.4,2.9-10.4,2.9C835.2,358.9,832.5,358.4,829.5,357.4z"/>
</g>
</svg>
